<?xml version="1.0" encoding="utf-8"?>
<!-- Generator: Adobe Illustrator 19.2.1, SVG Export Plug-In . SVG Version: 6.00 Build 0)  -->
<svg version="1.1" id="Layer_1" xmlns="http://www.w3.org/2000/svg" xmlns:xlink="http://www.w3.org/1999/xlink" x="0px" y="0px"
	 viewBox="0 0 89 89.2" style="enable-background:new 0 0 89 89.2;" xml:space="preserve">
<style type="text/css">
	.st0{fill:#4F6B6D;}
	.st1{fill:#FFFFFF;}
</style>
<g>
	<circle class="st0" cx="44.5" cy="44.7" r="43.5"/>
	<g>
		<path class="st1" d="M56.8,55.3c0.1-5,4.9-4.7,4.9-4.7s0-4.7-0.1-8.2c-6.2,0.3-15-1.8-17.9,3.3c-0.9-5.1-13-3.1-17.2-3.3v8.1
			c0,0,4.7-0.1,4.9,5.3c0.2,5-4.9,5.2-4.9,5.2s0,4,0,8.2c0.2,0.2,14.9-1.9,17.6,3.1c1.7-4.7,17.6-3.4,17.6-3.4s0-3.9,0-7.9
			C59.7,60.4,56.8,60.1,56.8,55.3z"/>
		<path class="st1" d="M29.9,53.5c-1.3-2.3-3.5-1.9-5-1.7c-1.5,0.2-1.5,2.1-1.5,3.9c0,1.8-0.2,3.6,1,4c2.2,0.6,4.2-0.5,4.8-1
			C29.7,58.2,31,55.5,29.9,53.5z"/>
		<path class="st1" d="M64.8,55.7c0-1.8,0-3.6-1.5-3.9c-1.5-0.2-3.7-0.7-5,1.7c-1.1,2,0.2,4.7,0.7,5.2c0.6,0.5,2.6,1.6,4.8,1
			C65,59.2,64.8,57.4,64.8,55.7z"/>
		<path class="st1" d="M28.2,30.7c0,0,0.8,1.7,2.1,1.6c1.4-2.7-0.1-5.2-0.1-5.2s0,0,0.1-1.1c0.4-1.1,0-3.1,0-3.1v-3.2
			c0,0,2.9,0.6,4.4,0.9c-0.9,2.2-0.5,4.8-0.5,4.8c-0.3,0.9-0.4,1.9-0.4,2.9c0,5.8,4.7,10.5,10.5,10.5c5.8,0,10.5-4.7,10.5-10.5
			c0-1.8-0.5-3.6-1.3-5.1c-0.1-1.2-0.3-2.2-0.3-2.2s3.5-1,5.1-1.5c1.5-0.5,1-0.8,1-0.8L44.2,14c0,0-14.3,4.3-15.8,4.6
			c-0.2,0.6,1,0.7,1,0.7s-0.2,1.9,0,3.8c-0.5,1.1,0,3.1,0,3.1V27C29.2,29.6,28.2,30.7,28.2,30.7z"/>
	</g>
</g>
</svg>
