<?xml version="1.0" encoding="utf-8"?>
<!-- Generator: Adobe Illustrator 19.2.1, SVG Export Plug-In . SVG Version: 6.00 Build 0)  -->
<svg version="1.1" id="Layer_1" xmlns="http://www.w3.org/2000/svg" xmlns:xlink="http://www.w3.org/1999/xlink" x="0px" y="0px"
	 viewBox="0 0 89 89.2" style="enable-background:new 0 0 89 89.2;" xml:space="preserve">
<style type="text/css">
	.st0{fill:#FFFFFF;}
	.st1{fill:#3D696F;}
	.st2{font-family:'Avenir-Black';}
	.st3{font-size:9.0886px;}
	.st4{font-family:'Avenir-Medium';}
</style>
<g>
	<g>
		<path class="st0" d="M44.5,87.9c-23.8,0-43.2-19.4-43.2-43.2c0-23.8,19.4-43.2,43.2-43.2c23.8,0,43.2,19.4,43.2,43.2
			C87.7,68.6,68.3,87.9,44.5,87.9z"/>
		<path class="st1" d="M44.5,1.8c23.7,0,42.9,19.3,42.9,42.9S68.1,87.7,44.5,87.7S1.5,68.4,1.5,44.7S20.8,1.8,44.5,1.8 M44.5,1.3
			C20.5,1.3,1,20.7,1,44.7c0,24,19.5,43.5,43.5,43.5c24,0,43.5-19.5,43.5-43.5C87.9,20.7,68.5,1.3,44.5,1.3L44.5,1.3z"/>
	</g>
	<text transform="matrix(1 0 0 1 16.9107 37.0022)"><tspan x="0" y="0" class="st1 st2 st3">COLLEGE </tspan><tspan x="0" y="10.9" class="st1 st2 st3">READINESS </tspan><tspan x="0" y="21.8" class="st1 st2 st3">SERVICES.</tspan><tspan x="45.8" y="21.8" class="st1 st4 st3"> </tspan></text>
</g>
</svg>
