<?xml version="1.0" encoding="utf-8"?>
<!-- Generator: Adobe Illustrator 19.2.1, SVG Export Plug-In . SVG Version: 6.00 Build 0)  -->
<svg version="1.1" id="Layer_1" xmlns="http://www.w3.org/2000/svg" xmlns:xlink="http://www.w3.org/1999/xlink" x="0px" y="0px"
	 viewBox="0 0 89 89.2" style="enable-background:new 0 0 89 89.2;" xml:space="preserve">
<style type="text/css">
	.st0{fill:#FFFFFF;}
	.st1{fill:#3D696F;}
	.st2{font-family:'Avenir-Black';}
	.st3{font-size:9.0886px;}
</style>
<g>
	<g>
		<path class="st0" d="M44.5,88C20.7,88,1.3,68.6,1.3,44.8C1.3,21,20.7,1.6,44.5,1.6c23.8,0,43.2,19.4,43.2,43.2
			C87.7,68.6,68.3,88,44.5,88z"/>
		<path class="st1" d="M44.5,1.8c23.7,0,42.9,19.3,42.9,42.9S68.2,87.7,44.5,87.7S1.6,68.5,1.6,44.8S20.8,1.8,44.5,1.8 M44.5,1.3
			C20.5,1.3,1,20.8,1,44.8c0,24,19.5,43.5,43.5,43.5c24,0,43.5-19.5,43.5-43.5C88,20.8,68.5,1.3,44.5,1.3L44.5,1.3z"/>
	</g>
	<text transform="matrix(1 0 0 1 10.2562 42.6379)"><tspan x="0" y="0" class="st1 st2 st3">HIGH SCHOOL</tspan><tspan x="0" y="10.9" class="st1 st2 st3">GRADE LEVELS</tspan></text>
</g>
</svg>
