<?xml version="1.0" encoding="utf-8"?>
<!-- Generator: Adobe Illustrator 19.2.1, SVG Export Plug-In . SVG Version: 6.00 Build 0)  -->
<svg version="1.1" id="Layer_1" xmlns="http://www.w3.org/2000/svg" xmlns:xlink="http://www.w3.org/1999/xlink" x="0px" y="0px"
	 viewBox="0 0 89 89.2" style="enable-background:new 0 0 89 89.2;" xml:space="preserve">
<style type="text/css">
	.st0{fill:#4F6B6D;}
	.st1{fill:#708B8C;}
	.st2{clip-path:url(#SVGID_2_);}
	.st3{fill:#FFFFFF;}
</style>
<g>
	<path class="st0" d="M24.3,44.1h22.1V30.8h-3.4l18.2-8.9v-7.6h-9.3l9.3-5.8V7.8h2.6v14.6l17.2,8.4h-2.4v13.3H88
		C87.8,20.3,68.4,1.1,44.5,1.1C20.5,1.1,1,20.5,1,44.6C1,55,4.7,64.5,10.8,72h13.5V44.1z"/>
	<path class="st1" d="M44.5,88.1c24,0,43.5-19.5,43.5-43.5c0-0.2,0-0.3,0-0.5h-9.4V30.8h2.4l-17.2-8.4V7.8h-2.6v0.8l-9.3,5.8h9.3
		v7.6l-18.2,8.9h3.4v13.3H24.3V72H10.8C18.8,81.8,30.9,88.1,44.5,88.1z"/>
</g>
<g>
	<defs>
		<path id="SVGID_1_" d="M88,44.1C87.8,20.3,68.4,1.1,44.5,1.1C20.5,1.1,1,20.5,1,44.6C1,55,4.7,64.5,10.8,72c8,9.8,20.1,16,33.7,16
			c24,0,43.5-19.5,43.5-43.5C88,44.4,88,44.3,88,44.1z"/>
	</defs>
	<clipPath id="SVGID_2_">
		<use xlink:href="#SVGID_1_"  style="overflow:visible;"/>
	</clipPath>
	<g class="st2">
		<g>
			<path class="st0" d="M12.1,58.9c0,0.1,0,0.2-0.1,0.3c-0.2,1.4-0.8,5.7-1.2,7.4h1c0.2-2.2,0.6-4.6,1-6.2c0.2-0.6,0.6-1.2,1.2-1.6
				C13.4,58.8,12.6,58.9,12.1,58.9z"/>
			<circle class="st3" cx="19.2" cy="53.4" r="4.9"/>
			<path class="st3" d="M20.6,66c-0.9-0.6-1.5-1.2-2-1.9c0.1-0.5,0.3-0.9,0.5-1.4c1-2.2-0.8-3.8-2.4-4.2l-0.2-0.1
				c-0.3-0.1-0.6-0.1-1-0.1l0,0c0,0-1.1-0.3-3.4-0.1c0-0.7-0.1-0.7-0.5-0.7c-0.5-0.1-1.8-1.1-3.9,0.5c-1.8,1.4-2.5,5.4-2.9,7.2
				c-0.4,1.8,0.1,2.1,0.7,2.2C6.2,67.5,9,68,9.8,68.2c1.3,0.2,0.7-0.3,1-0.8h1.1c-0.1,1-0.1,1.8-0.1,2.5c0,1.3,0.4,2.1,1,2.6
				L11,77.2l-4.5,3.6c-0.7,0.6-0.9,1.6-0.3,2.4c0.6,0.7,1.6,0.9,2.4,0.3l5-3.9c0.4-0.3,0.6-0.7,0.6-1.1l1.3-3.5l1.9,3.6c0,0,0,0,0,0
				l0.3,6.3c0,0.9,0.8,1.6,1.8,1.6c0.9,0,1.6-0.8,1.6-1.8l-0.3-6.3c0-0.1,0-0.3-0.1-0.4c0-0.3,0-0.5-0.2-0.8L18,72.6
				c0.3-0.3,0.5-0.7,0.6-1.2c0-0.8-0.1-1.7-0.2-2.6c0.8,0.7,2.1,1.7,3,1.6c0.7-0.1,1.4-0.1,1.9-1.1C24,67.7,22.1,67,20.6,66z
				 M12.9,60.5c-0.4,1.6-0.8,4-1,6.2h-1c0.4-1.7,0.9-6,1.2-7.4c0-0.1,0-0.2,0.1-0.3c0.5-0.1,1.2-0.1,2,0
				C13.5,59.3,13,59.9,12.9,60.5z"/>
		</g>
		<g>
			<path class="st1" d="M30.9,55.8c0,0.1,0,0.2-0.1,0.4c-0.3,1.7-0.9,6.7-1.4,8.7h1.1c0.2-2.5,0.7-5.4,1.2-7.2
				c0.2-0.7,0.7-1.4,1.4-1.8C32.3,55.6,31.5,55.7,30.9,55.8z"/>
			<circle class="st3" cx="38.3" cy="49.3" r="5.7"/>
			<path class="st3" d="M40.6,64.2c-1.1-0.7-1.8-1.5-2.3-2.2c0.2-0.5,0.3-1.1,0.6-1.7c1.2-2.5-0.9-4.4-2.8-4.9l-0.3-0.1
				c-0.4-0.1-0.8-0.1-1.1-0.1l0,0c0,0-1.3-0.4-3.9-0.1c0-0.8-0.2-0.8-0.6-0.9c-0.6-0.1-2.1-1.3-4.5,0.5c-2.1,1.6-2.9,6.3-3.4,8.4
				c-0.4,2.1,0.1,2.4,0.8,2.6c0.7,0.2,4,0.8,4.8,1c1.5,0.3,0.8-0.3,1.1-1h1.3c-0.1,1.1-0.1,2.1-0.1,3c0,1.5,0.5,2.4,1.2,3l-2,5.4
				l-5.3,4.1c-0.8,0.7-1,1.9-0.3,2.7c0.7,0.8,1.9,1,2.7,0.3l5.8-4.6c0.4-0.3,0.7-0.8,0.7-1.3l1.5-4l2.2,4.2c0,0,0,0,0,0.1l0.4,7.4
				c0.1,1.1,1,1.9,2,1.8c1.1-0.1,1.9-1,1.8-2l-0.4-7.4c0-0.2,0-0.3-0.1-0.5c0-0.3-0.1-0.6-0.2-0.9l-2.8-5.3c0.3-0.4,0.6-0.9,0.8-1.4
				c0-1-0.1-2-0.3-3c0.9,0.8,2.5,2,3.5,1.9c0.8-0.1,1.6-0.1,2.2-1.3C44.6,66.2,42.4,65.4,40.6,64.2z M31.6,57.8
				c-0.5,1.9-0.9,4.7-1.2,7.2h-1.1c0.4-2,1.1-7,1.4-8.7c0-0.1,0-0.3,0.1-0.4c0.6-0.1,1.4-0.2,2.3,0C32.3,56.5,31.8,57.2,31.6,57.8z"
				/>
		</g>
		<g>
			<path class="st1" d="M53,50.1c0,0.1,0,0.3-0.1,0.4c-0.3,1.9-1.1,7.6-1.5,9.8h1.3c0.3-2.9,0.7-6.1,1.3-8.2
				c0.2-0.8,0.8-1.5,1.6-2.1C54.7,49.9,53.7,50,53,50.1z"/>
			<circle class="st3" cx="62.3" cy="42.8" r="6.4"/>
			<path class="st3" d="M64.2,59.4c-1.2-0.8-2-1.6-2.6-2.5c0.2-0.6,0.4-1.2,0.7-1.9c1.3-2.9-1.1-5-3.2-5.5l-0.3-0.1
				c-0.4-0.1-0.9-0.1-1.3-0.1l0,0c0,0-1.5-0.4-4.5-0.2c0.1-0.9-0.2-0.9-0.7-1c-0.7-0.1-2.4-1.5-5.1,0.6c-2.4,1.8-3.3,7.2-3.8,9.5
				c-0.5,2.4,0.1,2.8,0.9,2.9c0.8,0.2,4.5,0.9,5.5,1.1c1.7,0.3,0.9-0.4,1.3-1.1h1.4c-0.1,1.3-0.2,2.4-0.2,3.4c0,1.7,0.5,2.8,1.4,3.4
				l-2.3,6.2l-6,4.7c-1,0.7-1.1,2.1-0.4,3.1c0.7,1,2.1,1.1,3.1,0.4l6.6-5.2c0.5-0.4,0.8-0.9,0.8-1.5l1.7-4.6l2.5,4.8c0,0,0,0,0,0.1
				l0.5,8.4c0.1,1.2,1.1,2.2,2.3,2.1c1.2-0.1,2.2-1.1,2.1-2.3l-0.5-8.4c0-0.2-0.1-0.4-0.1-0.5c0-0.4-0.1-0.7-0.2-1.1l-3.1-6
				c0.4-0.4,0.7-1,0.9-1.6c0-1.1-0.1-2.2-0.3-3.4c1,0.9,2.8,2.3,3.9,2.2c0.9-0.1,1.8-0.1,2.5-1.5C68.8,61.6,66.3,60.7,64.2,59.4z
				 M54,52.2c-0.6,2.1-1,5.3-1.3,8.2h-1.3c0.5-2.2,1.2-7.9,1.5-9.8c0-0.2,0.1-0.3,0.1-0.4c0.6-0.1,1.6-0.2,2.6,0
				C54.8,50.6,54.2,51.4,54,52.2z"/>
		</g>
	</g>
</g>
</svg>
