<?xml version="1.0" encoding="utf-8"?>
<!-- Generator: Adobe Illustrator 19.2.1, SVG Export Plug-In . SVG Version: 6.00 Build 0)  -->
<svg version="1.1" id="Layer_1" xmlns="http://www.w3.org/2000/svg" xmlns:xlink="http://www.w3.org/1999/xlink" x="0px" y="0px"
	 viewBox="0 0 200 297.5" style="enable-background:new 0 0 200 297.5;" xml:space="preserve">
<style type="text/css">
	.st0{fill:#3D696F;}
	.st1{opacity:0.88;}
	.st2{fill:#D8EFF2;}
	.st3{opacity:0.88;fill:#D8EFF2;}
	.st4{opacity:0.61;fill:#A7C4C6;}
	.st5{fill:#1E494C;}
	.st6{clip-path:url(#SVGID_2_);}
	.st7{fill:none;}
	.st8{fill:#A7C4C6;}
	.st9{fill:#FFFFFF;}
	.st10{font-family:'Avenir-Black';}
	.st11{font-size:9.0886px;}
	.st12{font-family:'Avenir-Medium';}
</style>
<circle class="st0" cx="45.6" cy="45.5" r="43.5"/>
<g class="st1">
	<path class="st2" d="M61.2,59.2c0.1-6.3,6.2-5.9,6.2-5.9s0-5.9-0.1-10.2c-7.7,0.3-18.7-2.2-22.5,4.1c-1.1-6.4-16.3-3.9-21.6-4.2
		v10.1c0,0,5.8-0.1,6.2,6.7c0.3,6.3-6.2,6.6-6.2,6.6s0,5,0,10.2c0.3,0.3,18.6-2.4,22.1,3.9c2.1-5.9,22.1-4.2,22.1-4.2s0-4.9,0-9.9
		C64.7,65.5,61.1,65.2,61.2,59.2z"/>
	<path class="st2" d="M27.4,56.9c-1.6-2.9-4.3-2.4-6.3-2.1c-1.9,0.3-1.9,2.6-1.9,4.9c0,2.2-0.2,4.5,1.3,5c2.7,0.8,5.3-0.6,6-1.2
		C27.2,62.8,28.8,59.4,27.4,56.9z"/>
	<path class="st2" d="M71.2,59.6c0-2.2,0-4.6-1.9-4.9c-1.9-0.3-4.6-0.8-6.3,2.1c-1.4,2.6,0.2,5.9,0.9,6.5c0.7,0.6,3.2,2,6,1.2
		C71.4,64.1,71.2,61.8,71.2,59.6z"/>
	<path class="st2" d="M25.3,28.3c0,0,1,2.1,2.7,2c1.8-3.3-0.1-6.6-0.1-6.6s0,0,0.1-1.4c0.5-1.4,0-3.9,0-3.9v-4c0,0,3.7,0.8,5.5,1.2
		c-1.1,2.8-0.6,6-0.6,6c-0.3,1.2-0.5,2.4-0.5,3.6c0,7.3,5.9,13.2,13.2,13.2c7.3,0,13.2-5.9,13.2-13.2c0-2.3-0.6-4.5-1.6-6.4
		c-0.1-1.5-0.4-2.8-0.4-2.8s4.4-1.2,6.4-1.8c1.9-0.6,1.2-1,1.2-1L45.3,7.3c0,0-17.9,5.4-19.8,5.8c-0.2,0.8,1.3,0.9,1.3,0.9
		s-0.2,2.3,0,4.8c-0.6,1.4,0,3.8,0,3.8v1C26.6,27,25.3,28.3,25.3,28.3z"/>
</g>
<path class="st0" d="M77.6,164c-0.1-1.4-0.5-3.3-1.5-5.1c1.1-0.7,2.4-1.2,4.2-1.2c3.9-0.1,5.8,2.3,6.7,4.6c1.4-4.3,2.2-8.9,2.2-13.8
	c0-24-19.5-43.5-43.5-43.5c-24,0-43.5,19.5-43.5,43.5c0,4.9,0.8,9.6,2.3,14c0.7-2.4,2.7-5.2,6.9-5.2c1.8,0,3.2,0.5,4.2,1.2
	c-1,1.8-1.5,3.8-1.5,5.1c-0.1,1.5-0.1,8.8-0.1,14.6c0.3,0.3,0.5,0.6,0.8,0.8c0-5.2-0.1-13,0-15.1c0.1-1.4,0.5-3.3,1.5-5.1
	c1.4-2.5,4.1-4.7,8.4-4.7c2.4,0,4.3,0.7,5.7,1.6c-1.4,2.6-2,5.4-2.1,7.3c-0.1,2.9-0.1,17.3-0.1,25.2c0.3,0.1,0.6,0.3,0.9,0.4
	c0-0.5,0-1.1,0-1.6c-0.1-7.5-0.1-19.6,0.1-23.3c0.1-2.2,0.8-5.3,2.4-8.2c2.4-4.4,6.8-8.3,14.3-8.2c12.6,0.2,16.4,9.7,16.4,16.9
	c0,5.1,0,17.4,0,24.3c0.3-0.1,0.6-0.2,0.9-0.4c0-8,0.1-22.2-0.1-25.1c-0.1-2-0.7-4.7-2.1-7.3c1.4-0.9,3.3-1.6,5.7-1.6
	c4.4-0.1,7,2.1,8.4,4.7c1,1.8,1.5,3.8,1.5,5.1c0.1,2.1,0.1,9.6,0,14.8c0.3-0.3,0.5-0.6,0.8-0.9C77.7,172.3,77.7,165.5,77.6,164z
	 M11.4,156.2c-2.5,0-4.5-2-4.5-4.5s2-4.5,4.5-4.5c2.5,0,4.5,2,4.5,4.5S13.9,156.2,11.4,156.2z M24.8,152.7c-3.4,0-6.2-2.8-6.2-6.2
	c0-3.4,2.8-6.2,6.2-6.2c3.4,0,6.2,2.8,6.2,6.2C31,149.9,28.2,152.7,24.8,152.7z M45.9,145.5c-5.8,0-10.4-4.7-10.4-10.4
	c0-5.8,4.7-10.4,10.4-10.4s10.4,4.7,10.4,10.4C56.3,140.8,51.6,145.5,45.9,145.5z M67,152.7c-3.4,0-6.2-2.8-6.2-6.2
	c0-3.4,2.8-6.2,6.2-6.2c3.4,0,6.2,2.8,6.2,6.2C73.2,149.9,70.4,152.7,67,152.7z M80.4,147.5c2.5,0,4.5,2,4.5,4.5s-2,4.5-4.5,4.5
	s-4.5-2-4.5-4.5S77.9,147.5,80.4,147.5z"/>
<circle class="st0" cx="45.9" cy="135" r="10.4"/>
<circle class="st3" cx="45.9" cy="135" r="10.4"/>
<path class="st0" d="M62.5,164.3c0-7.2-3.8-16.6-16.4-16.9c-7.5-0.1-12,3.8-14.3,8.2c-1.6,2.9-2.3,6-2.4,8.2
	c-0.2,3.7-0.1,15.7-0.1,23.3c0,0.6,0,1.1,0,1.6c5.1,2.1,10.6,3.2,16.4,3.2c5.9,0,11.6-1.2,16.7-3.3
	C62.4,181.8,62.4,169.4,62.5,164.3z"/>
<path class="st3" d="M62.5,164.3c0-7.2-3.8-16.6-16.4-16.9c-7.5-0.1-12,3.8-14.3,8.2c-1.6,2.9-2.3,6-2.4,8.2
	c-0.2,3.7-0.1,15.7-0.1,23.3c0,0.6,0,1.1,0,1.6c5.1,2.1,10.6,3.2,16.4,3.2c5.9,0,11.6-1.2,16.7-3.3
	C62.4,181.8,62.4,169.4,62.5,164.3z"/>
<circle class="st0" cx="24.8" cy="146.5" r="6.2"/>
<circle class="st4" cx="24.8" cy="146.5" r="6.2"/>
<path class="st0" d="M28.5,163.1c0.1-2,0.7-4.7,2.1-7.3c-1.4-0.9-3.3-1.6-5.7-1.6c-4.4-0.1-7,2.1-8.4,4.7c-1,1.8-1.5,3.8-1.5,5.1
	c-0.1,2.1-0.1,9.9,0,15.1c3.9,3.9,8.5,7,13.5,9.3C28.4,180.4,28.4,166,28.5,163.1z"/>
<path class="st4" d="M28.5,163.1c0.1-2,0.7-4.7,2.1-7.3c-1.4-0.9-3.3-1.6-5.7-1.6c-4.4-0.1-7,2.1-8.4,4.7c-1,1.8-1.5,3.8-1.5,5.1
	c-0.1,2.1-0.1,9.9,0,15.1c3.9,3.9,8.5,7,13.5,9.3C28.4,180.4,28.4,166,28.5,163.1z"/>
<path class="st0" d="M14.2,163.7c0.1-1.4,0.5-3.3,1.5-5.1c-1.1-0.7-2.4-1.2-4.2-1.2c-4.2-0.1-6.2,2.8-6.9,5.2c2,6,5.3,11.3,9.5,15.8
	C14.1,172.4,14.1,165.2,14.2,163.7z"/>
<path class="st4" d="M14.2,163.7c0.1-1.4,0.5-3.3,1.5-5.1c-1.1-0.7-2.4-1.2-4.2-1.2c-4.2-0.1-6.2,2.8-6.9,5.2c2,6,5.3,11.3,9.5,15.8
	C14.1,172.4,14.1,165.2,14.2,163.7z"/>
<circle class="st0" cx="11.4" cy="151.7" r="4.5"/>
<circle class="st4" cx="11.4" cy="151.7" r="4.5"/>
<circle class="st0" cx="67" cy="146.5" r="6.2"/>
<circle class="st4" cx="67" cy="146.5" r="6.2"/>
<path class="st0" d="M76.8,164c-0.1-1.4-0.5-3.3-1.5-5.1c-1.4-2.5-4.1-4.7-8.4-4.7c-2.4,0-4.3,0.7-5.7,1.6c1.4,2.6,2,5.4,2.1,7.3
	c0.1,2.9,0.1,17.2,0.1,25.1c5.1-2.3,9.7-5.5,13.6-9.4C76.9,173.6,76.9,166.1,76.8,164z"/>
<path class="st4" d="M76.8,164c-0.1-1.4-0.5-3.3-1.5-5.1c-1.4-2.5-4.1-4.7-8.4-4.7c-2.4,0-4.3,0.7-5.7,1.6c1.4,2.6,2,5.4,2.1,7.3
	c0.1,2.9,0.1,17.2,0.1,25.1c5.1-2.3,9.7-5.5,13.6-9.4C76.9,173.6,76.9,166.1,76.8,164z"/>
<path class="st0" d="M80.3,157.6c-1.8,0-3.2,0.5-4.2,1.2c1,1.8,1.5,3.8,1.5,5.1c0.1,1.5,0.1,8.2,0.1,14c4.1-4.5,7.4-9.8,9.3-15.7
	C86.1,160,84.2,157.6,80.3,157.6z"/>
<path class="st4" d="M80.3,157.6c-1.8,0-3.2,0.5-4.2,1.2c1,1.8,1.5,3.8,1.5,5.1c0.1,1.5,0.1,8.2,0.1,14c4.1-4.5,7.4-9.8,9.3-15.7
	C86.1,160,84.2,157.6,80.3,157.6z"/>
<circle class="st0" cx="80.4" cy="152" r="4.5"/>
<circle class="st4" cx="80.4" cy="152" r="4.5"/>
<g>
	<path class="st0" d="M25.3,251.1h22.1v-13.3h-3.4l18.2-8.9v-7.6h-9.3l9.3-5.8v-0.8h2.6v14.6l17.2,8.4h-2.3v13.3h9.4
		c-0.2-23.8-19.6-43-43.5-43c-24,0-43.5,19.5-43.5,43.5c0,10.4,3.7,20,9.8,27.5h13.5V251.1z"/>
	<path class="st5" d="M45.5,295c24,0,43.5-19.5,43.5-43.5c0-0.2,0-0.3,0-0.5h-9.4v-13.3h2.3l-17.2-8.4v-14.6h-2.6v0.8l-9.3,5.8h9.3
		v7.6l-18.2,8.9h3.4v13.3H25.3V279H11.8C19.7,288.8,31.9,295,45.5,295z"/>
	<g>
		<defs>
			<path id="SVGID_1_" d="M88.9,251.1c-0.2-23.8-19.6-43-43.5-43c-24,0-43.5,19.5-43.5,43.5c0,10.4,3.7,20,9.8,27.5
				c8,9.8,20.1,16,33.7,16c24,0,43.5-19.5,43.5-43.5C88.9,251.4,88.9,251.2,88.9,251.1z"/>
		</defs>
		<clipPath id="SVGID_2_">
			<use xlink:href="#SVGID_1_"  style="overflow:visible;"/>
		</clipPath>
		<g class="st6">
			<path class="st7" d="M13.1,265.9c0,0.1,0,0.2-0.1,0.3c-0.2,1.4-0.8,5.7-1.2,7.4h1c0.2-2.2,0.6-4.6,1-6.2c0.2-0.6,0.6-1.2,1.2-1.6
				C14.4,265.8,13.6,265.8,13.1,265.9z"/>
			<circle class="st8" cx="20.2" cy="260.4" r="4.9"/>
			<path class="st8" d="M15.5,267.8c0-0.9,0.7-1.7,1.6-1.8c0.9,0,1.7,0.7,1.8,1.6c0,0-0.4,1.7,0.8,3.4c0.1-0.5,0.3-0.9,0.5-1.4
				c1-2.2-0.8-3.8-2.4-4.2l-0.2-0.1c-0.3-0.1-0.6-0.1-1-0.1l0,0c0,0-1.1-0.3-3.4-0.1c0-0.7-0.1-0.7-0.5-0.7
				c-0.5-0.1-1.8-1.1-3.9,0.5c-1.8,1.4-2.5,5.4-2.9,7.2c-0.4,1.8,0.1,2.1,0.7,2.2c0.6,0.1,3.4,0.7,4.2,0.8c1.3,0.2,0.7-0.3,1-0.8
				h1.1c-0.1,1-0.1,1.8-0.1,2.5c0,1.3,0.4,2.1,1,2.6l-1.7,4.7l-4.5,3.5c-0.7,0.6-0.9,1.6-0.3,2.3c0.6,0.7,1.6,0.9,2.3,0.3l5-3.9
				c0.4-0.3,0.6-0.7,0.6-1.1l1.3-3.4l1.9,3.6c0,0,0,0,0,0l0.3,6.3c0,0.9,0.8,1.6,1.8,1.6c0.9,0,1.6-0.8,1.6-1.8l-0.3-6.3
				c0-0.1,0-0.3-0.1-0.4c0-0.3,0-0.5-0.2-0.8l-2.4-4.5c0.3-0.3,0.5-0.7,0.6-1.2c0-0.8-0.1-1.7-0.2-2.6l0,0
				C15,271.7,15.5,267.8,15.5,267.8z M13.9,267.5c-0.4,1.6-0.8,4-1,6.2h-1c0.4-1.7,0.9-6,1.2-7.4c0-0.1,0-0.2,0.1-0.3
				c0.5-0.1,1.2-0.1,2,0C14.5,266.3,14,266.9,13.9,267.5z"/>
			<path class="st8" d="M21.6,272.9c-0.9-0.6-1.5-1.2-2-1.9c-1.2-1.8-0.8-3.4-0.8-3.4c0-0.9-0.8-1.6-1.8-1.6c-0.9,0-1.6,0.8-1.6,1.8
				c0,0-0.5,3.9,4,8c0.8,0.7,2.1,1.7,3,1.6c0.7-0.1,1.4-0.1,1.9-1.1C25,274.6,23.1,273.9,21.6,272.9z"/>
		</g>
		<g class="st6">
			<path class="st7" d="M31.9,262.7c0,0.1,0,0.2-0.1,0.4c-0.3,1.7-0.9,6.7-1.3,8.7h1.1c0.2-2.5,0.7-5.3,1.1-7.2
				c0.2-0.7,0.7-1.4,1.4-1.8C33.3,262.6,32.5,262.6,31.9,262.7z"/>
			<circle class="st8" cx="39.4" cy="256" r="5.7"/>
			<path class="st8" d="M34.6,264.9c-0.1-1.1,0.8-2,1.8-2c1.1-0.1,2,0.8,2,1.8c0,0-0.4,1.9,0.9,4c0.2-0.5,0.3-1.1,0.6-1.7
				c1.2-2.5-0.9-4.4-2.8-4.9l-0.3-0.1c-0.4-0.1-0.8-0.1-1.1-0.1l0,0c0,0-1.3-0.3-3.9-0.1c0-0.8-0.2-0.8-0.6-0.8
				c-0.6-0.1-2.1-1.3-4.5,0.5c-2.1,1.6-2.9,6.3-3.4,8.4s0.1,2.4,0.8,2.6c0.7,0.2,4,0.8,4.8,1c1.5,0.3,0.8-0.3,1.1-1h1.3
				c-0.1,1.1-0.1,2.1-0.1,3c0,1.5,0.5,2.4,1.2,3l-2,5.4l-5.3,4.1c-0.8,0.7-1,1.9-0.3,2.7c0.7,0.8,1.9,1,2.7,0.3l5.8-4.6
				c0.4-0.3,0.7-0.8,0.7-1.3l1.5-4l2.2,4.2c0,0,0,0,0,0.1l0.4,7.4c0.1,1.1,1,1.9,2,1.8s1.9-1,1.8-2l-0.4-7.4c0-0.2,0-0.3-0.1-0.5
				c0-0.3-0.1-0.6-0.2-0.9l-2.8-5.3c0.3-0.4,0.6-0.9,0.8-1.4c0-1-0.1-2-0.3-3l0,0C34.1,269.5,34.6,264.9,34.6,264.9z M32.8,264.6
				c-0.5,1.9-0.9,4.7-1.1,7.2h-1.1c0.4-2,1.1-7,1.3-8.7c0-0.1,0-0.3,0.1-0.4c0.6-0.1,1.4-0.2,2.3,0
				C33.5,263.2,32.9,263.9,32.8,264.6z"/>
			<path class="st8" d="M41.7,270.9c-1.1-0.7-1.8-1.5-2.3-2.2c-1.4-2.1-0.9-4-0.9-4c-0.1-1.1-1-1.9-2-1.8c-1.1,0.1-1.9,1-1.8,2
				c0,0-0.6,4.6,4.6,9.3c0.9,0.8,2.5,2,3.5,1.9c0.8-0.1,1.6-0.1,2.2-1.3C45.7,272.9,43.5,272.1,41.7,270.9z"/>
		</g>
		<g class="st6">
			<path class="st7" d="M54,257.1c0,0.1,0,0.3-0.1,0.4c-0.3,1.9-1.1,7.6-1.5,9.8h1.3c0.3-2.9,0.7-6.1,1.3-8.2
				c0.2-0.8,0.8-1.5,1.6-2.1C55.6,256.9,54.7,257,54,257.1z"/>
			<circle class="st8" cx="63.3" cy="249.8" r="6.4"/>
			<path class="st8" d="M57.1,259.5c-0.1-1.2,0.9-2.3,2.1-2.3c1.2-0.1,2.3,0.9,2.3,2.1c0,0-0.5,2.2,1.1,4.6c0.2-0.6,0.4-1.2,0.7-1.9
				c1.3-2.9-1.1-5-3.2-5.5l-0.3-0.1c-0.4-0.1-0.9-0.1-1.3-0.1l0,0c0,0-1.5-0.4-4.4-0.2c0.1-0.9-0.2-0.9-0.7-1
				c-0.7-0.1-2.4-1.5-5.1,0.6c-2.4,1.8-3.3,7.1-3.8,9.5c-0.5,2.4,0.1,2.7,0.9,2.9c0.8,0.2,4.5,0.9,5.5,1.1c1.7,0.3,0.9-0.4,1.3-1.1
				h1.4c-0.1,1.3-0.2,2.4-0.2,3.4c0,1.7,0.5,2.7,1.4,3.4l-2.3,6.2l-6,4.7c-1,0.7-1.1,2.1-0.4,3.1c0.7,1,2.1,1.1,3.1,0.4l6.6-5.2
				c0.5-0.4,0.8-0.9,0.8-1.5l1.7-4.6l2.5,4.8c0,0,0,0,0,0.1l0.5,8.4c0.1,1.2,1.1,2.2,2.3,2.1c1.2-0.1,2.2-1.1,2.1-2.3l-0.5-8.4
				c0-0.2-0.1-0.4-0.1-0.5c0-0.4-0.1-0.7-0.2-1.1l-3.1-6c0.4-0.4,0.7-1,0.9-1.6c0-1.1-0.1-2.2-0.3-3.4l0,0
				C56.5,264.7,57.1,259.5,57.1,259.5z M55,259.1c-0.6,2.1-1,5.3-1.3,8.2h-1.3c0.5-2.2,1.2-7.9,1.5-9.8c0-0.2,0.1-0.3,0.1-0.4
				c0.6-0.1,1.6-0.2,2.6,0C55.8,257.6,55.2,258.4,55,259.1z"/>
			<path class="st8" d="M65.2,266.3c-1.2-0.8-2-1.6-2.6-2.5c-1.6-2.4-1.1-4.6-1.1-4.6c-0.1-1.2-1.1-2.2-2.3-2.1
				c-1.2,0.1-2.2,1.1-2.1,2.3c0,0-0.6,5.2,5.2,10.6c1,0.9,2.8,2.3,3.9,2.2c0.9-0.1,1.8-0.1,2.5-1.5
				C69.7,268.6,67.2,267.7,65.2,266.3z"/>
		</g>
	</g>
</g>
<g>
	<g>
		<path class="st9" d="M152.9,88.7c-23.8,0-43.2-19.4-43.2-43.2s19.4-43.2,43.2-43.2s43.2,19.4,43.2,43.2S176.7,88.7,152.9,88.7z"/>
		<path class="st0" d="M152.9,2.5c23.7,0,42.9,19.3,42.9,42.9s-19.3,42.9-42.9,42.9S110,69.1,110,45.5S129.3,2.5,152.9,2.5 M152.9,2
			c-24,0-43.5,19.5-43.5,43.5s19.5,43.5,43.5,43.5s43.5-19.5,43.5-43.5S176.9,2,152.9,2L152.9,2z"/>
	</g>
	<text transform="matrix(1 0 0 1 125.3647 37.7471)"><tspan x="0" y="0" class="st0 st10 st11">COLLEGE </tspan><tspan x="0" y="10.9" class="st0 st10 st11">READINESS </tspan><tspan x="0" y="21.8" class="st0 st10 st11">SERVICES.</tspan><tspan x="45.8" y="21.8" class="st0 st12 st11"> </tspan></text>
</g>
<g>
	<g>
		<path class="st9" d="M152.9,191.7c-23.8,0-43.2-19.4-43.2-43.2c0-23.8,19.4-43.2,43.2-43.2s43.2,19.4,43.2,43.2
			C196.1,172.3,176.7,191.7,152.9,191.7z"/>
		<path class="st0" d="M152.9,105.5c23.7,0,42.9,19.3,42.9,42.9s-19.3,42.9-42.9,42.9S110,172.1,110,148.5S129.3,105.5,152.9,105.5
			 M152.9,105c-24,0-43.5,19.5-43.5,43.5s19.5,43.5,43.5,43.5s43.5-19.5,43.5-43.5S176.9,105,152.9,105L152.9,105z"/>
	</g>
	<text transform="matrix(1 0 0 1 119.7563 140.1611)"><tspan x="0" y="0" class="st0 st10 st11">TARGETED </tspan><tspan x="0" y="10.9" class="st0 st10 st11">POPULATIONS</tspan><tspan x="0" y="21.8" class="st0 st10 st11">(demographics)</tspan></text>
</g>
<g>
	<g>
		<path class="st9" d="M152.9,294.7c-23.8,0-43.2-19.4-43.2-43.2s19.4-43.2,43.2-43.2s43.2,19.4,43.2,43.2S176.7,294.7,152.9,294.7z
			"/>
		<path class="st0" d="M152.9,208.6c23.7,0,42.9,19.3,42.9,42.9s-19.3,42.9-42.9,42.9S110,275.2,110,251.5S129.3,208.6,152.9,208.6
			 M152.9,208.1c-24,0-43.5,19.5-43.5,43.5s19.5,43.5,43.5,43.5s43.5-19.5,43.5-43.5S176.9,208.1,152.9,208.1L152.9,208.1z"/>
	</g>
	<text transform="matrix(1 0 0 1 118.6821 249.3887)"><tspan x="0" y="0" class="st0 st10 st11">HIGH SCHOOL</tspan><tspan x="0" y="10.9" class="st0 st10 st11">GRADE LEVELS</tspan></text>
</g>
</svg>
