<?xml version="1.0" encoding="utf-8"?>
<!-- Generator: Adobe Illustrator 19.2.1, SVG Export Plug-In . SVG Version: 6.00 Build 0)  -->
<svg version="1.1" id="Layer_1" xmlns="http://www.w3.org/2000/svg" xmlns:xlink="http://www.w3.org/1999/xlink" x="0px" y="0px"
	 viewBox="0 0 89 89.2" style="enable-background:new 0 0 89 89.2;" xml:space="preserve">
<style type="text/css">
	.st0{fill:#3D696F;stroke:#3D696F;stroke-miterlimit:10;}
	.st1{opacity:0.9;}
	.st2{fill:#FFFFFF;}
	.st3{fill:#708B8C;}
</style>
<g>
	<g>
		<circle class="st0" cx="44.5" cy="45" r="43"/>
	</g>
	<g class="st1">
		<path class="st2" d="M28.3,30.7c1.9-1,3.9-1,5.8,0L54.3,42c0.8,0.4,1.2,1,1.2,1.6s-0.4,1.1-1.2,1.6L34.1,56.6c-1.9,1-3.9,1-5.8,0
			l-13-7.4l14.2-3.3c0.3,0.1,0.9,0.2,1.7,0.2c1.3,0,2.4-0.3,3.2-0.8c0.9-0.5,1.3-1.2,1.3-1.9c0-0.8-0.4-1.4-1.3-1.9
			c-0.9-0.5-2-0.8-3.2-0.8c-2.2,0-3.7,0.6-4.4,1.7l-14.9,4.9l-3.8-2.1c-0.8-0.5-1.2-1-1.2-1.6s0.4-1.1,1.2-1.6L28.3,30.7z
			 M45.1,59.2c-1,1.2-2.7,2.3-5,3.3c-1.3,0.5-2.6,1.2-3.9,1.9c-1.3,0.8-2.3,1.4-3.1,1.8s-1.4,0.6-1.9,0.6s-1.1-0.2-1.9-0.5
			c-0.7-0.4-1.8-0.9-3.1-1.6c-1.3-0.7-2.6-1.4-3.9-2c-1-0.4-1.7-0.7-2.2-1.1c-0.5-0.3-0.9-0.7-1.2-1.1c-0.3-0.4-0.5-0.8-0.5-1.1
			l-0.7-4L31.1,62l16.3-8C46.9,56.3,46.1,58,45.1,59.2z M13.6,64.4c-0.5,0.3-1.1,0.4-1.7,0.2c-0.6-0.1-0.9-0.6-1.1-1.5
			c-0.6-3.7-0.7-6.9-0.3-9.6c0.4-2.6,0.6-4.2,0.8-4.9c0.2-0.6,0.4-1.1,0.6-1.4l3.4,1.8l-0.7,1.1c-0.5,0.8-0.8,2.2-0.9,4.4
			c-0.2,2.1,0,5.1,0.6,8.8C14.4,63.8,14.1,64.1,13.6,64.4z"/>
	</g>
	<g class="st1">
		<path class="st3" d="M82.1,34.2c0.8,0.4,1.2,1,1.2,1.6s-0.4,1.1-1.2,1.6l-3.8,2.1l-14.9-4.9c-0.7-1.2-2.2-1.7-4.4-1.7
			c-1.3,0-2.4,0.3-3.2,0.8c-0.9,0.5-1.3,1.2-1.3,1.9c0,0.8,0.4,1.4,1.3,1.9c0.9,0.5,2,0.8,3.2,0.8c0.8,0,1.4-0.1,1.7-0.2l14.2,3.3
			l-13,7.4c-1.9,1-3.9,1-5.8,0L35.9,37.4c-0.8-0.5-1.2-1-1.2-1.6s0.4-1.1,1.2-1.6l20.2-11.3c1.9-1,3.9-1,5.8,0L82.1,34.2z
			 M42.8,46.1L59,54.2l13.4-6.6l-0.7,4c-0.1,0.3-0.2,0.7-0.5,1.1c-0.3,0.4-0.7,0.8-1.2,1.1s-1.2,0.7-2.2,1.1c-1.3,0.6-2.6,1.2-3.9,2
			c-1.3,0.7-2.3,1.3-3.1,1.6c-0.7,0.4-1.4,0.5-1.9,0.5s-1.2-0.2-1.9-0.6c-0.8-0.4-1.8-1-3.1-1.8s-2.6-1.4-3.9-1.9
			c-2.3-1-4-2.2-5-3.3C44.1,50.2,43.4,48.4,42.8,46.1z M75.9,55.6c0.6-3.7,0.8-6.7,0.6-8.8c-0.2-2.1-0.5-3.6-0.9-4.4l-0.7-1.1
			l3.4-1.8c0.2,0.3,0.4,0.7,0.6,1.4c0.2,0.6,0.5,2.3,0.8,4.9c0.4,2.6,0.2,5.8-0.3,9.6c-0.1,0.8-0.5,1.3-1.1,1.5
			c-0.6,0.1-1.1,0-1.7-0.2C76.1,56.2,75.8,55.9,75.9,55.6z"/>
	</g>
</g>
</svg>
