<?xml version="1.0" encoding="utf-8"?>
<!-- Generator: Adobe Illustrator 19.2.1, SVG Export Plug-In . SVG Version: 6.00 Build 0)  -->
<svg version="1.1" id="Layer_1" xmlns="http://www.w3.org/2000/svg" xmlns:xlink="http://www.w3.org/1999/xlink" x="0px" y="0px"
	 viewBox="0 0 89 89.2" style="enable-background:new 0 0 89 89.2;" xml:space="preserve">
<style type="text/css">
	.st0{fill:#4F6B6D;}
	.st1{fill:none;stroke:#4F6B6D;stroke-width:0.5291;stroke-miterlimit:10;}
</style>
<g>
	<path class="st0" d="M75.9,59.8c-0.1-1.4-0.5-3.3-1.5-5.1c1-0.7,2.4-1.2,4.2-1.2c3.8-0.1,5.8,2.3,6.6,4.5c1.4-4.3,2.2-8.9,2.2-13.6
		c0-23.8-19.3-43-43-43c-23.8,0-43,19.3-43,43c0,4.8,0.8,9.5,2.3,13.8c0.7-2.4,2.7-5.2,6.8-5.1c1.8,0,3.1,0.5,4.2,1.2
		c-1,1.8-1.5,3.7-1.5,5.1c-0.1,1.5-0.1,8.7-0.1,14.4c0.3,0.3,0.5,0.6,0.8,0.8c0-5.1-0.1-12.8,0-14.9c0.1-1.4,0.5-3.3,1.5-5.1
		c1.4-2.5,4-4.7,8.4-4.6c2.4,0,4.2,0.6,5.6,1.6c-1.4,2.6-2,5.3-2.1,7.3c-0.1,2.9-0.1,17.1-0.1,25c0.3,0.1,0.6,0.3,0.9,0.4
		c0-0.5,0-1.1,0-1.6c-0.1-7.5-0.1-19.4,0.1-23c0.1-2.2,0.8-5.2,2.3-8.1c2.3-4.3,6.7-8.2,14.2-8.1C57.2,43.7,61,53,60.9,60.1
		c0,5,0,17.2,0,24c0.3-0.1,0.6-0.2,0.9-0.4c0-7.9,0.1-22-0.1-24.8c-0.1-1.9-0.7-4.7-2.1-7.3c1.4-0.9,3.3-1.5,5.6-1.6
		c4.3-0.1,6.9,2.1,8.4,4.6c1,1.8,1.5,3.7,1.5,5.1c0.1,2.1,0.1,9.5,0,14.7c0.3-0.3,0.5-0.6,0.8-0.8C76,67.9,76,61.3,75.9,59.8z
		 M10.4,52.1c-2.5,0-4.5-2-4.5-4.5s2-4.5,4.5-4.5c2.5,0,4.5,2,4.5,4.5S12.9,52.1,10.4,52.1z M23.7,48.6c-3.4,0-6.2-2.8-6.2-6.2
		c0-3.4,2.8-6.2,6.2-6.2c3.4,0,6.2,2.8,6.2,6.2C29.9,45.8,27.1,48.6,23.7,48.6z M44.5,41.4c-5.7,0-10.3-4.6-10.3-10.3
		c0-5.7,4.6-10.3,10.3-10.3s10.3,4.6,10.3,10.3C54.8,36.8,50.2,41.4,44.5,41.4z M65.4,48.6c-3.4,0-6.2-2.8-6.2-6.2
		c0-3.4,2.8-6.2,6.2-6.2c3.4,0,6.2,2.8,6.2,6.2C71.6,45.8,68.8,48.6,65.4,48.6z M78.7,43.4c2.5,0,4.5,2,4.5,4.5s-2,4.5-4.5,4.5
		c-2.5,0-4.5-2-4.5-4.5S76.2,43.4,78.7,43.4z"/>
	<circle class="st1" cx="44.5" cy="45" r="43"/>
</g>
</svg>
