<?xml version="1.0" encoding="utf-8"?>
<!-- Generator: Adobe Illustrator 19.2.1, SVG Export Plug-In . SVG Version: 6.00 Build 0)  -->
<svg version="1.1" id="Layer_1" xmlns="http://www.w3.org/2000/svg" xmlns:xlink="http://www.w3.org/1999/xlink" x="0px" y="0px"
	 viewBox="0 0 89 89.2" style="enable-background:new 0 0 89 89.2;" xml:space="preserve">
<style type="text/css">
	.st0{fill:#3D696F;}
	.st1{opacity:0.88;fill:#D8EFF2;}
	.st2{opacity:0.61;fill:#A7C4C6;}
</style>
<path class="st0" d="M76.3,60.3c-0.1-1.4-0.5-3.3-1.5-5.1c1.1-0.7,2.4-1.2,4.2-1.2c3.9-0.1,5.8,2.3,6.7,4.6
	c1.4-4.3,2.2-8.9,2.2-13.8c0-24-19.5-43.5-43.5-43.5C20.5,1.3,1,20.7,1,44.7c0,4.9,0.8,9.6,2.3,14c0.7-2.4,2.7-5.2,6.9-5.2
	c1.8,0,3.2,0.5,4.2,1.2c-1,1.8-1.5,3.8-1.5,5.1c-0.1,1.5-0.1,8.8-0.1,14.6c0.3,0.3,0.5,0.6,0.8,0.8c0-5.2-0.1-13,0-15.1
	c0.1-1.4,0.5-3.3,1.5-5.1c1.4-2.5,4.1-4.7,8.4-4.7c2.4,0,4.3,0.7,5.7,1.6c-1.4,2.6-2,5.4-2.1,7.3c-0.1,2.9-0.1,17.3-0.1,25.2
	c0.3,0.1,0.6,0.3,0.9,0.4c0-0.5,0-1.1,0-1.6C28,75.8,28,63.8,28.1,60.1c0.1-2.2,0.8-5.3,2.4-8.2c2.4-4.4,6.8-8.3,14.3-8.2
	c12.6,0.2,16.4,9.7,16.4,16.9c0,5.1,0,17.4,0,24.3c0.3-0.1,0.6-0.2,0.9-0.4c0-8,0.1-22.2-0.1-25.1c-0.1-2-0.7-4.7-2.1-7.3
	c1.4-0.9,3.3-1.6,5.7-1.6c4.4-0.1,7,2.1,8.4,4.7c1,1.8,1.5,3.8,1.5,5.1c0.1,2.1,0.1,9.6,0,14.8c0.3-0.3,0.5-0.6,0.8-0.9
	C76.4,68.5,76.4,61.8,76.3,60.3z M10.1,52.5c-2.5,0-4.5-2-4.5-4.5s2-4.5,4.5-4.5c2.5,0,4.5,2,4.5,4.5S12.6,52.5,10.1,52.5z M23.5,49
	c-3.4,0-6.2-2.8-6.2-6.2c0-3.4,2.8-6.2,6.2-6.2c3.4,0,6.2,2.8,6.2,6.2C29.8,46.2,27,49,23.5,49z M44.6,41.7
	c-5.8,0-10.4-4.7-10.4-10.4c0-5.8,4.7-10.4,10.4-10.4S55,25.5,55,31.3C55,37.1,50.4,41.7,44.6,41.7z M65.7,49
	c-3.4,0-6.2-2.8-6.2-6.2c0-3.4,2.8-6.2,6.2-6.2c3.4,0,6.2,2.8,6.2,6.2C71.9,46.2,69.1,49,65.7,49z M79.1,43.7c2.5,0,4.5,2,4.5,4.5
	s-2,4.5-4.5,4.5s-4.5-2-4.5-4.5S76.6,43.7,79.1,43.7z"/>
<circle class="st0" cx="44.6" cy="31.3" r="10.4"/>
<circle class="st1" cx="44.6" cy="31.3" r="10.4"/>
<path class="st0" d="M61.2,60.6c0-7.2-3.8-16.6-16.4-16.9c-7.5-0.1-12,3.8-14.3,8.2c-1.6,2.9-2.3,6-2.4,8.2
	C28,63.8,28,75.8,28.1,83.4c0,0.6,0,1.1,0,1.6c5.1,2.1,10.6,3.2,16.4,3.2c5.9,0,11.6-1.2,16.7-3.3C61.2,78,61.2,65.7,61.2,60.6z"/>
<path class="st1" d="M61.2,60.6c0-7.2-3.8-16.6-16.4-16.9c-7.5-0.1-12,3.8-14.3,8.2c-1.6,2.9-2.3,6-2.4,8.2
	C28,63.8,28,75.8,28.1,83.4c0,0.6,0,1.1,0,1.6c5.1,2.1,10.6,3.2,16.4,3.2c5.9,0,11.6-1.2,16.7-3.3C61.2,78,61.2,65.7,61.2,60.6z"/>
<circle class="st0" cx="23.5" cy="42.7" r="6.2"/>
<circle class="st2" cx="23.5" cy="42.7" r="6.2"/>
<path class="st0" d="M27.3,59.4c0.1-2,0.7-4.7,2.1-7.3c-1.4-0.9-3.3-1.6-5.7-1.6c-4.4-0.1-7,2.1-8.4,4.7c-1,1.8-1.5,3.8-1.5,5.1
	c-0.1,2.1-0.1,9.9,0,15.1c3.9,3.9,8.5,7,13.5,9.3C27.2,76.7,27.1,62.3,27.3,59.4z"/>
<path class="st2" d="M27.3,59.4c0.1-2,0.7-4.7,2.1-7.3c-1.4-0.9-3.3-1.6-5.7-1.6c-4.4-0.1-7,2.1-8.4,4.7c-1,1.8-1.5,3.8-1.5,5.1
	c-0.1,2.1-0.1,9.9,0,15.1c3.9,3.9,8.5,7,13.5,9.3C27.2,76.7,27.1,62.3,27.3,59.4z"/>
<path class="st0" d="M12.9,59.9c0.1-1.4,0.5-3.3,1.5-5.1c-1.1-0.7-2.4-1.2-4.2-1.2c-4.2-0.1-6.2,2.8-6.9,5.2c2,6,5.3,11.3,9.5,15.8
	C12.8,68.7,12.8,61.5,12.9,59.9z"/>
<path class="st2" d="M12.9,59.9c0.1-1.4,0.5-3.3,1.5-5.1c-1.1-0.7-2.4-1.2-4.2-1.2c-4.2-0.1-6.2,2.8-6.9,5.2c2,6,5.3,11.3,9.5,15.8
	C12.8,68.7,12.8,61.5,12.9,59.9z"/>
<circle class="st0" cx="10.1" cy="47.9" r="4.5"/>
<circle class="st2" cx="10.1" cy="47.9" r="4.5"/>
<circle class="st0" cx="65.7" cy="42.7" r="6.2"/>
<circle class="st2" cx="65.7" cy="42.7" r="6.2"/>
<path class="st0" d="M75.6,60.3c-0.1-1.4-0.5-3.3-1.5-5.1c-1.4-2.5-4.1-4.7-8.4-4.7c-2.4,0-4.3,0.7-5.7,1.6c1.4,2.6,2,5.4,2.1,7.3
	c0.1,2.9,0.1,17.2,0.1,25.1c5.1-2.3,9.7-5.5,13.6-9.4C75.6,69.9,75.7,62.4,75.6,60.3z"/>
<path class="st2" d="M75.6,60.3c-0.1-1.4-0.5-3.3-1.5-5.1c-1.4-2.5-4.1-4.7-8.4-4.7c-2.4,0-4.3,0.7-5.7,1.6c1.4,2.6,2,5.4,2.1,7.3
	c0.1,2.9,0.1,17.2,0.1,25.1c5.1-2.3,9.7-5.5,13.6-9.4C75.6,69.9,75.7,62.4,75.6,60.3z"/>
<path class="st0" d="M79,53.9c-1.8,0-3.2,0.5-4.2,1.2c1,1.8,1.5,3.8,1.5,5.1c0.1,1.5,0.1,8.2,0.1,14c4.1-4.5,7.4-9.8,9.3-15.7
	C84.9,56.2,82.9,53.8,79,53.9z"/>
<path class="st2" d="M79,53.9c-1.8,0-3.2,0.5-4.2,1.2c1,1.8,1.5,3.8,1.5,5.1c0.1,1.5,0.1,8.2,0.1,14c4.1-4.5,7.4-9.8,9.3-15.7
	C84.9,56.2,82.9,53.8,79,53.9z"/>
<circle class="st0" cx="79.1" cy="48.3" r="4.5"/>
<circle class="st2" cx="79.1" cy="48.3" r="4.5"/>
</svg>
