<?xml version="1.0" encoding="utf-8"?>
<!-- Generator: Adobe Illustrator 19.1.0, SVG Export Plug-In . SVG Version: 6.00 Build 0)  -->
<!DOCTYPE svg PUBLIC "-//W3C//DTD SVG 1.1//EN" "http://www.w3.org/Graphics/SVG/1.1/DTD/svg11.dtd">
<svg version="1.1" id="Layer_1" xmlns="http://www.w3.org/2000/svg" xmlns:xlink="http://www.w3.org/1999/xlink" x="0px" y="0px"
	 viewBox="-99 0 600 600" style="enable-background:new -99 0 600 600;" xml:space="preserve">
<style type="text/css">
	.st0{fill:#F3F6F6;stroke:#CECECE;stroke-width:0.5;}
	.st1{fill:#EDF1F1;stroke:#CECECE;stroke-width:0.5;}
	.st2{fill:#DBE3E4;stroke:#CECECE;stroke-width:0.5;}
	.st3{fill:#D5DEDF;stroke:#CECECE;stroke-width:0.5;}
	.st4{fill:#FFFFFF;stroke:#CECECE;stroke-width:0.5;}
	.st5{fill:#E1E8E8;stroke:#CECECE;stroke-width:0.5;}
	.st6{fill:#CFDADB;stroke:#CECECE;stroke-width:0.5;}
	.st7{fill:#E7ECED;stroke:#CECECE;stroke-width:0.5;}
	.st8{fill:#CAD5D6;stroke:#CECECE;stroke-width:0.5;}
	.st9{fill:#F9FAFA;stroke:#CECECE;stroke-width:0.5;}
	.st10{fill:#C05F5F;}
	.st11{display:none;fill:#C05F5F;}
</style>
<g>
	<path id="Battery_Park_x2F_Tribeca" class="st0" d="M149.2,279.8l-1.1,2.3l0.1,5.3l-0.9,1.4l2,2.1l-1.8,1.2l-0.2,2.3l-1.6-0.9
		l-8,6.4l-2.2-0.9l-3.7-6l1.6-8.7l0.7-5.7l3,0.4l1.4-8.7l-3-0.8l3.7,0.9L149.2,279.8z"/>
	<path id="Battery_Park_x2F_Tribeca_1_" class="st0" d="M134,307.6l2.2,0.7l1.7,2l-0.8,3.3l-2.5,0.9l-6.5,3.9l-1.8-0.3l-0.7-2.2
		l5.4-6.8l0.3-1.3L134,307.6z"/>
	<path id="Battery_Park_x2F_Tribeca_2_" class="st0" d="M113.8,299l2,1.7l-3.4,3.3l-1.8-1.7L113.8,299z"/>
	<path id="Battery_Park_x2F_Tribeca_3_" class="st0" d="M110.3,311.4l0.2,1.5l-2.3-0.6l0.1-2.1L110.3,311.4z"/>
	<path id="Murray_Hill_x2F_Stuyvesant" class="st0" d="M173.4,269.4l-14.9-8.5l1.9-3.6l0-2.7l1.1,0.7l4.8-8.7l-2.8-1.6l2.4-4.3
		l2.9,1.6l7.6-13.9l8.2,4.5l-5.7,8.4l-5.7,9.6l-0.7,4l0.2,3.9l-1.7-0.7l0.9,5.9l1.7,2.4L173.4,269.4z"/>
	<path id="Upper_East_Side" class="st1" d="M199.4,220.5l-0.9,0.8l-8.4,12.9l-7.6,8.8l0-1.3l7-10.9l3.5-4.8l3.8-6.4l3.9-3.6l0,2.1
		L199.4,220.5z"/>
	<path id="Upper_East_Side_1_" class="st1" d="M197.9,204.6l-0.2,1.5l1.6,5.4l-1.4,3.5l-2.5,3l-6.9,10.5l-3.8,4.5l-12.4-6.9
		l15.1-27.2L197.9,204.6z"/>
	<path id="East_Harlem" class="st2" d="M217.3,183.9l0.9,1.6l4.2,2.7l1.5,3l-1.2,2.9l-3,2.9l-3.2,4.5l-0.6,2.3l-4.6,2.9l-2.5-1.7
		l-3.5-0.7l-0.6-3.1l3-4.6l3.5-3.1l1.2-4.5l-0.6-2.2l2-4.4L217.3,183.9z"/>
	<path id="East_Harlem_1_" class="st2" d="M197.9,204.6l-10.6-5.8l9.7-17.7l-1.4-0.7l1.6-2.9l1.4,0.8l6.9-12.5l0.9-2.1l-0.5,9.7
		l0.7,2.7l2.9,4.4l1.2,4.5l-0.1,3.6l-1.1,2.4l-4.8,4.1l-3.5,6.7L197.9,204.6z"/>
	<path id="Hunts_Point" class="st3" d="M242,154l4.4,0l3.6-1.8l-0.7,5.2l1.8,5.2l5.1,4.1l4,2.3l3.4,8l-3.2,5.7l-1.6,1.2l-4-0.5
		l-0.2-1.6l-5.8,0.7l-3.7-4.4l-5.5-0.4l-5.7,1.5l-1.1-7.5l-0.9-0.8l1.3-4.7l4.8-15L242,154z"/>
	<path id="Hunts_Point_1_" class="st3" d="M237.4,182l1.6,1.9l-1.9,1.9l-1.1-0.5L237.4,182z"/>
	<path class="st4" d="M318.4,85.5l9.8,3.6l0.3-0.8l0.8,0.3l-1.7,3.3l-2.1,6.2l-2.1,1.2l-0.9,3l-1.5,1.2l-0.7-2.2l-0.8,1.5l1.1,2.3
		l-1.6-0.2l-3.1-2.2l1.4,2.9l3.2,1.9l0.7,1.6l3.9-7.6l2.7-1.1l1.4-4.4l-0.6-1.7l4.1-3l-0.2,2.5l4.5,0.7l-0.3,2.4l-2.1,4.2l1.6,1.2
		l1.1-2.3l0.7,3.5l-1.5,1l-3.6,0.2l-2.1,1.7l-1.1,4.5l1.1,2.3l-1.8,1.9l-1.2,2.9l0.4,1.7l-2.1,0.3l-1.9,2.7l0.7,3.9l-1.6,2.7
		l-3.6-5.9l0.6-2.6l-1.6-7.3l-0.4,2.1l-2,0.5l-2.5-3.1l-2.4-1.7l-1.3,0.7l0-2.8l-1.6,1.4l2.3-4l-1.3-2.9l-1.2,3.6l-4.1-3.7l2-6.6
		l-1.2-1.5l1.5-6.9l-0.4-2.4l2.8-0.9l4.6-0.1L318.4,85.5z"/>
	<path class="st4" d="M305.3,128.9l-4.5,3l-1.4-3.7l0.4-4.5l-1.6-3.1l-1.3-2.9l7.4-3.3l2.3-1.6l-2.2,3.6l2.6-0.5l0.2-1.4l3.9,0.6
		l0.9,1.9l0.4,5.4l-3.6,0.1l-0.7,2.6l1.8,3.1l-4.4,1.2L305.3,128.9z"/>
	<path id="Canarsie" class="st0" d="M236.8,410.9l-2.8,3.7l-4.3,3.1l-1.3,3.5l0.3,3.9l-1.2,4l-2,1.7l0.3-5.5l-0.5-3.9l-3-5.2
		l-2.8-2.1l-3.5-0.9l-1.2,2.1l-4.8-3.5l0.2-1.4l-2.4,1l0.9,1.7l3.3,2.1l8,8.1l3.2,4.6l-3.3,2.7l-10-11.7l1.3-1.2l-4.8-5.6l-0.6,0.6
		l-3.6-4.4l0.5-0.6l-5.4-6.3l-2.8-19.8l2.8-0.3l-1.2-1.4l1.7-0.2l5.2-1.5l11.2-7.7l7.7-7.9l12.7-11l1.1-1.6l0.8-2.7l1.5,6.5l3.5-2
		l1.9,3.2l8.8,9.8l2.9,4.7l-0.3,1l-4.4-6.5l-1.9,0.6l-1.6-2.2l-0.2-2.2l-3-1.1l4.3,5.8l2.1,1.5l3.7,4.9l0.8-0.2l-1.9,4.1l-3.1,4.2
		l-0.2,1.7l-3.2,0.9l-5.2,4.4l-1.8,2.6l-1.7-0.2l-2.5-3.1l-2.6-0.7l-10.7-6.6l-0.9,1.1l12.8,7.8l1.8,3l3.2,0l-0.4,2.7l0.1,10.3
		l-1.2,5.8l-2-1.8l0.7-3.7l-7.3-8.4l-1,1l6.4,7.1l0.5,5.3l-3.2,1.1l-0.6-1.8l-3.4,0.5l1.4,2.3l-4.7,0l-2.7-3.3l0.6-4.2l1.4-1.3
		l-0.4-2.7l-1.5,0.5l0.7,1.9l-2,1.9l-1.2,2.8l4.4,5.5l4.8,1.4l1.1-0.8L236.8,410.9z"/>
	<path class="st4" d="M224.7,431.4l-2.6,1.4l-1.1-1.4L224.7,431.4z"/>
	<path class="st4" d="M218.5,415.5l3.2,1.7l2.8,4.7l-0.1,2.1h-2.5l-1.6-2.8l-3.4-3.1l-0.4-1.2L218.5,415.5z"/>
	<path class="st4" d="M294,384.3l-0.5,14.3l-3.2-1.4l2.4-2.6l-0.6-2.1l1-2.7l-0.4-4.1L294,384.3z"/>
	<path class="st4" d="M291.8,408.6l-0.2-2l1.6-2.1L291.8,408.6z"/>
	<path class="st4" d="M291.5,379.3l-4.3,7.5l-3-6.1l1.8-1.9l4.2-1.5L291.5,379.3z"/>
	<path class="st4" d="M285.6,394.7l-1.4,3.2l3.1,2.1l2.5-0.9l-2.3,9.5l-5.5,2.4l-4.1-3.8l3.5-2.7l-0.4-3.8l1.8-6H285.6z"/>
	<path class="st4" d="M282,378.3l-1.2,2.1L272,380l2.2-5.3l8.2-4.2l2.8,2.6l-1.4,3.8L282,378.3z"/>
	<path class="st4" d="M281.8,381.6l-2.1,3.2l2.2-0.4l2,1.4l1.3,2.5l-4.3,0.9l-7.1,2.8l-3.9,2.6l-2.3-0.2l-0.3-1.5l2.1,0.1l0.4-5.8
		l-2.1,0.8l0-2.9l2.6,0.9l1.6-3.3l1.8-1.3l5.1,1.3l2-1.9L281.8,381.6z"/>
	<path class="st4" d="M274.9,396.5v3.5h2.5l-0.2-2.3l2.5,0l-0.2,5.7l-4.4,4.7l-1.7-0.4l0-2.1l-1.7-1.3l-0.2-2.1l2.4-2.3l-1.8-4.3
		L274.9,396.5z"/>
	<path class="st4" d="M277.4,418.1l-3.8,1.4l-3.2-0.4l-2.5-3.9l2.2-3.1l5.2,0.8l3.5,3.5L277.4,418.1z"/>
	<path class="st4" d="M259.1,361.2l2.8-2.9l8.5-6.2l0.7,0.7l0.7,1.6l1.7,2.4l-1.3,3.8l1.1,4.1l-5,1.4l-3.9,3.1l-1.2-1.2l-1.2-3.7
		L259.1,361.2z"/>
	<path class="st4" d="M264.6,435.7l-1.6,0.4l-1.4-1.9l-0.6-4l1.2-3l3-2.8l2.7,1.1l1.7,3.4l-1.7,4.7L264.6,435.7z"/>
	<path class="st4" d="M261.3,395.5l-6.5,1.8l3-9.4l7-4.8l1.6,2.5l-1.1,8.3L261.3,395.5z"/>
	<path class="st4" d="M254.7,370.3l1.9-5l2-3.6l0.5,2.8l3.3,6.1l-3.4,2.7L254.7,370.3z"/>
	<path class="st4" d="M262.4,407.6l-1.2,2.1l-1.7-6.8l1.8,1L262.4,407.6z"/>
	<path class="st4" d="M261.9,416.2l-0.7,0.1l0.5-4.2L261.9,416.2z"/>
	<path class="st4" d="M225.6,430.7l2-1.7l1.2-4l-0.3-3.9l1.3-3.5l4.3-3.1l2.8-3.7l5.9,0.3l4-2.2l3.2-0.4l2,7.1l2.5,13.1l1.8,3.6
		l-2.6,5.5l-4.1,1.8l-9.7,2.1l-1.2-3.2l0.4-2.9l-1.6-5.5l-1.4-1.4l-3.9,1.3L225.6,430.7z"/>
	<path class="st4" d="M239.1,388.8l1.8-2.6l5.2-4.4l3.2-0.9l0.2-1.7l3.1-4.2l1.9-4.1l1.4,2.7l-0.9,1.6l-4.4,3.6l-0.4,4.5l-1.3-1.4
		l-1.9,0.5l-2.7,2.5l-1.8,3L239.1,388.8z"/>
	<path class="st4" d="M237.1,409l1.2-5.8l-0.1-10.3l0.4-2.7l1.2,2.7l-0.7,1.5l0.5,4.1l3,0.9l2.3,2.4l-3.1,5.7L237.1,409z"/>
	<path class="st4" d="M210,434.1l-0.2-0.9l8.8,0.6l3.5-0.8l0-0.1l2.6-1.4l1.1,4.6l-3,0.3l-7.6-2.2L210,434.1z"/>
	<path id="Astoria" class="st1" d="M242.7,211.1l-1.8-1.1l-2,2.2l2.9,2.6l3.4,1l0.5,4.8l0.9,2.4l-3.6,0.7l-2.1,0.1l-1.8,3.4
		l-2.9,5.7v2.1l1.4,2.5l-10.9,1.4l0.7,1.6l-9.3,2.2l-0.5-1.4l-3.2-0.8l-6,0.5l-4.6,3.2l-0.5-1.5l-9.9-6l-1.8-0.4l8.3-13.4l4.8-2.9
		l0.8-2.7l-2.3-0.9l-0.1-3l2.2-3.2l2.9,0l1.6,1.9l4.9-3.3l6.4-7l3.7-4.9l2.4-1.8l8.3,2.2l3.9,4.4l-2.6,2.8l2.3-0.4l3.9,2.7l0.4,2.7
		L242.7,211.1z"/>
	<path id="Astoria_1_" class="st1" d="M245.6,186.3l1.9,0.8l2.5,2.7l4.8,1.4l6.2,5.1l0.4,2.5l-2.4,2.5l-4.2,0.5l-9.4-2.4l-1.1-2.9
		l-1.6-0.6l-0.5-2.7l0.9-4.6L245.6,186.3z"/>
	<path id="Howard_Beach" class="st1" d="M322,336.4l-0.7,3.6l-1.9,0.2l-1.6,0.3l-1.1,4.8l-4.1-0.7l0.7-2.2l-3.2,0.8l-7.1-1.3
		l-5.6-0.2l-2.6-1.4l3.4,9l1.4,7.3l-2.5,0.5l-0.9-1.6l-2.1-7.1l1.8,9.1l-3.9,0.8l-2.7-13.5l-0.9,0.7l2.7,12.9l-0.6,0.1l1,4.3
		l-11.5,1.4l-2.5-3.8l2.1-4.9l-2.2,1.3l-3-0.9l-2.3-2.2l-3.6-5L268,348l4.8-2.1l-0.7-3.8l2.4-0.5l-1.6-9l-2.5,0.5l-1.6-9.1l7.3-0.6
		l6.4-2.5l31.4-11.6l2.9,6.7l5.2,14.3L322,336.4z"/>
	<path id="The_Rockaways" class="st1" d="M268,452.1l-3-6.1l2.6-0.8l0.7-2.6l8.5-5.9l3.9-1.2l3,0.7l5.2-0.3l9.4-3.5l0.5-1.3l4.5-1.6
		l1.2,0.8l7.3-5.2l3-1.3v-1.3l4.6,2.6l-3-2.4l0.6-2.2l3.9,1.2l-2-2.8l1.7-2.4l7.3-0.7l1.9-0.6l3.9-3.7l1.5,0.1l-3.6,4.4l-0.4,4.8
		l1.5-0.5l0.1-2.9l4.8-5.2l-0.2-3.2l3.8-4.5l3.5-0.6l1,2.4l-1.6,5.9l-1.8,2.5l-1.6-0.4l-1.6,1.9l1.5,2.2l2.4-1.8l2.1-3.4l1.7,4.5
		l4.1-0.6l-2.3-0.5l0.6-4.5l-0.4-2.4l1.4-5l-2.8-2.7l-1.4,0.3l0.3-2.8l5.9-0.7l1.4,2.6l3,0.2l2.1,1.7l5.1-0.2l2.9-1.3l3.8-0.4
		l2.3,5.4l4.3,5.2l-0.1,5.2l0.6,4.3l-5-0.4l-2.8,0.6l-4.3,3.3l-3.8,0.6l-4.8-1l-5.8,1.2l-8.4,0.8l-6,1.8l-16.8,4l-3.5,1.2l-5,0.6
		l-15.6,5.8l-5.5,2.9l-12.6,5.9l-9.1,4.5L268,452.1z"/>
	<path id="The_Rockaways_1_" class="st1" d="M308.8,397.9l1.6,7l-2.2,5.6l-1.8,7.4l-1.8,3.3l-3-0.5l-6.6,0.5l-1.9-0.6l0.2-1.5
		l2.5-1.7l3,0.3l1.8-2l1.4,1.3l-0.1-2.8l1.2-1.7l0.5-3.7l2.2-4l-3.3-2.9l1.3-3.2l1.4-1.1L308.8,397.9z"/>
	<path id="The_Rockaways_2_" class="st1" d="M247.7,451.2l1,1.9l-8.9,3.3l-0.5-1.5l0.7-1.9l2.4-1.8l2.6,0.7L247.7,451.2z"/>
	<path id="The_Rockaways_3_" class="st1" d="M227.1,455.5l-0.5,1.2l1.2,3.5l0.4,6.8l-15.4,7.7l-4.7-11.2l4.9-4.2l7.4-1.4l3.3-2.1
		L227.1,455.5z"/>
	<path class="st4" d="M326.8,340.3l9.4,1.8l8.5,4.7l4.8,3.9l2.7,0.2l16.2,12.2l3.6,4.5l-0.6,1.9l-1.9,1.9l0.4-4l-0.9-2l-3.8-3.8
		l-2.6-0.9l5.2,4.5l1.1,2.2l-1.1,6.9l-3.3,2.1l-4.4,1.7l-7.9,4.3l-1.6,3.5l-1.4,4.5h-1.6l-0.1-2.6l-4.1-4.5l-2.5,0.2l-1.8,2.8l-3-2
		l1.9-4.2l-8.3-6.5l-6.1-2.9l-8.2-5.1l-9-4.6l-2.6-3.8l-1.4-6l1-4.7l3.2-2l5.3,1.1l1-0.7l-6.3-1.6l-4.1,2.2l-1.4,5.5l1.5,8.5l-1.2-2
		l-1.6,1.7l-1.8-10.2l-3.4-9l2.6,1.4l5.6,0.2l7.1,1.3l3.2-0.8l-0.7,2.2l4.1,0.7l1.1-4.8l1.6-0.3L326.8,340.3z"/>
	<path class="st4" d="M352.2,397.9l-6.4-1.2l4.6-5.7l1.1,0.5L352.2,397.9z"/>
	<path class="st4" d="M339.4,386.4l-3.2,7.1l1.6,3.6l2.1,1.2l-0.3,1.4l-5.4,3.5l-3,2.9l-3.4-3.1l-4.8-1.4l0.7-3.8l1.8-2l2.5-6.9
		l4.2,0l4.3-4.6L339.4,386.4z"/>
	<path class="st4" d="M328.2,406.2l0.6,1.6l-3,2.5l-3.7,0.2l-2.7-0.7l-0.8-2.5l0.9-2.3l2.3-1.7l2.4-0.2L328.2,406.2z"/>
	<path class="st4" d="M325,383.5l2,1.4l-3.2,2.4l4.6-1.7l0.3,0.5l-3.9,2.4l-1.2,2.2l-0.4,3l-1.6-1.6l0.7,2.5l-1.5,4.9l-2.1,0.1
		l0.3-2.7l-2.5-6.2l0.5-3.1l3.9-2.8L325,383.5z"/>
	<path class="st4" d="M311.5,410l3.1,2.8l-0.3,3.3l-1.7,0.5l-2.4-4L311.5,410z"/>
	<path class="st4" d="M311.7,381.4l1.6,5.3l-0.7,4.1l1.6,5.4l-1.6-0.9l-1.8-7.4l-2.3-3.1l-0.4-4.9l3-0.1L311.7,381.4z"/>
	<path class="st4" d="M308.8,397.9l-3.7-0.3l-1.4,1.1l-1.3,3.2l-1.6-3.1l-4.5-0.9l-2.8,0.7l0.5-14.3l0.4-1.7l1.6-5.2l-2-6.6l1.1-0.5
		l3.6,3.5l3.2-0.4l0.2-4.3l0.7,1.2l2,10.7l1,2.2l1.6,0.8l1.6,2.9l-2.4,2.3l2.8,1.3l0.2,1.6l-2,3L308.8,397.9z"/>
	<path class="st4" d="M299.4,405.9l1.1,1.7l-2.3,0.7L299.4,405.9z"/>
	<path class="st4" d="M300.1,359.5l-3-2.5l2.5-0.5L300.1,359.5z"/>
	<path class="st4" d="M291.8,408.6l1.4-4l1.6-1.4l1.9,2.2l-0.1,2.1L291.8,408.6z"/>
	<path class="st4" d="M292,358.3l3.9-0.8l-0.4,2.5l-2.4-0.1L292,358.3z"/>
	<path class="st4" d="M291.2,420.9l3.2,2.2l0.5,3.2l-3,1l-2.3-1.8l-1.1-2.1l-3.4-0.7l4.2-3.3L291.2,420.9z"/>
	<path class="st4" d="M268,452.1l-2,1.4l-12.9,5.7l-12.8,4.9l-7,0.6l-5,2.2l-0.4-6.8l-1.2-3.5l0.5-1.2l3.4,2.4l2.8-0.8l1.6,0.5
		l4.3-2.7l0.5,1.5l8.9-3.3l-1-1.9l1.8,0.7l2.2-1l4-0.2l12.7-8.2l-0.7,2.6L265,446L268,452.1z"/>
	<path class="st4" d="M212.9,474.6l-12.3,6l0.2-5.9l-0.4-5.1l1.5-3.4l3.1-2.1l3.2-0.7L212.9,474.6z"/>
	<path id="St._George" class="st1" d="M9.4,367.4l-1.4-0.5l-0.4-2.8l3.6,1.1L9.4,367.4z"/>
	<path id="St._George_1_" class="st1" d="M99,405.8l-7.3,4.4l1.5,2.4l-1.7-0.7l-5.8-2.8l-4-1l-5.4-0.4l-2.3-0.7l-6.6-3.6l-2.2-0.5
		L54,403.3l-4.3-1l-3.1,0.1l-6.7,2.3l-3.7,0.7l-12.3,0.9L21,406l-3.5-1.9l-6.7-6.8L6.9,394l-5-3l-5.7-1.6l-3.7-4.1l-4.2-3.2
		l-10.4-7.3l1.6-2.9l6.3-6.7l2.3-1.2l4.1-0.2l0.2,2.5l2.9-1l-0.1-1.6l2.5,0.6l1.2,2.8l2.2-0.5l4.8,2.6l1.6-0.9L7,370.5l2.6,1.1
		l4.4,0.7l4-0.4l0.8-1.6l5.6-0.8l1.5-1.2l5.6-1.4l4.8,1.9l4.1,0.1l1.2-1.5l1.8,0.5l4.4-1.5l5.2-3.6l4.8-0.4l3.6,0.8l6.2-1l6.4-3.4
		l5.8,0.9l3.9,3.5l2.3,1.1l-1.2,2.3l-0.2,5.7l0.6,4.1l-0.2,3.9l0.7,6.5l2.1,4l3.1,2.8l4.3,5.2l0.9,2.7L99,405.8z"/>
	<path id="South_Beach" class="st0" d="M-11.7,382.1l4.2,3.2l3.7,4.1l5.7,1.6l5.7,3.5l3.2,2.8l6.7,6.8l2.6,1.6l3.2,0.7l12.8-0.9
		l3.7-0.7l6.7-2.3l3.1-0.1l3.8,1l9.8-0.4l4.1,0.5l6.6,3.6l2.3,0.7l5.4,0.4l4,1l5.8,2.8l2.5,1.2l1.4,2.2l-2.4,1l2.9,4.7l-5.4,5.3
		l-4.2,6l-6.7,8l-8.2,6.4l-3.7,5.3l-10.5-6.9l-0.5,1l2,1.6l-0.6,1.7l-2.5,1.6l7.8,5l-3.6,5.3l-9-6.4l-2,3.3l-9.2-7.3l3-3.1l-0.2-3.7
		l-4.7-1.7l-0.5,1.3l-4.3,1.9l-11.6,1.9l-3.7,0.7l-10.9,5.3l-1.6,1.2l-0.5,4.9l-0.7,1.3l-4.9-1.2l-3-1.7l-2.6-1.4l-1.3-5.8l-5.9-4
		l-2.7-3.5v5.3l-1.1-6.6h-1.1l-5.2-2.9l-5.1-0.9l-2.1,0.7l1.4-5l-0.2-6.4l3.6-4l2.6-4.6l-1.1-5.7l-3-4.9l-0.5-2.6l0.3-5.8l1.8-3.6
		l-0.6-4.5l0.1-10.4l0.7-2.2l3.9-4.3L-11.7,382.1z"/>
	<path id="Tottenville" class="st0" d="M-4,457.8l3.5,1.8l4.4,1.1l0.7-1.3l0.5-4.9l1.6-1.2l10.9-5.3l3.7-0.7l11.2-1.8l4.7-2.1
		l0.5-1.3l4.7,1.7l0.2,3.7l-3,3.1l9.2,7.3l2-3.3l9,6.4l-0.6,1l-5.6,6.9l-0.5,0.7l-2.9,1.2l-3.5,2.8l-2.3-3.8l-6.8-5.8l-2.7,3.2
		l-7.1,6.8l2.3,2.4l-1.8,0.5l-3.9,5.4l0,4.1l-2.1,2.2l-4.4,2.3l-5.8,5.7l-2.9,1.8L7,498.7l-6.7,4.8l-1.8-0.3l-4.8,4.6l-3-1.7
		l-3.3,1.6l-4.2,4.6l-3.8,5.4l-2.1,0.8l-2.8-1.7l-1.1-1.8l-5.9,1.4l-1.8,1.2l-3.2,4.7l-2.2,1.5l-1.5,2.3l-6.4,1.9l-2-0.7l-6.9,1.9
		l-4.1,3.5h-3.9l-2.1,1.6l-2.1-0.4l-3.7-4.5l-1.7-4.3l-0.1-4.2l1.9-2.3l1-4.5l3.4-3.1l0.6,0.8l1.6-2.7l3-0.2l2.2-2.1l-2.7-1.3l0-3.3
		l-1-1l2.1-7l-0.5-3.8l-1.8-2.9l-2.1-6.2l-1.4-1l1.6-2.8l2.3-2.4l1.2,0.9l5-4.1v-2.1l2.7-0.1l2.3-3.5l2.1-1l8.5,1.9l4.3-1.9l2.3-4.7
		l-0.2-3.5l3-8l0.7-5.4l1.1-4.7l2.1-0.7l5.1,0.9l5.2,2.9h1.1l1.1,6.6v-5.3l2.7,3.5l5.9,4l1.3,5.8L-4,457.8z"/>
	<path class="st4" d="M46.7,473.7l3.5-2.8l2.9-1.2l-3,5.2h-3.2l-2.8,2.8l-2.3,0.8l-3.5,4.9l-3.7,6.8l-2.5,3.5l-3,2.6l-1.8-1.2
		l-1.4-4.4l0.6-1.5l5.3-0.2l5-5.6l0.4-3.5l-2.2-2.7l-2.6-1l-2.5,0.5l-2.3-2.4l7.1-6.8l2.7-3.2l6.8,5.8l-0.1,0.7L46.7,473.7z"/>
	<path class="st4" d="M102.3,440.7l-1.6-0.1l0-2.5l1.7,0L102.3,440.7z"/>
	<path class="st4" d="M100.4,407.6l1.1,1.8l1,5.9l-8.1,9L83.1,439l-5,5.1l-6.5,7.4l-2.2,1.8l-2.7,4.2l-1.2-0.2l-2.4,3.8l-2.3,1.8
		l-3.7,5.8l-1.3-1l-2.1,1.3l5.6-6.9l4.2-6.3l-7.8-5l2.5-1.6l0.6-1.7l-2-1.6l0.5-1l10.5,6.9l3.7-5.3l8.2-6.4l6.7-8l4.2-6l5.4-5.3
		l-2.9-4.7l2.4-1l-1.4-2.2l-0.8-0.5l-1.5-2.4l7.3-4.4L100.4,407.6z"/>
	<path id="Sheepshead_Bay" class="st0" d="M188.5,442.9l0.6-0.1l-1.1-7l-1.8-1.3l-2.7-0.2l-0.4-7.1l-12,1.7l0-2.5l-8.2-6.6l9.1-1.3
		l0.9-8.3l-0.7-5.3l16.9-2.5l2.5-0.8l5.1-5.1l0.7,4.6l5.4,6.3l-0.5,0.6l3.6,4.4l0.6-0.6l4.8,5.6l-1.3,1.2l10.1,11.9l-5.9,0.9
		l-2.7-3.5l-2.4-1.4l0.1-5.2l-2.1-0.4l1.2,3l0.2,3.1l1.3,2.2l3.9,3.4h4.4l2.7-1.3l1.2,1.5l-4.7,0.9l-7.7-0.6l0.2,0.9l-0.9,0.8
		l-4.4-0.6l-10.3-0.3l-5.2,0.6l0.2,1.2l3.2-0.3l6,1.5l8.9-0.3l1.3,5.8l-0.4,0.6l-9.6,0.3l-10,1.3L188.5,442.9z"/>
	<path id="Bedford_Stuyvesant" class="st5" d="M190.5,324.7l-5.4-1.4l-3.2-21.1l4.3-1l13.1-2l20.9,15.5l1.5,9.9l-0.1,2.2
		L190.5,324.7z"/>
	<path id="Bensonhurst" class="st0" d="M172.2,405l0.7,5.3l-0.9,8.3l-10.3,1.4l-0.1-0.8l-5.5,6.9l-2.3,1.7l-3.2,0.7l-0.7-1.1l1-3.1
		l-2.3,0.5l-2.9-5.1l-4.9-4.5l-3.3-1.9l-5.6-1.6l3.4-4.5l-1.4-1l17.3-21.9l2.2,1.3l17.2,13.7l0.9-0.4L172.2,405z"/>
	<path id="Elmhurst_x2F_Corona" class="st1" d="M274,258.1l-17.4,7.1l-3,1.4l-5.2,0.8l-0.6-2.7l-1.8-5.9l-2.5-6.5l-2.9-5.9l29.1-4
		l7.8-3l1.2,3.1l-3.2,1.3l3.8,9.4l2,1.5l0.2,0.4l-3.3,1.7L274,258.1z"/>
	<path class="st4" d="M252.9,77.2l1.1,3.5l0.9,3.9l-2.7,4.9l-2.6-0.6l-3-1.2L236,85l3-8.1l-0.6-6.7l0.7-4.4l-0.2-9.5l25.1,9.7
		l-1.9,2.6l-4.2,2.6l-2,3.5l-2.5,0.2L252.9,77.2z"/>
	<path id="Morrisania" class="st6" d="M246.4,154l-4.4,0l-4-3l-3.3,10.3l-7.5-2.4l-1.6,0.6l-5-2.1l1.4-1.2l3.4-3.5l5.4-12.2l2.8-6.9
		l6.9,1l-0.5,0.9l5.2,4.1l2.5,0.1l0.4-1.3l4.7,3.4l-3.1,5.7l-1.3,5.4L246.4,154z"/>
	<path id="Crown_Heights_North" class="st7" d="M185,323.2l5.4,1.4l26.4,1.9l-0.8,11.3l-5.2,3l0.2-4.8l-23.5-1.7l-6.4-1.8l-5.5-1.4
		l-0.1-2.2l-1.7-0.4l-3.5-6.5l1-1.6l5.5,1.5l0.1-1L185,323.2z"/>
	<path id="Jackson_Heights" class="st7" d="M275.3,231.1l2.3,2.8l-1.5,0.3l1,4.3l0.4,0.9l-7.8,3l-29.1,4l-2.5-5.6l-0.7-3.3l-1-1.5
		l-0.2-3.5l2.7-5.3l1.8-3.4l2.1-0.1l2.7-0.4l5.3-2.3l5-3.2l2.8-0.5l4.3,1.3l4.8,4.8l1.1,0.3l2.3,4.3L275.3,231.1z"/>
	<path id="Greenwich_Village" class="st0" d="M157.4,260.4l0,1l-1.3,6.9l-3,10.5l-1.1,2.6l-2.9-1.6l-10-9.4l-3.7-0.9l3.2,0.1l0.1-2
		l-2.6-0.3l0.2-2.6l2.5,0.2l0.7-10l-1.7-0.7l2.4-1l0.4-2.1l10.7,5.9L157.4,260.4z"/>
	<path id="University_Heights" class="st8" d="M241.8,115.8l-6.5,13.4l-1.8,4.3l-9.3-0.7l-8.8,0.5l-3.3-2l4.1-7.8l6-8.6l4.5,2.3
		l1,1.3l1.6-2.4l3.3,1.5l2.5-5l8.2,1l0.3,0.2L241.8,115.8z"/>
	<path id="Ridgewood_x2F_Glendale" class="st1" d="M247.9,264.8l0.6,2.7l4.8-0.7l4.4-2l3.2,1.5l1.9,5.7l3.6,5.2l4.8,6.9l0,3.2l0.5,5
		l0.8,1.4l2.3,2.2l0.2,2l-3.2,0.8l0.7-1.9l-1.7,0.6l-3.7-0.4l-3.2,1.9l-0.6,2.4l-1.5,1.5l1.5,2.9l-4.5,1.1l-4.8,3.5l-4.4,5.2
		l-6.9,3.7l-1.5-2.2l-1.9,3.5l-4.1-6.4l-0.1-4.1l-4-3.1l1.4-1.8l-6.6-4.9l1-1.3l-2-1.5l1-1.2l-8.8-6.9l1-1.4l-1.3-2.7l-1.6-1.4
		l1.6-2.7l-1.5-3l-0.5-5.2l3.5,0.7l3.4,1.2l3.4-1.4l6.5-6.6l4-6.3l2-0.9l4.8,0.8l4.4,0.2L247.9,264.8z"/>
	<path id="Jamaica_x2F_St._Albans" class="st1" d="M322,336.4l-0.3-6.9l-4.9-13.6l-6.6-15.3l-1.8-5.3l2.3-0.4l16.4-6.2l5.8-2.6
		l1,0.2l12.5-3.8l5.4-2.5l2.5-1.8l4.4-2.6l5,9l7.7,23.2l-4.6,8.3l-1.9,5.2l-2.6,4.8l-1,5.6l-0.1,3.2l-1.4,4.2l-10.6-1.6l-3.8-0.2
		l-16.2,1.5l-7.5-0.2L322,336.4z"/>
	<path id="East_New_York" class="st7" d="M263.5,306.2l-0.2,0.7l2.3,14l1.6-0.6l0.7,3.8l0.9,0l1.6,9.1l2.5-0.5l1.6,9l-2.4,0.5
		l0.7,3.8L268,348l0.4,0.8l0,2.2l1.4,0.5l0.4,0.6l-8.5,6.2l-2.8,2.9l-5-8.9l-0.4,0.2l5,9.2l-3.6,7.6l-2.9-4.7l-8.8-9.8l-1.9-3.2
		l-3.5,2l-1.5-6.5l-3.7-18.8l-0.4-4.3l1.2-1.6l2.1,1.4l2.1-0.6l1.1-1.9l2.1-4.3l1.5,2.2l6.9-3.7l4.4-5.2l4.8-3.5l4.5-1.1
		L263.5,306.2z"/>
	<path id="Sunnyside_x2F_Woodside" class="st1" d="M237.5,237.6l0.7,3.3l5.4,11.5l3.1,8.3l-4.4-0.2l-4.8-0.8l-2,0.9l-4,6.3l-6.5,6.6
		l-3.4,1.4l-3.4-1.2l0.2-0.8l-3.4-0.7L211,268l-6.9-2.1l-2.3-2l-2.2-5.2l-3.7-1.9l3.9-2l2.1-3.9l-3.2,4l-3.9,1.4l-5.8-2.2l-3.2,0.3
		l-2.9,1.7l-1.6-0.8l1-3.8l2.4-2.9l0-2.4l6.9-10l1.8,0.4l9.9,6l0.5,1.5l4.6-3.2l6-0.5l3.2,0.8l0.5,1.4l9.3-2.2l-0.7-1.6L237.5,237.6
		z"/>
	<path id="Brownsville" class="st5" d="M232.4,324l0.4,4.3l3.7,18.8l-0.8,2.7l-0.8,1.4l-5.6,5l-14.8-17.5l1.5-0.9l0.8-11.3l4.7,0.3
		l0.1-2.2l-1.5-9.9L232.4,324z"/>
	<path id="Chelsea_x2F_Clinton" class="st0" d="M164.3,221.3l0,0.7l-13,23.6l4.9,2.8l-4.7,8.6l-10.7-5.9l0-6.2l-0.7-1.3l2-6.2
		l2.7-5.5l3.2-5l1.6-1l1.7-3.3l0.5-2.7l2.3-4.3l8,4.5L164.3,221.3z"/>
	<path id="Midtown_Business_District" class="st0" d="M176.3,228.4l-7.6,13.9l-2.9-1.6l-2.4,4.3l2.8,1.6l-4.8,8.7l-1.1-0.7l0,2.7
		l-1.9,3.6l-7.1-3.9l4.7-8.6l-4.9-2.8l13-23.6l0.5-0.2l7.5,4.2L176.3,228.4z"/>
	<path id="Williamsbridge" class="st3" d="M318.4,85.5l-5.2-0.6l-4.6,0.1l-6.4,2.3l-5.3,3.1l-3,3.6l-0.9,3l0.4,5.5l4.9,12l-6.5-4.7
		l-10.6-7.3l-5-2.3l-3.3,4.4l-11.4-0.2l0-2l-4-0.1l2.3-4.1l2-5.8l-4.1,0.3l0.2-1.9l-3-0.7l0.5-2.7l-1.4-6.7l-1.1-3.5l0.4-2.2
		l2.5-0.2l2-3.5l4.2-2.6l1.9-2.6l7.4,2.9l2-3.7l0.2-2.9l2.3-1l-0.3-2.2l3-1.6l-2,3.3l2.2,1l0.6-1l4.8,2.2l-0.1,1.6l3.1,0l1.9,5.5
		l-0.3,2.4l1,3.8l2.8,0.8l11,4.3l-0.1-1.8l3.9,1.5l21.3,7.2l-0.3,0.8L318.4,85.5z"/>
	<path id="Park_Slope" class="st9" d="M147.7,309.2l7.6,2.7l-1.4,3.8l11.7,6l1.6-2.9l4.1,1.7l-1,1.6l3.5,6.5l0.6,3l-8.1,13l-0.5,0.1
		l-14.6-9.3l-1.4-3l-1.5,3.6l-2.3,1.6l-2.6-0.7l1-3.1l-2,2.4l-2.5,0l-1.4,4l-3.7,0.5l-1.8-1.4l-0.8-6h1.1l0.7,6.5l3.9-0.3l1.6-3.9
		l-1.2-1.8l-2.2-0.9l-2.6-2.5l-1.8-6.9l5.7-4.6l-1.1,2.3l0.9,1.5l3-3.3l-2.3-1l3.4-2.6l2.6-5.5l3,1.2l1.1-0.6l-3.6-1.3L147.7,309.2z
		"/>
	<path class="st4" d="M222,362.4l-8.4,8.5l-10.9,7.2l-4.8,1.3l-1.7,0.2l-0.3-3.9l-1.6,0.2l-0.4-5.3l-4.6,0.2l-1.1-7.3l-0.7-2.2
		l-0.6-9.7l22.2-1.7l-0.5-7.6l6.2-3.6l14.8,17.5L222,362.4z"/>
	<path id="Rego_Park_x2F_Forest_Hills" class="st1" d="M295.9,283.7l-4.1,2.9l-4.8,1.9l-4.6,1.9l-2.3,0l-4.8,1.8v1.8l2,3.3l-2.4-0.3
		l-0.2-1.4l-2.3-2.2l-0.8-1.2l-0.5-5.2l0-3.2l-0.3-1.1l-4.6-5.8l-3.6-5.2l-1.9-5.7l-3.2-1.5l16.4-6.7l4.4-1.2l3.3-1.7l0.3,0.3
		l1.5,0.9l1.6,5.4l3.9,5.7l2.3,5.6l2.2,3.6l3.2,3.8l3.7,1.8L295.9,283.7z"/>
	<path id="Bedford_Park" class="st3" d="M257.6,102.2l-1.6,1.9l-9.7,7l-2.3,3l-0.9-0.7l-8.2-1l-2.5,5l-3.3-1.5l-1.6,2.4l-1-1.3
		l-4.5-2.3l4.7-6.8l1.5-5.6l-1.7-3l0.8-0.7l3.5,1.7l1,2.9l1.8,2.2l2.1,0.8l7.5-12.6l2.7-3.8l1-0.4l0-0.5l0.2-1.5l2.5,1.3l2.6,0.6
		l2.7-4.9l0.5,2.8l-0.5,2.7l3,0.7l-0.2,1.9l4.1-0.3l-2,5.8L257.6,102.2z"/>
	<path id="Coney_Island" class="st0" d="M188.5,442.9l0.2,1.6l-11.4,1.2l-9.2,1.9l-1.2-0.2l-12.1,1.7l-7.9,0.2l-2.1-2.9l-5.9-1.6
		l-1.6-4.2l1.8-2.9l4.3-1.8l5,0.9l9.8,2.7l0.8-1l-3.2-1.7l1.4-4l-5,2.9l-3.6-1.1l1.8-2.8l-1.4-0.2l4.8-3.7l2.3-1.7l5.5-6.9l0.1,0.8
		l1.2-0.2l8.2,6.6l0,2.5l12-1.7l0.4,7.1l2.7,0.2l1.8,1.3l1.1,7L188.5,442.9z"/>
	<path id="Borough_Park" class="st9" d="M176.8,374.5l-4.1,2.6l-0.1-0.9l-4.5,0.6l1,6.8l9.3-1.5l3.1,21.4l-9.2,1.4l-0.9-6.1
		l-0.9,0.4l-17.2-13.7l-3.2-1.8l-10.6-8.4l12.8-15.9l6.1,4.8l6.3-3.4l9.1-1.4L176.8,374.5z"/>
	<path id="East_Tremont" class="st6" d="M260.5,134.4l-1.6,8.6l-3.1-0.3l-3.9-1.5l-3.8-2.9l-0.4,1.3l-2.5-0.1l-5.2-4.1l0.5-0.9
		l-6.9-1l1.8-4.3l6.5-13.4l1.6-2.1l0.6,0.5l2.3-3l4.4-3.1l0.4,0.9l-1.1,1.3l0.1,0.6l2.7,3.5v5.2l-1.7,10.2l4.8,4.4l-0.8,1.5l3,1.4
		l1.6-2.1L260.5,134.4z"/>
	<path id="Pelham_Parkway" class="st2" d="M298.4,114.6l-2.5,3.9l-3,3.6l-1.4,4l-0.4,5.7l-1.6,6.2l-2.4,0l-3.2-5.6l-2.8,2.7
		l-13.4,2.1l-5.8,2.4l-2.4-0.6l0.8-4.6l0.7-0.7l1.9-4.4l0.5-3.2l-1.5-5.8l1.6-2.5l-2.5,0.8l0.5-7.7l0-6.5l11.4,0.2l3.3-4.4l5,2.3
		l10.6,7.3L298.4,114.6z"/>
	<path class="st4" d="M261.6,104.4l0,6.5l-0.5,7.7l2.5-0.8l-1.6,2.5l1.5,5.8l-0.5,3.2l-1.9,4.4l-1.6,1l-1.6,2.1l-3-1.4l0.8-1.5
		l-4.8-4.4l1.7-10.2v-5.2l-2.7-3.5l-0.1-0.6l1.1-1.3l-0.4-0.9l5.3-3.9l1.6-1.9l4,0.1L261.6,104.4z"/>
	<path class="st4" d="M291.8,286.6l1.6,1.8l-2.3,1.7l-1.2,2.1l0.9,2.9l-7.1,5.6l-3.6,1.3l-1.4-2.3l-3.2-0.5l1.5,3.5l-4.1,0.7
		l-9.6,2.6l-0.4-0.5l-1.5-2.9l1.5-1.5l2-3.8l7.4-0.7l-0.7,1.9l3.2-0.8v-0.7l2.4,0.3l-2-3.3v-1.8l4.8-1.8l2.3,0l4.6-1.9L291.8,286.6z
		"/>
	<path id="Sunset_Park" class="st0" d="M165.9,344.8l0.2,0.4l0.4-0.1l4.6,3l2.6,11.4l-9.1,1.4l-6.3,3.4l-6.1-4.8l-12.8,15.9
		l-1.9-1.1l-6.1-2.1l-2.9-3.2l-2.7-0.2l-5.4-4.3l1.6-1.5l2,1.5l3.6-4.2l-1.3-2.4l0.7-1.1l3.4-0.6l-1.1-2.8l3.4-0.3l3.3-4.3l-2.7-2.2
		l1.7-1.4l3.2,2.1l0.7-0.9l-2.6-2.1l1.2-0.5l3.6,2.8l0.9-1.2l-2.5-2.1l1.5-1.2l2.2,1.7l0.5-1.8l1.7,0.8l-1.1-2.7l3.2,2.5l1.4-1.7
		l-2.9-2.4l3.3-2.2l0.4-4l1.4,3L165.9,344.8z"/>
	<path id="Bay_Ridge" class="st9" d="M137.5,374.3l1.6,0.9l10.9,8.6l1.1,0.5l-17.3,21.9l1.4,1l-3.4,4.5l-1.5-0.8l-7.9-1.4l-5.2-5.2
		l-3.9-7.2l-1-5.7l-0.2-4.4l0.7-6.7l4.7-12l-0.9-1.2l2.4-3.1l1.5,0.4l5.4,4.3l2.7,0.2l2.9,3.2L137.5,374.3z"/>
	<path id="Flatbush_x2F_Midwood" class="st0" d="M196.2,379.7l1.2,1.4l-2.8,0.3l2.1,15.1l-5.1,5.1l-2.5,0.8l-7.7,1.1l-3.1-21.4
		l-9.3,1.5l-1-6.8l4.5-0.6l0.1,0.9l4.1-2.6l-3.9-18.1l0.6-0.2l10.1-5.2l0.1,0.9l2.9-0.2l0.6,9.7l0.7,2.2l1.1,7.3l4.6-0.2l0.4,5.3
		l1.6-0.2L196.2,379.7z"/>
	<path id="Bayside" class="st1" d="M398.6,231.1l-3,0.4L393,233l-2.1,3.8l-3.4,3.4l-1.6,2.6l-0.8,2.9l-2.7,4l-5.2,3.9l-4.2,5.7
		l-6.5,7.1l-5.5,3.4L356,266l-2.9-3.4l2.8-2.6v-2.2l-2.7-7.6l-1.9-2.9l-4.1,2.2l-6.9,1.5l-14,5l-0.8-3.9l2.4-3.3l0-10.3l1.9,0.5
		l-0.9-8.8l1.1-11.8l-0.4-3.2l14.6-5.6l4.6-3.9l2.2,3.1l2.1,5.5l6,7.2l0.2,1.2l3.2,1.4l2.4,2.6l-2.5-4.3l-0.4-4.6l2-2l-1.6-3.7
		l1.8-5.5l2-1.9l5.8,4.9l20.1,15.9L398.6,231.1z"/>
	<path id="Upper_West_Side" class="st1" d="M185.1,184.2l-20.5,37.1h-0.3l-2.3-1l-8-4.5l5-9.8l14.8-27.9l10,5.4L185.1,184.2z"/>
	<path id="Mott_Haven" class="st8" d="M232,170.7l0.9,0.8l1.1,7.8l-3.8,4.1l-1.5,2.6l-2.9,2.7l-1.8-0.1l-5.7-3.3l-2.3-3.1l-4.1-0.4
		l-4.3-7.1l0.2-12.3l6.2,1.7l2.3-2.9l4.4-3.9l5,2.1l1.6-0.6l7.5,2.4L232,170.7z"/>
	<path id="Unionport_x2F_Soundview" class="st2" d="M256.2,166.7l-5.1-4.1l-1.8-5.2l0.7-5.2l-1.7,0.4l1.3-5.4l3.1-5.7l6.1,1.4l0.8-4
		l2.4,0.6l5.8-2.4l8.8-1.4l1.5,9.5l10.5-1.7l-0.2,2.7l-2.5,2.9l-0.2,2.2l2.8,8.5l-1.8,3.2l-3,8.1l-1.6,1.4l-1.7-2l-0.7,4.3l2.2,3.6
		l-2.4,1l-4.6,0.1l-3.1-1.6v-5l-1.5,0.7l-6.1-1.1l-3.6-5L256.2,166.7z"/>
	<path id="Flushing" class="st1" d="M326.3,255.9l-15.5-0.5l-9.8-4l0.5,3l-2.8,1.3l0,1.6l-2.2-0.5l-0.8-1.9l0.2-3.7l-4.1-1.1
		l0.2-1.9l0.5-2.7l0.2-2.7l-2.8-5.7l-2.3,1l1.3-3.6l-3.6,1.7l-2.3-5.9l4-2.1l1.7,0.5l-0.5-3.6l-1.8,1.7l-0.6-1.3l3.1-1.5l-4.7,0.7
		l-2.4-1l-2.2-4.3l0.7-4.1v-5.2l-0.7-0.8l0.4-4l-5.2,0.3l-0.2-1.4l-2.3-0.6l-0.9-2.4l0.9-1.4l4.1-0.9l-0.9-2.9l1.6-1l-0.9-3.3
		l1.2-0.8l2.9,1.5l0.4-2.4l2-0.8l1.5,1.5l2.6-0.6l0.9-1.5l1.9,0l1.7,5.8l-0.6,2.7l4.4,0.8l1.1-3.3l2.8-1.9l-1.1-3.9l2-1.4l1.4,0.5
		l4.7-4.3l6.1,4.4l6.4,1.2l1.8-0.7l3.3,0.5l4.3,1.6l-0.3,3.7l1.1,3.1l3-1.5h4l4-1.6l-0.4-4.6l3.1-1.2l3.2,2.7l3.2,6.9l-3.2,1.9
		l3.2,5.5l-4.6,3.9l-14.6,5.6l0.4,3.2l-1.1,11.8l0.9,8.8l-1.9-0.5l0,10.3l-2.4,3.3L326.3,255.9z"/>
	<path id="Fresh_Meadows_x2F_Briarwood" class="st1" d="M360.9,269.8l2.3,1.8l-4.8,4.2l-4.3,2.5l-2.5,1.8l-5.4,2.5l-12.5,3.8l-1-0.2
		l-5.8,2.6l-16.4,6.2l-2.3,0.4l-3-6.6l-3.7-5.5l-1.4-3.3l-0.3-4.4l-2.1-3.5l-2.3-2.3l-3.9-9.2l-0.5-5l-0.9-5.4l1.6-0.2v0.2l4.1,1.1
		l-0.2,3.7l0.8,1.9l2.2,0.5l0-1.6l2.8-1.3l-0.5-3l9.8,4l14.6,0.7l1.7-0.4l13.1-4.7l6.9-1.5l4.1-2.2l1.9,2.9l2.7,7.6v2.2l-2.8,2.6
		l2.9,3.4L360.9,269.8z"/>
	<path class="st4" d="M290.2,250.2l0.9,5.4l0.5,5l3.4,8.5l3.2,3.4l1.6,3l0.9,6.6l-0.4,0.1l-5-2.8l-1.9-2.8l-2.2-3.6l-2.3-5.6
		l-3.9-5.7l-1.6-5.5l-1.4-0.8l-0.5-0.8l-2-1.5l-3.8-9.4l3.2-1.3l-1.6-4l-1-4.3l1.5-0.3l-2.3-2.8l2.8,0.5l2.5-0.8l4.9-4h1l1.8-1.7
		l0.5,3.6l-1.7-0.5l-4,2.1l2.3,5.9l3.6-1.7l-1.3,3.6l2.3-1l2.8,5.7l-0.2,2.7l-0.5,2.7l-0.2,1.6L290.2,250.2z"/>
	<path id="Crown_Heights_South" class="st7" d="M208.3,342.4l0.5,7.6l-25.1,2l-0.1-0.9l-1.8,0.9l-1-8.3l1.8-1.3l-1.5-9.7l6.4,1.8
		l23.5,1.7l-0.2,4.8L208.3,342.4z"/>
	<path class="st4" d="M181.2,332.7l1.5,9.7l-1.8,1.3l1,8.3l-8.3,4.3l-0.6,0.2l-2-8.4l-4.4-2.9l-0.4,0.1l0.3-0.6l8.1-13l-0.4-3.3
		l1.6,0.7l0.1,2.2L181.2,332.7z"/>
	<path class="st4" d="M172.2,226l-7.5-4.2l-0.1-0.5l20.5-37.1l7.8,4.3L172.2,226z"/>
	<path id="Williamsburg_x2F_Greenpoint" class="st1" d="M213.1,293.5l-6.9,3.4l-7,2.3l-13.1,2l-5.1,1.1l0.6-2.6l-4.4-4.6l-1.8-3.3
		l-0.5-2.6l2.3-8.4l3.7-6.2l1.6-3.8l0.1-4l-1.2-5l0.1-1.5l2.5-3.5l4-1.9l3.6,0.9l7.8,4.1l1.5,4.2l2.5,2.4l6.4,1.7l1.6,3.1l2.5,7.5
		l-4.2,1.6l4.6-1l1.2,1.7l-1.6,1.3l0.7,1.3l2.9,4.1L213.1,293.5z"/>
	<path id="Bushwick" class="st7" d="M238.8,321.2l-1.1,1.9l-2.1,0.6l-2.1-1.4l-1.2,1.6l-33.1-24.8l7-2.3l6.9-3.4l3.6-4.2l8.8,6.9
		l-1,1.2l2,1.5l-1,1.3l6.6,4.9l-1.4,1.8l4,3.1l0.1,4.1l4.1,6.4L238.8,321.2z"/>
	<path class="st4" d="M267.8,223.5l-2.3-2.7l-4.7-3.2l-5.6,0.6l-5,3.3l-3.6,1.5l-0.9-2.4l-0.5-4.8l-3.4-1l-2.9-2.6l2-2.2l1.8,1.1
		l1.8-0.7l0.6,2.7l-0.6,2.2l5.5-0.6l-0.9-6.7l5.4-0.7l0.3-2.9l2.8,1.7l3.4-5.2l1.6,2.9l-2.7,3.2l6.8,4.6l8.5,5.2l-1.8,3.5l-2,2.4
		L267.8,223.5z"/>
	<path id="Queens_Village" class="st1" d="M371.5,369.6l0.6-1.9l-4.1-5l-15.8-11.8l-2.7-0.2l-4.8-3.9l-8.5-4.7l-9.4-1.8l-5.5-0.3
		l0.3-1.2l7.5,0.2l16.2-1.5l3.8,0.2l10.6,1.6l1.4-4.2l0.1-3.2l1-5.6l2.6-4.8l1.9-5.2l4.6-8.3l-7.7-23.2l-5-9l4.7-4.1l-2.3-1.8
		l5.5-3.4l6.5-7.1l4.2-5.7l3.9-2.7l4.1-5.4l0.7-2.7l1.6-2.6l3.4-3.4l3-4.5l4.8-1.2l10.3,8.5l1.5,15.3l-1.3,2l-5.5,11.2l-9.2,2
		l-6.4,2.3l-4,2.1l2.5,11.3l0.3,3.3l0.8,23.6l0.5,10.9l-1.7,6.2l-0.6,8.9l0.3,5.4l1.8,4.6l0.5,6.6l-4.4,1.9l-4.2,0.7l-5.5,3.3
		l-0.8,7.7l2.5,5.1l-2.8,0.5l1.4-2.3l-1.6-1.2l-3.1,2.1l-0.4-1.6L371.5,369.6z"/>
	<path id="Washington_Heights" class="st5" d="M205.4,143.6l-3,3l-1.6,3.1l-8.7-4.6l1.4-6l2.1-5l-0.7-7.1l3.1-2.5l9.7-17.6l0.4-4.1
		l2.5-5.4l2.2-2.2l3.6,1l-0.2,2.9l1.3,1.5l4.2-1.7l3.2,0.9l1.7,1.7l-0.2,3.3l-2.7,5.4l-4.8,6.9l-1.6-1.6l0.5,2.9l-7.9,14.4
		l-4.1,10.6L205.4,143.6z"/>
	<path id="Riverdale" class="st6" d="M247.2,87.5L247,89l0,0.5l-1,0.4l-2.7,3.8l-7.5,12.6l-2.1-0.8l-1.8-2.2l-1-2.9l-4.3-1l-4.5-2.1
		l-3.5-0.8l-2.6-2.9h-1.9l1-1.7l3-8.4l6.8-23.6l2.1-8.6l11.9,4.8l0.2,9.5l-0.7,4.4l0.6,6.7l-3,8.1l10.7,2.7L247.2,87.5z"/>
	<path id="Manhattanville" class="st0" d="M200.8,149.8l0.4,1.3l-3.6,6.5l0.8,0.4l-2,2.7l-0.8-0.4l-2.7,7.5l-3.8,6l-1.2-0.7
		l-2.9,5.2l0,2.9l-1.2,2.3l-10-5.4l6.1-11.5l5.4-8.1l-1.4-1l2.8-5l1.1,0.7l4.3-8.1L200.8,149.8z"/>
	<path id="Central_Harlem" class="st2" d="M205.8,143.3l-0.6,3.6l1.2,16.7l-0.9,2.1l-6.9,12.5l-1.4-0.8l-1.6,2.9l1.4,0.7l-4.1,7.3
		l-9-4.9l1.2-2.3l0-2.9l2.9-5.2l1.2,0.7l3.8-6l2.7-7.5l0.8,0.4l2-2.7l-0.8-0.4l3.6-6.5l-0.4-1.3l1.3-2.8l3.2-3.4L205.8,143.3z"/>
	<path id="Concourse_x2F_Highbridge" class="st6" d="M233.5,133.5l-2.8,6.9l-5.4,12.2l-3.4,3.5l-5.2,4.5l-2.8,3.4l-6.2-1.7
		l-1.1-15.3l0.9-4.3l1.8-4.1l1.6-5.5l1.2-2l3.3,2l8.8-0.5L233.5,133.5z"/>
	<path id="Lower_East_Side" class="st0" d="M158.5,260.9l14.9,8.5l-1.4,7.5l-2.8,9.4l-1.5,1.5l-2.8,0.9l-6.2,0.8l-0.2-0.9L151,290
		l-1.6,0.9l-2-2.1l0.9-1.4l-0.1-5.3l1.1-2.3l2.9,1.6l1.1-2.6l3-10.5l1.3-6.9l0-1L158.5,260.9z"/>
	<path id="Fort_Greene_x2F_Brooklyn_Heights" class="st9" d="M181.8,302.1l3.2,21.1l-8-2.3l-0.1,1l-7.4-2l-2.2-1.2l-1.6,2.9l-11.7-6
		l1.4-3.8l-7.6-2.7l-2.6-1.4l1.4-2.8l1.9,0.9l1.3-2.6l-1.9-0.9l1.4-2.7l1.7,0.8l-0.5-2.2l3.1-3.3l9.8-1.4l4.3,0l2.1,4.2l2.5,0.3
		l0.2-1.9l3.2,2.3l-4.7-5.4l3.1,0.3l1.6-1.5l1.8,3.3l4.4,4.6l-0.6,2.6L181.8,302.1z"/>
	<path id="Woodhaven" class="st1" d="M308.3,295.4l1.8,5.3l3.7,8.6l-31.4,11.6l-6.4,2.5l-8.2,0.7l-0.7-3.8l-1.6,0.6l-2.3-14l0.2-0.7
		l9.6-2.6l4.1-0.7l-1.5-3.5l3.2,0.5l1.4,2.3l3.6-1.3l7.1-5.6l-0.9-2.9l1.2-2.1l2.3-1.7l-1.6-1.8l4.1-2.9l4.9-1.6l0.8,1.2l3.7,5.5
		L308.3,295.4z"/>
	<path id="Throgs_Neck" class="st3" d="M330.2,125.1l0.5-3.3l-1.1-1.4l2.2-3.1h0.9l0.9,5.8l3,2.7l0.9,2.2l1.8,0.7l-1.8,5.7l1.8,3.4
		l-0.4,3.5l-1.9,1.1l-2.9-3.5l-0.5-2.4l-3-5.8l1.5-3.1l-0.4-3.1L330.2,125.1z"/>
	<path id="Throgs_Neck_1_" class="st3" d="M351.2,122l-1.4,2.2l0.7,2.1l-0.9,3.6l1.5,2.7l-1,0.2l-2.2-2.7l0.6-2.6l-1.4-3.1l0.2-8.8
		l1.2,0l4.8,5.8L351.2,122z"/>
	<path id="Throgs_Neck_2_" class="st3" d="M308.1,107.2l-1.3-2.9l2.4-0.8l1.4,2.8l-0.7,2.3l0.3,3.1l-3.4,4.7l-2.3-0.2l2-3.3
		l-9.6,4.9l1.3,2.7l1.5,3l-0.3,5.4l1.5,3.1l4.4-3.1h3.8l0.1,2.2l1.8,1.8l-0.4,2.2l-2.5-1.6l1.6,2.3l0.4,4l-1.4,1l1.1,7.6l2.2,3.7
		h2.4l-3.2,1.6v3.3l4.1-2.2l2,1.3l0.4,4.9l1.8,2.5l1.7-0.1l3.8,2l-3,4.2l-1.7,0.9l-0.6-1.9l-2.9-3.3l1.8,5l1.6,2.2l3.9,1.2l5.8,3.4
		l1-0.6L331,180l-2.4-0.2l-1.6-1.9l-5.2-3.4l-2.1,0.5l-5.2-5l-5.6-1.2l-8.1,2.8l-3.4,0.4l-1.9,2.1l0,5.2l-4.3-0.9L288,171l0.7-4.5
		l-0.5-2.1l1.2-1.8l-0.3-3.8l-2.9-6.6l0.4-2.9l2.8-3.1l-0.4-6.2l-0.7-0.8l0.1,4.7l-10.4,1.6l-1.3-9.4l4.4-0.7l2.8-2.9l3.3,5.4
		l2.4-0.2l1.8-8.3l0.4-4l1.4-3.5l2-2l3.5-5.6l-1.9-3.2l-2.7-6.2l-1.1-5.8l0.7-4.3l1.1-2.2l3.2-2.8l3.3-2l4.7-1.7l0.5,4.9l-0.9,0.6
		l-0.3,7.3l-1.5-0.3l0.9,2.8l-0.3,2.7l2.1,0.8L308.1,107.2z"/>
</g>
<g>
	<circle class="st10" cx="156.2" cy="308.4" r="3"/>
	<circle class="st10" cx="17.9" cy="415.4" r="3"/>
	<circle class="st10" cx="226.7" cy="119.3" r="3"/>
	<circle class="st10" cx="198.5" cy="177.4" r="3"/>
	<circle class="st10" cx="154.4" cy="246.3" r="3"/>
	<circle class="st10" cx="139" cy="295.4" r="3"/>
	<circle class="st10" cx="157.7" cy="309.9" r="3"/>
	<circle class="st10" cx="237.9" cy="105.5" r="3"/>
	<circle class="st10" cx="323.8" cy="296.8" r="3"/>
	<circle class="st10" cx="202.9" cy="132.5" r="3"/>
	<circle class="st10" cx="66.1" cy="418.7" r="3"/>
	<circle class="st10" cx="235.3" cy="95.3" r="3"/>
	<circle class="st10" cx="236" cy="138.1" r="3"/>
	<circle class="st10" cx="143.8" cy="272.2" r="3"/>
	<circle class="st10" cx="358.8" cy="-1984.3" r="3"/>
	<circle class="st10" cx="201.1" cy="181.1" r="3"/>
	<circle class="st10" cx="175.5" cy="315.5" r="3"/>
	<circle class="st10" cx="2716" cy="-1631.1" r="3"/>
	<circle class="st10" cx="215.2" cy="170.6" r="3"/>
	<circle class="st10" cx="59.7" cy="366" r="3"/>
	<circle class="st10" cx="252.9" cy="90.3" r="3"/>
	<circle class="st10" cx="222.1" cy="301.8" r="3"/>
	<circle class="st11" cx="197.2" cy="196.4" r="3"/>
	<circle class="st10" cx="279.4" cy="258.2" r="3"/>
	<circle class="st10" cx="165.1" cy="237.2" r="3"/>
	<circle class="st10" cx="139" cy="295.4" r="3"/>
	<circle class="st11" cx="163.8" cy="283.6" r="3"/>
	<circle class="st11" cx="172.1" cy="237.9" r="3"/>
	<circle class="st10" cx="156.1" cy="307.5" r="3"/>
	<circle class="st11" cx="139.2" cy="292.7" r="3"/>
	<circle class="st11" cx="154.4" cy="245" r="3"/>
	<circle class="st11" cx="137.8" cy="292.8" r="3"/>
	<circle class="st10" cx="226.8" cy="180.9" r="3"/>
	<circle class="st10" cx="180.6" cy="358.6" r="3"/>
	<circle class="st10" cx="221.4" cy="166.4" r="3"/>
	<circle class="st11" cx="154.7" cy="312.8" r="3"/>
	<circle class="st11" cx="220.3" cy="164.6" r="3"/>
	<circle class="st11" cx="156" cy="236.3" r="3"/>
	<circle class="st11" cx="156.6" cy="237.1" r="3"/>
	<circle class="st11" cx="156.8" cy="240.8" r="3"/>
	<circle class="st11" cx="218.7" cy="165.3" r="3"/>
	<circle class="st11" cx="137.5" cy="293.3" r="3"/>
	<circle class="st11" cx="218.8" cy="143" r="3"/>
</g>
</svg>
