<?xml version="1.0" encoding="utf-8"?>
<!-- Generator: Adobe Illustrator 19.2.1, SVG Export Plug-In . SVG Version: 6.00 Build 0)  -->
<svg version="1.1" id="Layer_1" xmlns="http://www.w3.org/2000/svg" xmlns:xlink="http://www.w3.org/1999/xlink" x="0px" y="0px"
	 viewBox="0 0 600 600" style="enable-background:new 0 0 600 600;" xml:space="preserve">
<style type="text/css">
	.st0{fill:#FFFFFF;stroke:#CECECE;stroke-width:0.5;}
	.st1{fill:#F9FAFA;stroke:#CECECE;stroke-width:0.5;}
	.st2{fill:#E1E8E8;stroke:#CECECE;stroke-width:0.5;}
	.st3{fill:#F3F6F6;stroke:#CECECE;stroke-width:0.5;}
	.st4{fill:#DBE3E4;stroke:#CECECE;stroke-width:0.5;}
	.st5{fill:#EDF1F1;stroke:#CECECE;stroke-width:0.5;}
	.st6{fill:#D5DEDF;stroke:#CECECE;stroke-width:0.5;}
	.st7{fill:#E7ECED;stroke:#CECECE;stroke-width:0.5;}
</style>
<g transform="">
	<path id="Midwood" class="st0" d="M293.6,381.5l0.8,5.5l0.9-0.1l0.7,5.5l-1.7,0.3l0.7,4.8l-1.5,1.3L291,399l0.5,3l-7.7,1.1
		l-3.3,0.5l-0.4-3l-1.6-11.3l-3.4,0.5l-0.4-2.8l-1.2,0.2l-0.4-2.8l-0.4-2.7l9.6-1.5l0.4,2.8L293.6,381.5z"/>
	<path id="Bedford" class="st0" d="M298.3,299.2l-2.1,0.3l0.4,2.5l3.1,21.1l-11.4-0.9l-1.1-7.6l-4.3,0.7l-0.7-4.2l4.3-0.6l-0.7-4.2
		l-3.5,0.5l-0.7-4.9l3.5-0.7l-0.4-2.1l3.2-2.7l2.2,2.6l3.6-3.2L298.3,299.2z"/>
	<path id="Fordham_South" class="st0" d="M342.5,113.6l0.3,0.2l-0.1,0.7l-3.9,7.3l-4.5-1.7l-1,1.7l-3.2-1.4l0.6-3.3l1.2-2.6l0.9,0.4
		l1.3-2.5l1.4,0.7l2-0.3l-1.4,3.6l2.7,1.4l1.7-1L342.5,113.6z"/>
	<path id="Borough_Park" class="st1" d="M268.6,379.1l-1,0.6l0.8,5.5l-0.9,0.1l0.6,4.5l1,1.4l-2.1,4l2.1,1.1l1.8-0.2l0.5,2.7
		l-1.7,1.7l-4.3-3.4l-5.7-4.6l0.5-0.7l-9.7-7.6l-0.4,1.7l-4.6-3.6l0.5-0.7l-4.4-3.5l1.3-1.1l-1.5-1.3l7.1-9.1l3.2,2.6l5.7-5l0.6-0.5
		l4.7,3.7l2.2-1.2l1.1,8l2-0.2L268.6,379.1z"/>
	<path id="Rugby-Remsen_Village" class="st0" d="M327.5,355.1l-0.8,0.7l-9.2,7.8l0.1,2.2l-3.1,3.3l-0.2-3l-1.6,0.1l-0.3,2.7
		l-2.9,0.3l-1.1-13.7l-0.9,0L307,350l3.5-0.3l-0.3-3.7l1.6,0.2l-3.7-4.3l1.7-1l2.1-1.2l5.5,6.5l0.4-2.5l6.3,7.5l2-0.4l0.7,3.5
		L327.5,355.1z"/>
	<path id="East_Flushing" class="st1" d="M426.6,233.4l0.3,4.9l-0.1,3.4l-2,1.5l2.1,2.4l-7.6,0.9l0.4-3.8l-4.1-0.4l-5.7,4.6
		l-1.1-1.2l-4.8-5.8l2.1-1.8l-1.7-1.9l2.1-1.8l-2.4-2l8.4-2.9l9.3,1.9L426.6,233.4z"/>
	<path id="Woodhaven" class="st1" d="M379.3,302l1.2,4.1l2.3,6.3l0.8-0.1l2.6,7l-5.8,2.1l-3.6-1.2l0.8,2.3l-2.6,1l-3.7,0.3l-0.5-1.4
		l-4,1.5l-0.7-3.5l-1.7,0.5l-0.5-3.8l-1.3-6.8l-0.4-4.1l10.4-2.7l3.3-0.5l0.1-1l-1.2-2.4l3,0.3L379.3,302z"/>
	<path id="Madison" class="st0" d="M302.1,405.2l-1.9,1.6l4.7,5.6l-0.2,1.2l-7.3,1.1l0.4,2.4l-12.6,1.8l-0.7-5l0.8-0.1l-1.5-10.7
		l7.7-1.1l-0.5-3l2.5-0.3l1.5-1.3l0.8-0.8l1.1,7.7l1.1,1.2l2.6-2.1L302.1,405.2z"/>
	<path id="Auburndale" class="st0" d="M443.3,250.1l-4.8,1.1l-13.2,4.7l-0.7-2l0.2-2.2l2.1-3l-0.1-3.1l-2.1-2.4l2-1.5l0.1-3.4
		l-0.3-4.9h4l-0.4-3.6l-2.4,0.3l0.4-4.5l-0.8-0.1l0.7-6.6l4.5,7.2l2.3,1.9l0.7,2.6l2.2,5.7l1.4,2.3L443.3,250.1z"/>
	<path id="Williamsbridge-Olinville" class="st2" d="M381.1,83.6l-4.8,9.5l1.4,1.8l-1,0.7l1.2,2l-2.6,2.5l-2.5-1.1l0,3.5l-4.2-0.1
		l-8-0.2l0.2-5.1l3.7-9.6l-0.1-1.3l3-7.2l1.2-3.5l0.6-0.8l3.2,1.3l-0.3,0.9l10,4.3L381.1,83.6z"/>
	<path id="Murray_Hill" class="st0" d="M418.9,212.9l4.6,0.5l2.5,2.5l2.1,3l-0.7,6.6l0.8,0.1l-0.4,4.5l2.4-0.3l0.4,3.6h-4l-4.7-2.2
		l-9.3-1.9l-8.4,2.9l-2.5-6.7l-1.1-6.6l-1.6,0.3v-2.5l0.7-4.1l1.3-1.3l0.8-3l7.7,0.8l-0.3,2.7L418.9,212.9z"/>
	<path id="East_Elmhurst" class="st0" d="M368.8,226.7l1.7,2.8l2.7,1.7l1.4,1.7l-3.6,0.4l-6.2,0.3l-6.9,1l-1.3,0.2l-0.8-5.5l0.9,0.2
		l-1.2-9l0.2-2.9l2-0.3l3.8,1l3.4,3l2,2.4L368.8,226.7z"/>
	<path id="Brownsville" class="st3" d="M336,349l-1.3,0.2l-2.5,2.2l-4.1,0.8l0.4,2l-1,0.8l-0.7-0.8l-0.7-3.5l-2,0.4l-6.3-7.5
		l-0.4,2.5l-5.5-6.5l3.1-1.8l16.8-9.7l2.7,13.5l-0.8,0.2l0.7,3.5l0.9-0.2L336,349z"/>
	<path id="East_New_York__x28_Pennsylvania_Ave_x29_" class="st3" d="M336,349l-0.7-3.9l-0.9,0.2l-0.7-3.5l0.8-0.2l-2.7-13.5l3-1.6
		l0.6,3.4l5-1l0.8,4.4l1.6-0.3l1,5l-0.8,0.2l0.7,3.5l1.6-0.3l4.2-2.4l1.3,2.3l-12.5,7.1L336,349z"/>
	<path id="Kensington-Ocean_Parkway" class="st0" d="M273.1,361.7l2.4,11.2l-1.9,0.2l0.3,2.6l-5.4,3.4l-0.7-5.1l-2,0.2l-1.1-8
		l-2.2,1.2l-4.7-3.7l5.7-2.9l1.4-0.2l1.8-0.3l0.4,2.5l2.6-0.3l0.2,0.9L273.1,361.7z"/>
	<path id="Parkchester" class="st0" d="M369.5,146.5l-2.1,0.3l-1-8.1l-0.5-1.2l9.8-1.6l1.4,9.5L369.5,146.5z"/>
	<path id="Erasmus" class="st0" d="M292.8,370.6l-4.7,0.2l-3.5-4.9l-0.4-5.8l-0.5-3.1l8-0.5l-0.5-5.3l2.5-0.2l1,1.4l0.3,3.9
		l-0.8,0.1l0.7,8.6l-1.6,0.1l0.3,3.8L292.8,370.6z"/>
	<path id="Cambria_Heights" class="st0" d="M486.1,296.5l0.5,16.9l0.3,6l-1.2-0.4l-5.6-2.2l-3.5-1l-8.7-3.4l2.7-5l0.8-3l-2.2,0.1
		l-1.4-4l2.4-0.8l-0.7-2.3l3.8-1.3l0.6,0.8l5.7,0.2v-0.8L486.1,296.5z"/>
	<path id="East_Flatbush-Farragut" class="st1" d="M312.4,369l-0.3,2.8l-1.1,2.7l-8.6,0.7l0.2,2.7l-6.6,0.5l-0.7-8l-2.5,0.2l0.7-1.6
		l-0.3-3.8l1.6-0.1l-0.7-8.6l0.8-0.1l-0.3-3.9l-1-1.4L307,350l0.5,5.6l0.9,0l1.1,13.7L312.4,369z M301.3,358l-3.9,0.3l-0.4,0.9
		l0.8,4.5l8.7-0.6l-0.3-4.1l-4.6,0.2L301.3,358z"/>
	<path id="Ocean_Parkway_South" class="st0" d="M280,400.6l-1.7,0.2l0.5,3l-7.6,1.1l-0.9,0.1l-0.7-4.6l1.7-1.7l-0.5-2.7l-1.8,0.2
		l-2.1-1.1l2.1-4l-1-1.4l-0.6-4.5l0.9-0.1l4.6-0.7l0.4,2.8l1.2-0.2l0.4,2.8l3.4-0.5L280,400.6z"/>
	<path id="Starrett_City" class="st0" d="M353.8,370.3l-4.4-6.5l-1.9,0.5l-1.8-2.6l0-1.8l-2.5-1.6l0.6-2.2l6.8-3.9l5.3,9.6l1.3,0.7
		l-1.4,2.7L353.8,370.3z M345.1,361.3l-0.1-0.2l0,0l-0.1-0.1L345.1,361.3z"/>
	<path id="Morrisania-Melrose" class="st4" d="M337.5,145.2l0.6,0.9l-0.7,3.6l2.1-0.3l1.2,0.5l3,0l2,0.9l1.3,1.9l-1.5,1l-4.4,0
		l-1.7,0.6l-0.6-2.3l-3.8,0.6l-1.9,6l1.2,0.4l-0.6,1.9l-7.5-2.3l-1.7,0.4l-3.8-1.5l-0.5-1.1l1.2-1.6l1.7,1.1l1.9,0l-0.3-3.3l2.4-2.9
		l3,1.3l3.8-7.4L337.5,145.2z"/>
	<path id="Elmhurst" class="st0" d="M362.9,248.3l0.3,4.6l2.6,7.7l-0.5,0.6l-8.6,3.6l-4,1.9l-4.6,0.7l-1.9,0.7l-0.7-2.7l-0.4-5.1
		l4.3,0.8l3.7,1.9l1.9-0.8l-3-3.2l0.2-1.7l-0.8-0.9l3.4-0.8l-3.1-3.7l-4,1.9l-1.8-1.1l-0.4-2.8l-2.4,0.5l-0.9-4.3l19.5-2.7l0.7,1.8
		L362.9,248.3z"/>
	<path id="Glen_Oaks-Floral_Park-New_Hyde_Park" class="st0" d="M500.3,268.6l-0.2-3.7l-0.7-2.3l-2.9-6.2l-4.7-13.7l-2.1,1.1
		L489,242l-2.5,1.3l-1.2-0.4l-1.1,2.3l1.1-3.5l0.9-1.3l3.5-3.3l1.5-3.2l2.8-2.3l3.6-0.6l10.4,8.5l1.4,15.3l-1.8,3.3l-4.9,9.9
		L500.3,268.6z"/>
	<path id="Longwood" class="st0" d="M339.4,154.5l0,2.7l-0.8,1.5v1.9h2.7l-3.7,4.9l1.4,1.1l-1.6,2.1l-5,4.8l-1.2-2.8l2.8-9.5
		l0.6-1.9l-1.2-0.4l1.9-6l3.8-0.6L339.4,154.5z"/>
	<path id="Yorkville" class="st0" d="M296.9,204.5l-0.3,1.9l1.6,5.8l-0.8,1.8l-4,5.3l-8.5-4.8l7-12.6L296.9,204.5z"/>
	<path id="Upper_East_Side-Carnegie_Hill" class="st5" d="M291.9,201.9l-7,12.6l-8.1,14.7l-2.8-1.6l-2.8-1.6l15-27.3L291.9,201.9z"
		/>
	<path id="Windsor_Terrace" class="st0" d="M272.6,359.5l0.5,2.2l-3.3,1.7l-0.2-0.9l-2.6,0.3l-0.4-2.5l-1.8,0.3l-1.3-9.2l-5.8-4.6
		l1-1.3l1.9,1.6l2.5-3.6l1.8,1.1l4.3,2.8l0.9,1L272.6,359.5z"/>
	<path id="Hammels-Arverne-Edgemere" class="st0" d="M450,417.5l1.4-1.8l1.8-1.2l1,1.6l0.5,5l-1.4,0.2l0.6,3.6l-3.8,0.9l-6.8,0.4
		l-3.9,0.8l-3.7,1.4l-10.5,2.4l-6.7,1.7l-3.1,1l-4.9,0.6l-3.3,1.4l1.6-1.2l-2.1-4.7l-1.1-0.7l4.5-3l3.6-1.9l2.5-3.5l3.5,0.9l-1.8-3
		l1.9-2l7.4-0.6l2.6-1.1l3.2-3.2l-0.2,2.6l-2,1.9l-0.6,2.2l0.4,2.8l1.3-0.7l0-2.9l2.8-2.8l0.7-1.6l1.4-1l0.4-1.6l-0.7-1.2l3.1-4.1
		l1.6-1.4l2.8-0.1l1.1,1.2l-1.1,5.2l-0.6,1.7l-1.7,2.2l-1.7,0l-1.6,2.8l1.6,1.5l2.3-2l1-2.6l1.2-0.8l1,4L450,417.5z"/>
	<path id="Rikers_Island" class="st0" d="M358.6,201l-3,0.1l-1.7,0.6l-8.7-1.9l-1-0.9l-0.6-2.1l-1.8-0.9l-0.5-2.7l0.8-4.6l1.5-1.3
		l2.9-0.2l2.3,2.3l2.1,1.2l3.5,0.9l2.5,2.3l2.3,1.4l0.9,1.2l0.3,2.5L358.6,201z"/>
	<path id="Hunts_Point" class="st4" d="M348.5,158.3l1.7,4.2l1.3,1.2l2.6,2.4l1.2,0.5l4.3,2.8l3.1,7.5l-3.2,6l-1.5,0.8l-4-0.5
		l-0.1-1.6l-1.8-0.1l-4.2,0.7l-2.6-3.3l-3.5-1.6l-3.7,0.2l-4.1,1.6l-1.1-0.1l-0.7-5.6l5-4.8l1.6-2.1l-1.4-1.1l3.7-4.9h-2.7v-1.9
		l0.8-1.5l0-2.7l1.7-0.6l4.4,0l1.5-1l-0.7,5.8L348.5,158.3z"/>
	<path id="Old_Town-Dongan_Hills-South_Beach" class="st5" d="M190.9,427.7l-4.6,5.7l-1.4,2.4l-3.5,4.1l-4.4,4.2l-3.3,3.6l-6.9-4.8
		l-6.9-4.6l1.7-1.8l-5.9-5.4l2.8-3.3l1-1.7l0-2.8l0.9-1.5l6.2-4.1l0.8-2l2.2-2l6.1-1.1l0.7,3l-3,2.2l-0.9,1.7l1.8,0.5l1.8,3.9
		l2.8-1.3l-0.4-0.7l7.4-3.2l2.8,6.6L190.9,427.7z"/>
	<path id="Jackson_Heights" class="st5" d="M357.9,234.6l3.7,8.8l-19.5,2.7l-3.9-2.1l-1.3-4.7l-1.8-4.6l1-3.6l3.6-6.4l0.8-0.6
		l2.3,0.1l2.8-1.1l4.3-1.9l4-2.8l1.8-0.7l-0.2,2.9l1.2,9l-0.9-0.2l0.8,5.5L357.9,234.6z"/>
	<path id="Flatbush" class="st0" d="M283.6,357.1l0.5,3.1l0.4,5.8l3.5,4.9l4.7-0.2l2.5-0.2l0.7,8l-1.6,0.1l2,2.6l-2.8,0.4l-11,1.6
		l-0.4-2.8l-9.6,1.5l0.4,2.7l-4.6,0.7l-0.8-5.5l1-0.6l5.4-3.4l-0.3-2.6l1.9-0.2l-2.4-11.2l-0.5-2.2l5.8-3.1l-1.4-2.6l3.8-1.9
		l1.8-0.9L283.6,357.1z"/>
	<path id="Mott_Haven" class="st6" d="M333.8,161.2l-2.8,9.5l-5.7-1.6l-5.9-2.8L317,168l-0.7-1.9l-1.6-0.6L314,167l-2.3-0.8l1.3-2.2
		l3.5-4.1l3.8-3.3l0.5,1.1l3.8,1.5l1.7-0.4L333.8,161.2z"/>
	<path id="Ocean_Hill" class="st0" d="M331.4,323.9l3.5,2.7l-3,1.6l-16.8,9.7l1-13.6l4.7,0.3l-1.5-10L331.4,323.9z"/>
	<path id="Morningside_Heights" class="st0" d="M289.4,171.6l-1.3,2.2l-1.2-0.7l-2.8,5.2l-0.1,2.9l-1.2,2.2l1.3,0.6l-1.6,3
		l-11.2-6.1l3.8-6.6l3.8-7.7l1.8-2.7l2.2,1.3l2.8,4.1L289.4,171.6z"/>
	<path id="Soundview-Bruckner" class="st0" d="M369.5,146.5l2.6,1.1l0.9,6.4l-13.2,2.3l-1.8,0.3l-9.4,1.7l-0.2-2.3l0.8-3.8l5.6-0.5
		l12.8-4.9L369.5,146.5z"/>
	<path id="Allerton-Pelham_Gardens" class="st0" d="M375.4,100.3l4.4,1.9l11.2,7.7l6.5,4.8l0,0.1L396,116l-5.9,2.7l-8.5-1.6
		l-2.4-0.1l-6.4,0.7l-0.7-1.9l-0.4-3.9l-1.5-2.9h-1.8l0.2-6.7l4.2,0.1l0-3.5L375.4,100.3z"/>
	<path id="Bath_Beach" class="st0" d="M245.9,421.7l-1.4-2.2l-4.9-4.3l-3.3-2l-5.6-1.5l0.7-0.9l2.8-3.7l-1.4-0.9l4.6-5.8l1.1-1.4
		l8.4,6.1l-3.5,4.1l8.1,5.6L245.9,421.7z"/>
	<path id="Jamaica_Estates-Holliswood" class="st0" d="M460,269.8l1.5,2.4l-0.7,0.6l3,3.9l-4.3,2.5l-1-1.7l-6.4,3.6l-0.8-1.5
		l-4.6,2.2l-1.4,0.7l-11,3.5l-2.8,0l-3.2,1.5l-0.5-3.2l1.3-5l1.2-1.6l0.3-1l-0.1-4l-1.1-2.5l9.2-4l3.2-1.1l2,5.7l0.3,1.4l4.4-2
		l3.7-0.7l4.8,0.7L460,269.8z"/>
	<path id="Hollis" class="st0" d="M459.5,279.1l3.2,5.9l2.7,8.4L464,294l-7.8,2.7l-0.2-0.8l-4.3,1.5l-2.1-8.4l-2.1-0.6l1.2-2.1
		l-2.1-4.3l4.6-2.2l0.8,1.5l6.4-3.6L459.5,279.1z"/>
	<path id="Flatlands" class="st0" d="M318.7,378.1l1.4,18.2l-3.2,1.7l-5,0.3l0,1.6l-4.7-5.5l-1.3,1.1l-3.2-3.8l-3.4,2.9L297,395
		l-1.2,1.6l-0.8,0.8l-0.7-4.8l1.7-0.3l-0.7-5.5l-0.9,0.1l-0.8-5.5l2.8-0.4l-2-2.6l1.6-0.1l6.6-0.5l-0.2-2.7l8.6-0.7l1.1-2.7l0.3-2.8
		l0.3-2.7l1.6-0.1l0.2,3l3.1-3.3L318.7,378.1z"/>
	<path id="East_New_York" class="st3" d="M368.8,329.5l0.7,3.5l2.4-0.4l1.7,9l-2.4,0.5l0.7,3.8l-2.4,0.5l-2.4,1.6l0.4,0.8l0,2.2
		l1.5,0.5l1,1.3l0.7,1.7l1.7,2.3l-1.2,3.8l1.1,4.1l-5,1.3l-2.1,2.1l-1.8,1l-1.2-1.2l-1.2-3.6l-1-1.4l-1.8-0.1l0,1.7l2.8,4.7l0.5,2.2
		L359,373l-2.2-0.4l-1.9-2l-1.1-0.3l1.9-5l1.4-2.7l-1.3-0.7l-5.3-9.6l-6.8,3.9l-3.1-4.7l-3.5,2l1.5,1.8l-7.1,6l-4.8-5.6l0.8-0.7
		l1-0.8l-0.4-2l4.1-0.8l2.5-2.2l1.3-0.2l2.3-0.7l12.5-7.1l-1.3-2.3l-4.2,2.4l-1.6,0.3l-0.7-3.5l0.8-0.2l-1-5l-1.6,0.3l-0.8-4.4l-5,1
		l-0.6-3.4l3-1.9l0.3,1.4l5.6-1.1l4.5-1.9l-0.2-1l3.3-0.6l0.5,2.6l3.3-1.2l2,0.4l1.8,2.3l9.4,4.2L368.8,329.5z"/>
	<path id="Kingsbridge_Heights" class="st0" d="M329.6,100.3l1.4,1.1l0,2l1.8,2.1l2.4,0.1l0.7-1.3l2.1,1.3l-0.7,1.3l-3.2,5.4
		l-1.3,2.5l-0.9-0.4l-1.2,2.6l-2.5-1.1l-1.5,2.3l-1.2-1.3l-2.1-1l2.4-1.5l-0.3-0.9l-3-1l3.4-4.8l0.7-2.6l0.5-3.8l1.3-1.6
		L329.6,100.3z"/>
	<path id="Norwood" class="st0" d="M349.6,108l-0.5-0.8l1.9-1.5l-1-4.9l-0.7-1.4l-0.1-2.6l-1.8-3l-0.3-1.9l-1-2.3l0.1-2.1l2.3,1.3
		l2.8,0.6l2.7-4.9l0.5,2.7l-0.5,2.8l3,0.6l-0.1,1.7l4-0.1l-2,5.8l-2.3,4.2l-1.5,1.9L349.6,108z"/>
	<path id="Manhattanville" class="st3" d="M294.7,160.2l-2.5,7.2l-2.7,4.2l-3.6-2.3l-2.8-4.1l-2.2-1.3l3.6-5.4l-1.4-0.9l2.6,0.5
		l5,2.6l0.8-1.4l1.6,0L294.7,160.2z"/>
	<path id="Grasmere-Arrochar-Ft._Wadsworth" class="st0" d="M176.5,407.8l4.4,0.2l3.9,1.1l5.7,2.9l0.3-1.7l7.3-4.5l0.7,1.5l1.9,1
		l0.9,6.9l-3.8,4l-2.3,3.1l-2.1,2l-2.4,3.5l-2-2.3l-2.8-6.6l-7.4,3.2l0.4,0.7l-2.8,1.3l-1.8-3.9l-1.8-0.5l0.9-1.7l3-2.2l-0.7-3
		l-6.1,1.1l-2.2,2l-1-2.4l0.4-3.3l0-3.3l1.8-2.4l4.4,2.3L176.5,407.8z"/>
	<path id="Queens_Village" class="st1" d="M484.9,273.4l-1.9,1.2l1,3.4l2,9.6l0.1,8.9l-6.6-0.1v0.8l-5.7-0.2l-0.6-0.8l-3.8,1.3
		l0.7,2.3l-2.4,0.8l1.4,4l-2.1,0.8l-1.4-4l0.7-0.2l-2.4-7l1.4-0.5l-2.7-8.4l-3.2-5.9l4.3-2.5l-3-3.9l0.7-0.6l-1.5-2.4l3.3-1.7
		l2.1-1.8l3.3-3.7l1,2.1l12.3,3.7l1.4,4.8L484.9,273.4z"/>
	<path id="Springfield_Gardens_North" class="st0" d="M456.8,328.6l1.5,2.9l1.9,0.2l-0.1,3.2l-1,3.6l-12.1-1.7l-3.3,0l-12.3,1.3
		l1.2-7.1l2,0.7l1.4-3l5.7-5.2l2.7-1.2l9.5,7.7L456.8,328.6z"/>
	<path id="Canarsie" class="st3" d="M343.1,358.4l-0.3,0.7l2.1,1.8l0.1,0.1l0.4,0.3v0.5l1.1,2l2.7,2.3l5.7,7.5l-2.8,3.4l-2.3,1.5
		l-0.8,2.4l1.2,1.5l-0.9,0.8l-1.3-1.5l-2,0.5l-2.7,2.4l-0.9,2.1l-1.3,1.3l-2.4,1L337,388l-5.7-3.3l-10.6-6.6l-0.7,0.3l-1.3-0.4
		l-1-12.3l-0.1-2.2l9.2-7.8l4.8,5.6l7.1-6l-1.5-1.8l3.5-2l3.1,4.7L343.1,358.4z"/>
	<path id="West_Village" class="st0" d="M256.5,260.3l-0.5,4.5l-1.9,7.4l-3.6-1.5l-5.3-3.4l-6.8-0.9l-0.7,1l-2.6-0.2l0.4-2.5
		l2.4,0.2l0.7-10.1l1.1-3.7l0.8,0.3L256.5,260.3z"/>
	<path id="East_Village" class="st0" d="M262.9,263.9l3.9,2.2l-5,9.1l-7.7-3l1.9-7.4l0.5-4.5L262.9,263.9z"/>
	<path id="Chinatown" class="st0" d="M261.7,275.3l-1.1,2.8l-1.5-0.6l-1.4,3.6l-1.6,2.1l-2.1,0.3l0.6,5.6l-4.7,0.9l-1.7,0.9
		l-3.5-3.8l-2.5-0.8l2.9-2.8l2.4-4.1l3.4,2l1.8-4.7l1.2-4.3L261.7,275.3z"/>
	<path id="Pelham_Bay-Country_Club-City_Island" class="st0" d="M408.1,143.2l-6.7,2l-1.4-1.1l-0.3-2.1l-0.4-6.9l0.9,0.3l0.2-3.9
		l3.9-2.8l0.3,0.5l4.3-1.2l-0.9,3l1.7,0.5l0.7,2.7l-1.7,1.6l0.5,3.7l-1.4,1.5L408.1,143.2z M390,134.8l0.7-3.1l0.5-6.8l1-2.5
		l2.7-1.5l2.4-0.3l1.2,2.9l-0.7,5.3l1.6,3.8l-3.7,1.8L390,134.8z M430.7,117.2l1.1,0.1l0.9,5.8l1.8,2l2,0.5l-0.6,1.5l2.3,1.7
		l0.1,1.3l-1.4,2.2l-0.3,2.1l1.8,3.4l-0.4,3.6l-2.1,1l-1.1-1.3l-0.3-1.8l-1.3-1.3l-1.9-4.6l-1.7-2.6l0.1-1.7l1.4-1.5l-0.3-3.1
		l-1.7-4.4L430.7,117.2z M450.2,122l-1.4,2.2l0.7,2l-0.8,3.7l1.3,2.2l-0.8,0.6L447,130l0.6-2.6l-1.4-2.2l0.3-3.1l-0.1-6.4l1.2-0.1
		l2.2,2v0.8l2.6,3L450.2,122z"/>
	<path id="Woodlawn-Wakefield" class="st0" d="M389.6,76.4l1.6,5.6l-3.9,0.5l-6.2,1.2l1-2.3l-10-4.3l0.3-0.9l-3.2-1.3l-0.6,0.8
		l-3.1-1.3l-4.9-1.1l-5.8,1.4l2.1-3.5l4.1-2.6l2-2.6l7.3,2.9l3-5.6l-0.8-0.8l3-1.8l2.2,1.1l0.7-1.1l4.7,2.2l-0.1,1.6l3.1,0l0.8,3.7
		l1,1.8l-0.4,2.4l1.1,3.8L389.6,76.4z"/>
	<path id="Old_Astoria" class="st1" d="M310.2,211.4l3.7,2.7l5.5,4.8l-0.4,0.4l-1.6,1.9l1.3,0.8l-1.1,1.8l-2.1-1.2l-1.8,2.9l-8-4.7
		l-1.3,2.1l-1.1-0.8l1.3-2.7l0.1-1.4l-2.6-1.6l-0.1-2.9l2.2-3.3l2.9,0.1l1.6,1.9L310.2,211.4z"/>
	<path id="Astoria" class="st1" d="M333.1,222.4l-1.4,1.8l-3.7,6.1l1.3,0.8l-1,2.1l-1.5,4.6l-1.3,1.2l-6.1-1l-7,2l1.3-2.1l-11-6.8
		l2.4-3.4l-2.6-1.7l0.9-1.9l-2.3-1.1l2.1-1l1.1,0.8l1.3-2.1l8,4.7l1.8-2.9l2.1,1.2l1.1-1.8l-1.3-0.8l1.6-1.9L333.1,222.4z"/>
	<path id="Stuyvesant_Town-Cooper_Village" class="st0" d="M270,259.3l0.8,4.7l1.8,2.9l-0.2,2.4l-5.7-3.3l-3.9-2.2l3.5-6.3
		L270,259.3z"/>
	<path id="Dyker_Heights" class="st0" d="M241.5,378.1l4.4,3.5l-0.5,0.7l4.6,3.6l-1.8,0.8l-9.8,12.3l-1.1,1.4l-8.3-6.6l-2.9,9.5
		l-2.2,0l0.6-2.5l-1-0.6l2-4.3l4.5-6.6l1.2-2.2l3.2-10.2l4.5,3.5L241.5,378.1z"/>
	<path id="Bensonhurst_West" class="st1" d="M265.4,397.1l-8.2,10.4l2,1.6l-8.6,10.8l1.2,1.5l-2.7,1l-2.3,1.1l-0.8-1.8l5.6-7
		l-8.1-5.6l3.5-4.1l-8.4-6.1l9.8-12.3l1.8-0.8l0.4-1.7l9.7,7.6l-0.5,0.7L265.4,397.1z"/>
	<path id="West_New_Brighton-New_Brighton-St._George" class="st5" d="M184.3,371.4l-3.7,0.2l-1.7-0.6l-4.3,2.9l-1.9-1.1l-0.8,1
		l-1.6-1.2l-1.4,1.6l-1.8-0.1l-0.9-1.2l-0.6-3.1l-3.2,0.3l-0.2-1.6l-1.7,0.2l-8.6,2.6l-4.6,0.6l-0.1-1.2l-2.2,0.3l1.4,10.8l2.5,6.5
		l-3.9-2l-3.9-3.1l-7.9,1.3l1-4.2l-0.3-1.1l1.3-3.9l0.3-3.5l1.5,0.1l-0.1-2.4l0.8-1.1h0l1.6,0.1l1.3-1.4l0,0l0.7,0h0h0l0.3-0.1l0,0
		h0v0h0l0,0l3.1-0.3l1.8-0.9l4.1-3.1l1.8-0.6l5-0.1l2.6,0.7l4.8-0.6l8.3-3.9l2.3,0.7l3.1,0.2l2.2,1.4l1.8,2.2l2.1,0.7l0.5,1.8
		l-1.5,0.7l0.1,4.1L184.3,371.4z"/>
	<path id="New_Brighton-Silver_Lake" class="st0" d="M174.6,373.9l-1.8,2.1l-3.2,4.8l-2.5,4.7l-9.9,10.7l-2.2-3l-4.3-2.5l-2-2.1
		l-2.5-6.5l-1.4-10.8l2.2-0.3l0.1,1.2l4.6-0.6l8.6-2.6l1.7-0.2l0.2,1.6l3.2-0.3l0.6,3.1l0.9,1.2l1.8,0.1l1.4-1.6l1.6,1.2l0.8-1
		L174.6,373.9z"/>
	<path id="Westerleigh" class="st0" d="M133.8,379.5l0.3,1.1l-1,4.2l7.9-1.3l3.9,3.1l3.9,2l2,2.1l4.3,2.5l2.2,3l1.3,2l2.4,2.5
		l1.4,2.1l-9.7,0.4l-4.6-1.1l-2.2,0.2l-4,1.5l-4.7,1.3l-4.7,0.5l-0.8-0.4l-8.5,0.6l-3.3-0.4l-2.5-1.4l2.2-0.6l0.8-7.9l5.4,0.8
		l1.3-6.3l0.1-2.9l2.1-0.9l-2-2.3l4.1-2.3L133.8,379.5z"/>
	<path id="University_Heights-Morris_Heights" class="st2" d="M330.6,117.1l-0.6,3.3l-4.4,6.5l-3.1,5.7l-2.5,0.1h-0.2l-6.5,0.4
		l-2.9-0.7l3.2-5.4l0.8-1.9l3.9-6.5l1.6-1.8l2.6-4.1l3,1l0.3,0.9l-2.4,1.5l2.1,1l1.2,1.3l1.5-2.3L330.6,117.1z"/>
	<path id="Bayside-Bayside_Hills" class="st1" d="M450.3,209.3l0.7,2.4l1.6,3.4l5.6,6.5l0.1,1l2.8,1.1l1.4,1.2l-1.6,0.7l-3.1,0.4
		l1.2,2l-0.1,2.5l-3.8,1l0.6,2.6l-0.1,1.9l1.6,3.1l2.8,4.1l-3.4,1.8l-6.1,2.3l-3.4,1.9l-3.6,0.9l-4.2-11.5l-1.4-2.3l-2.2-5.7
		l-0.7-2.6l-2.3-1.9l-4.5-7.2l-2.1-3l6.4-2.3l10.8-4.1l0.3,1.8l6.1-2.4L450.3,209.3z"/>
	<path id="East_Concourse-Concourse_Village" class="st0" d="M326.5,135.5l1.3,6.5l2.2-3.1l-0.3,1.5l-3.9,9l1.3,0.6l-2.4,2.9
		l0.3,3.3l-1.9,0l-1.7-1.1l-1.2,1.6l-3.8,3.3l-3.5,4.1l-1.8-0.6l1.9-3.8l0.7-2.4l3.9-9.2l5.3-7.7l1.7-5.3L326.5,135.5z"/>
	<path id="North_Corona" class="st0" d="M374.6,232.9l1.2,3.7l-2.3,0.7l1.1,2.9l-1.1,0.4l1.2,3.2l-11.8,4.5l-0.6-3.1l-0.7-1.8
		l-3.7-8.8l6.9-1l6.2-0.3L374.6,232.9z"/>
	<path id="Kew_Gardens_Hills" class="st0" d="M409.1,255.6l0.2,1.7l-0.3,10l3.8,2.6l-0.4-1.9l3.4-0.5l0.6,3.9l1.4-0.2l0.3,4
		l-3.9,1.9l1.1,4.6l-8.2,0l-2.6-1.1l-2.8-0.8l-1.7,0.2l-0.1-2.2l-1.5-6l-3.2-2.6l-2.6-4.4l7.2-2l0.7-8.5l6.8,1.4L409.1,255.6z"/>
	<path id="Pomonok-Flushing_Heights-Hillcrest" class="st1" d="M425.3,255.9l1.6,3.7l0.7,5l1.8,5.7l1.1,2.5l0.1,4l-0.3,1l-2.1,0.3
		l-6.8,2.7l-6,0.8l-1.1-4.6l3.9-1.9l-0.3-4l-1.4,0.2l-0.6-3.9l-3.4,0.5l0.4,1.9l-3.8-2.6l0.3-10l-0.2-1.7l1.5-0.1l11.5,0.5
		L425.3,255.9z"/>
	<path id="North_Side-South_Side" class="st0" d="M284.2,271.9l2.9,2.2l2.7-1.2l0.9,2.1l1.4-1l0.6,4.7l1-0.1l-3.4,2.9l-2.1,2.3h3.6
		l0.6,5l-1.9,0.3l0.6,4.6l-1.5-1l-5.2-2.4l-0.5,1.4l-4.3-0.5l-4.4,1.1l-0.8-0.3l-0.6-2.6l1-4.5l1.9-5.5h0l0.6-0.9l1.3-1.8l0-0.1
		l0.2-0.4l0.1-0.2l1.7-3.4l0-0.1l0.7-1.4L284.2,271.9z"/>
	<path id="Lower_East_Side" class="st5" d="M254.7,289l-0.6-5.6l2.1-0.3l1.6-2.1l1.4-3.6l1.5,0.6l1.1-2.8l5-9.1l5.7,3.3l-1.7,9
		l-2.7,8.1l-1.2,1.3l-2.9,0.9l-6.3,0.8l-0.3-0.9L254.7,289z"/>
	<path id="Greenpoint" class="st0" d="M306.8,267.6l-3.9,3.8l-9.2,7.2l-1,0.1l-0.6-4.7l-1.4,1l-0.9-2.1l-2.7,1.2l-2.9-2.2l-0.2-1.2
		l-2.8-0.5l0.6-3.1l-1.1-5l0-0.2l0.2-1.6l1.9-2.8l2.5-2.1l2.6-0.3l3.4,1l6.9,3.2l1.1,1.5l1.2,3.6l2.6,2.2L306.8,267.6z"/>
	<path id="Spuyten_Duyvil-Kingsbridge" class="st0" d="M336.8,80.7l-1.6,4.3l2.7,0.6l-1.3,1.4l-4.9,7.3l-2.1,6l-1.2-0.3l0.6-3.5
		l-2.3-2.6l-1.7-0.3l-0.5,1.1l-3.3,2.7l-2.9-0.3l-2.6-2.9l-1.4-0.4h0l-0.2-1.6l2.8-7.9l1.6,0.3l0,1.5l3.4,1.1l1.6-1.8l1.2-2.3
		l2.4-1.5l1.4,1.9l2.8,0.8l1.1-2.3l1.8,0.2L336.8,80.7z"/>
	<path id="Sunset_Park_East" class="st1" d="M257.2,364.3l-5.7,5l-3.2-2.6l-7.1,9.1l1.5,1.3l-1.3,1.1l-2.6,2.3l-4.5-3.5l-1.4-2.5
		l2.5-3.2l-2-1.5l12.2-15.5l3.8,3l-0.5,0.7L257.2,364.3z"/>
	<path id="Marble_Hill-Inwood" class="st0" d="M315.7,119.2l-0.8-2.3l-1.6-3.1l-2.2-4.5l-1.3-1.4l2.2-2l4.3-1.2l1.8-1.7l0.7-2.3
		l3.8,2.1l2.2-2.4l1,2.2l-0.6,2.7l-2.5,4.9l-1.6,0.4l0.2,1.6l-1.7,1.6l-1.9,3.2L315.7,119.2z M328.4,100l-1.3,1.6l-2.1-2.5l-3.9-1.6
		l3.3-2.7l0.5-1.1l1.7,0.3l2.3,2.6L328.4,100z"/>
	<path id="Washington_Heights_North" class="st2" d="M309.8,107.8l1.3,1.4l2.2,4.5l-0.5,1.7l-1.2,1.3l1.7,2.7l-2.6,4.8l0.2,2l-2,3
		l-1.4,0.8l-4.3-2.5l0.5-0.7l-3.5-1.3l-2.7,0.1l-0.3,1.6l-3.3-0.8l3-2l1.5-2.1l1.2-2.8l5.5-9.8l1.5-3.1l0.1-2.5L309.8,107.8z"/>
	<path id="Steinway" class="st0" d="M342,213.8l1.5,1.5l0.5,0.1l0.6,5.3l0.9,2.5l-2.8,1.1l-2.3-0.1l-7.5-1.7l-14-3.1l0.4-0.4
		l-5.5-4.8l0.2-2.3l5-5.4l-1.7-1.6l2.8-2.9l3.7-4.8l2.4-1.8l8.4,2.2l2.9,2.8l1,1.7l-2.6,2.8l2.3-0.4l2,0.9l1.9,1.8l-0.8,1.3l1.2,1.3
		l-1.2,1.4l1,1.2L342,213.8z"/>
	<path id="Mott_Haven-Port_Morris" class="st6" d="M336.4,182l1.6,1.9l-1.9,2l-1-0.5l0.3-2.8L336.4,182z M331,170.7l1.2,2.8l0.7,5.6
		l-4,4.7l-1.3,2.2l-2.5,2.4l-2.3,0.1l-5.7-3.2l-0.9-1.9l-2-1.5l-2.7,0.1l-1.8-1.9l-3.1-4.9l-0.6-2.4l0.4-4.3l1.9,1l1.2-1.9l1.4-4.2
		l1.8,0.6l-1.3,2.2l2.3,0.8l0.8-1.5l1.6,0.6l0.7,1.9l2.4-1.7l5.9,2.8L331,170.7z"/>
	<path id="Central_Harlem_North-Polo_Grounds" class="st4" d="M305.4,162.3l-0.6,2.7l-4,7.3l2.8,1.6l-2.4,4.3l-2.8-1.6l-9-5l2.7-4.2
		l2.5-7.2l0.8,0.5l1.9-2.7l3.2-5.8l0.5-1.7l-1.3-0.7l1.4-2.9l3.7-3.8l-0.5,1.1l-0.2,3.3l0.5,4.9L305.4,162.3z"/>
	<path id="Queensbridge-Ravenswood-Long_Island_City" class="st0" d="M304.8,218l-0.1,1.4l-1.3,2.7l-2.1,1l2.3,1.1l-0.9,1.9l2.6,1.7
		l-2.4,3.4l11,6.8l-1.3,2.1l-5.7,0.2l-1.4,0.4l-2.6,2.9l-12.3-7.1l6.4-10.7l1.9-2.8l2.8-2.1l2.9-1.5L304.8,218z"/>
	<path id="Cypress_Hills-City_Line" class="st0" d="M366.9,323.8l0.9,0.2l0.9,4.8l0.2,0.8l-0.6,0.1l-9.4-4.2l-1.8-2.3l-2-0.4
		l-3.3,1.2l-0.5-2.6l-3.3,0.6l0.2,1l-4.5,1.9l-5.6,1.1l-0.3-1.4l-3,1.9l-3.5-2.7l1.3-1.7l1.8,1.3l2.8-0.8l0.7-2.4l2.1-3.4l1.4,2.1
		l2.5-1l1.3,1.9l11.1-7l3.3-1.8l3.2-1l1.3,6.8l0.5,3.8l1.7-0.5L366.9,323.8z"/>
	<path id="New_Dorp-Midland_Beach" class="st0" d="M173.7,447.8l-3.2,3.7l-2.5,2l-2.5,4l-1.8,0.4l-1.8,3.2l-1.5,0.9l-2.9-1.7l-6-4.3
		l-3.2-2.5l-2.3,3l-7.5-5.8l3-3.3l0-3.8l2.7-1.7l1.1-1.6l1.6-0.6l1.5-1.9l3.9-2.8l3.5-3.7l5.9,5.4l-1.7,1.8l6.9,4.6L173.7,447.8z"/>
	<path id="Van_Cortlandt_Village" class="st0" d="M346.2,87.5l-0.1,2.1l1,2.3l0.3,1.9l-1.9,2.1l-1.4,4.2l0.9,1.9l-2.5,1.9l-2.8,4.5
		l-2.7-1.6l0.7-1.3l-2.1-1.3l-0.7,1.3l-2.4-0.1l-1.8-2.1l0-2l-1.4-1.1l2.1-6l4.9-7.3l1.3-1.4l7.8,2L346.2,87.5z"/>
	<path id="Co-op_City" class="st0" d="M404.5,86.1l0.3,4l-3,10.4l1.8,4.6l4.8,3.9l-0.9,1.7l-3.1,3.8l-5.7,2.3l-1.2-2.1l-1-1.5
		l-3.1-7l-2.2,0.9l-2.3-6.3l0.7-0.3l-1.6-3.9l1-0.4l-4.4-2.5l2.4-1.8l3-1.5l2.3-2.2l3.5-1.3l5.7-3.3l2.7,1.2L404.5,86.1z"/>
	<path id="Bay_Ridge" class="st1" d="M219.1,364.7l5.6,4.2l1.3,2.2l1.9-2.7l2,3.3l3.1,2.5l1.4,2.5l-3.2,10.2l-1.2,2.2l-4.5,6.6
		l-2,4.3l1,0.6l-0.6,2.5l2.2,0l0.2,0.9l2.4,1.8l-0.8,1.3l1.5,1.2l-0.4,1.5l2.2,0.9l-0.7,0.9l-1.2-0.8l-7.4-1.2l-2.4-1.5l-3.5-3.9
		l-0.5-1.8l-2.2-3l-1-2.1l-1-5.9l-0.3-4l0.4-4.8l0.7-3.3l3.5-9.5l0.9-1.7l-0.9-1.2l2.3-3.1L219.1,364.7z"/>
	<path id="Sunset_Park_West" class="st1" d="M258.8,345.6l-1,1.3l-1.5,1.9l-2.4-0.8l-2-1.6l-6.1,7.7l-12.2,15.5l2,1.5l-2.5,3.2
		l-3.1-2.5l-2-3.3l-1.9,2.7l-1.3-2.2l-5.6-4.2l1.9-1.7l2,1.4l3.1-4.1l-0.6-3.4l3-1.8l0.7-2.3l2.8,0.2l3-4.1l-2.6-2.1l1.6-1.5
		l3.3,2.1l0.7-0.9l-2.5-2.1l1.1-0.5l3.6,2.8l1-1.2l-2.6-2.1l1.5-1.1l2.2,1.7l0.2-2l0.9-1.7l3.3,2.5l1.4-1.7l-2.9-2.4l3.3-2.1
		l0.4-3.8l0.1-0.2l3.3,5.8l-1.8,2.8l5.5,4.3l1.7-2.1L258.8,345.6z"/>
	<path id="SoHo-TriBeCa-Civic_Center-Little_Italy" class="st0" d="M254.1,272.2l-1.2,4.3l-1.8,4.7l-3.4-2l-2.4,4.1l-2.9,2.8l-2,0.7
		l-4.7-2.7l1.2-6.2l-0.6-0.1l1.4-10.5l0.7-1l6.8,0.9l5.3,3.4L254.1,272.2z"/>
	<path id="Battery_Park_City-Lower_Manhattan" class="st0" d="M250.5,299l-1.3-0.7l1.7-2.1l0.9,0.4L250.5,299z M242.3,286.2l2.5,0.8
		l3.5,3.8l-1.7,1.3l-0.2,2.2l-1.6-0.9l-5.2,4.3l-1.6,0.5l-1.1,1.5l-1.3-0.9l-0.3-4l-2.1-0.4l-0.7,0.7l-1.5-2.1l1.4-7.2l0.9-7.2
		l3,0.4l0.1-1l0.6,0.1l-1.2,6.2l4.7,2.7L242.3,286.2z"/>
	<path id="Clinton" class="st0" d="M253,216l0,0.7l10,5.6l-8,14.6l-5-2.8l1.5-2.9l-4.9-2.7l-0.4-0.8l2.1-1.8l2.4-4.5l-0.1-1.6
		L253,216z"/>
	<path id="Baisley_Park" class="st0" d="M444.3,322.5l-2.7,1.2l-5.7,5.2l-1.4,3l-2-0.7l-1.2,7.1l-6.8-0.1l-1.8,0.5l-2.1-0.3l0.4-3.5
		l-0.3-4.5l-3.8-10.6l5.9-2.2l-0.9-2.3l3.8-2l1.5,2.7l3-1.7l3-1l3.3-1.6l1.5,1.5l1.5,3.8l2.3-1.1l0.7,1.3l2.6,2l0.9,2.1L444.3,322.5
		z"/>
	<path id="South_Jamaica" class="st0" d="M444.9,300.2l-3.4,6.3l-2.1,1.5l2.1,3.5l-1.7,0.7l-0.8-2l-2.1,1.2l-3.3,1.6l-3,1l-3,1.7
		l-1.5-2.7l-3.8,2l0.9,2.3l-5.9,2.2l-4.3-10.4l1.5-0.7l2.2,1.9l7.5-8.2l3.7-2l2.1-2.9l1.7-1.1l5.7-2.6h2L444.9,300.2z"/>
	<path id="Ozone_Park" class="st0" d="M387.2,321.7l1.7,5.2l4.2,11.3l-5.1-1.7l-15-5.9l-4.3-1.9l-0.9-4.8l-0.9-0.2l4-1.5l0.5,1.4
		l3.7-0.3l2.6-1l-0.8-2.3l3.6,1.2l5.8-2.1L387.2,321.7z"/>
	<path id="Georgetown-Marine_Park-Bergen_Beach-Mill_Basin" class="st0" d="M319.9,378.5l1.5,2l11.1,6.7l1.7,3l2.5-0.2l1.3,0.5
		l0.7,1.8l-0.9,3.1l1,3.1l2.6,0.7l2.5,2.6l-0.4,1.3l-1.9,1.5l-0.4,2.3l-2.7,1.5l-2.1,0.6l-1.4-0.4l-0.9-1.5l0.6-3.4l-1.6-2.2
		l-5.5-6.5l-1.1,1.2l2,1.8l4.3,5l0.4,5.5l-2.9,0.9l-0.5-1.6l-3.5,0.1l1.3,2.4l-2.3,0.7l-2.3-0.5l-2.8-3.4l0.6-4.1l1.4-1.3l-0.4-2.7
		l-1.5,0.6l0.8,1.8l-2.1,1.8v1.7l-1.3,1.2l1.4,1.7l-1.5-1.3l-1.6-0.4l-2.5,2.1l-1.6-1.8l-3.2,2.7l-3.1-3.8l-2.2-1.3l-1.3,1.1
		l-1.5-1.8l-2.6,2.1l-1.1-1.2l-1.1-7.7l1.2-1.6l2.4-0.4l3.4-2.9l3.2,3.8l1.3-1.1l4.7,5.5l0-1.6l5-0.3l3.2-1.7l-1.4-18.2L319.9,378.5
		z"/>
	<path id="Brighton_Beach" class="st0" d="M282.2,429.6l0.3,4.6l3.1,0.7l2-0.5l1.5,10.2l-2.4-0.1l-3.7,0.5l0-1.5l-4.6,0.5l-3.6-0.6
		l2-10.7l1.3-7.5l3.9-0.5L282.2,429.6z"/>
	<path id="Bensonhurst_East" class="st1" d="M269.6,400.5l0.7,4.6l0.9-0.1l0.7,5.3l-0.7,5.6l1.3,2.5l-7.8,1.1l0.4,2.5l-3.6,0.5
		l-1.7-1l-3.2,4l-0.7-0.5l-2.6,2.1l-0.4-0.9l-3.6,2.2l-1-3.1l0.7-2.7l2.7-1l-1.2-1.5l8.6-10.8l-2-1.6l8.2-10.4L269.6,400.5z"/>
	<path id="West_Farms-Bronx_River" class="st0" d="M367.4,146.8l-12.8,4.9l-5.6,0.5l-0.1-1.8l3.4-5.7l5.3-3l1.1-2.8l3.1,0.1l4.1-1.7
		l0.5,1.2L367.4,146.8z"/>
	<path id="Sheepshead_Bay-Gerritsen_Beach-Manhattan_Beach" class="st1" d="M319.1,430.5l-2.5,0.9l-3.3,0.1l-2-2l-0.7-1.5l-2-0.9
		l-0.4-1l0.7-3.2l-0.7-1.6l-2-0.4l1.1,2.7l0.3,3.4l1.3,2.2l3.4,3.1l-1.1,0.1l-3.7-1.4l1.1,1.8l-1.7,0.2l0.1,1.4l-12.7-0.6l-6.2,0.7
		l0.1,1.1l3.2-0.3l6,1.5l8.6-0.1l0.4,0.2l1.2,5.4l-0.4,0.7l-9.6,0.3l-8.6,1.3l-1.5-10.2l-2,0.5l-3.1-0.7l-0.3-4.6l3.6-0.5l-0.7-4.9
		l0.7-0.1l-0.7-5.2l12.6-1.8l-0.4-2.4l7.3-1.1l0.2-1.2l0.7-0.5l4.7,5.6l-1.2,1.1L319.1,430.5z"/>
	<path id="Homecrest" class="st0" d="M283.8,403.1l1.5,10.7l-0.8,0.1l0.7,5l0.7,5.2l-0.7,0.1l0.7,4.9l-3.6,0.5l-0.3-4.9l-3.9,0.5
		l-5.2,0.8l-0.7-4.5l0.4-3.2l-1.3-2.5l0.7-5.6l-0.7-5.3l7.6-1.1l-0.5-3l1.7-0.2l0.4,3L283.8,403.1z"/>
	<path id="West_Brighton" class="st0" d="M274.8,443.4l-3.6-0.9l-0.5,1.5l-3.8-0.7l-2.9-0.1l-0.6-4.2l6.1-0.9l0.3-3.7l7-1.6
		L274.8,443.4z"/>
	<path id="Westchester-Unionport" class="st0" d="M387.8,137.7l-0.3,1.5l0.1,4.4h0l-0.1,0.1l0.2,1.2l-0.3,1.4L385,149l-0.2,2.8
		l-0.9,0.2l0.9,5l-10.6,1.9l-1.1-5l-0.9-6.4l-2.6-1.1l7.5-1.1l-1.4-9.5l2.4-0.4l5.2,4.9l2.2-2.4L387.8,137.7z"/>
	<path id="Oakwood-Oakwood_Beach" class="st0" d="M141.6,443.6l0,3.8l-3,3.3l7.5,5.8l2.3-3l3.2,2.5l6,4.3l2.9,1.7l-1.7,3.3l-1.1,0.4
		l-1.7,3l-2-1l-2.6,3.1l-2.1,4.2l-0.6-0.2l-1.4-1.7l-1.4,0.5l-2.5-3.6l-6.8-5.8l-2.7,3.3l-2.4,2.3l-5-5.2l2.7-2.2l0.8-2.2l2.7-4.3
		l-2.8-1l-4.6-3l-3.6-2l0.2-2.7l9.1-1.4l5.4-2.2l0.5-1.3l3.4,0.7L141.6,443.6z"/>
	<path id="Fort_Greene" class="st0" d="M274.4,304.5l0.5,3.4H274l0.6,4.2h-0.8l1.2,8.6l-4.4-1.2l-3.2-1.1l-0.6-1l-2.6-4.7l-1-2.7
		l0.3-2l2.2-0.6l-0.8-1.4l-0.4-4.1l9.5,0.5L274.4,304.5z"/>
	<path id="Grymes_Hill-Clifton-Fox_Hills" class="st0" d="M176.5,407.8l-3.4-0.8l-4.4-2.3l-2.3-1.2l-4.1-0.6l-1.4-2.1l-2.4-2.5
		l-1.3-2l9.9-10.7l2.5-4.7l3.2-4.8l0.7,0.3l4.5,5.4l-1.1,1.9l-1.8,0l-1.7,3.1l-1.4,8.6l-1.1,2.1l0.5,2.3l6.3-6l6.5-4.5l1.2,2.6
		l-0.9,1.9l-2.1,1.8l-4.2,9.1L176.5,407.8z"/>
	<path id="Stapleton-Rosebank" class="st0" d="M184.3,371.4l-0.7,1.2l0.5,3.7l-0.4,1.8l1,8.6l1.9,3.6l5.4,5.3l2.1,2.9l1,2.9l3,4.4
		l-7.3,4.5l-0.3,1.7l-5.7-2.9l-3.9-1.1l-4.4-0.2l1.9-3.2l4.2-9.1l2.1-1.8l0.9-1.9l-1.2-2.6l-6.5,4.5l-6.3,6l-0.5-2.3l1.1-2.1
		l1.4-8.6l1.7-3.1l1.8,0l1.1-1.9l-4.5-5.4l-0.7-0.3l1.8-2.1l4.3-2.9l1.7,0.6L184.3,371.4z"/>
	<path id="Prospect_Heights" class="st0" d="M275,320.7l6.4,1.7l-1.6,5.7l2.8,0.7l-1.1,4l-1.1-0.3l-4-1.5l-1.6,0l-0.5-3.5l-2.1-0.6
		l-3.7-1.9l1.4-3.1l0.6-2.7L275,320.7z"/>
	<path id="Park_Slope-Gowanus" class="st1" d="M270.5,319.5l-0.6,2.7l-1.4,3.1l3.7,1.9l2.1,0.6l0.5,3.5l-1.3,0.3l-1.2,2.3l-6.8,10.7
		l-0.4,0.1l-1.8-1.1l-2.5,3.6l-1.9-1.6l-1.3-2.3l-1.7,2.1l-5.5-4.3l1.8-2.8l-3.3-5.8l2.9-4.5l1-0.5l2.9,0.4l2.7-5.8l1.4-0.2l3.8,2
		l3.2-6.4l0.6,1L270.5,319.5z"/>
	<path id="Crown_Heights_North" class="st7" d="M316,324.3l-1,13.6l-3.1,1.8l-2.1,1.2v-0.7l-7.2-0.5l0.2-3l-9.7-0.7l0.1-1.1
		l-6.6-0.4l-5.3-1.5l1.1-4l-2.8-0.7l1.6-5.7l4.7,1.3l2.2-1.5l11.4,0.9l5.2,0.4l-0.5-3.7l5.1-0.8l0.1,0.9l5.4-0.8L316,324.3z"/>
	<path id="Fresh_Meadows-Utopia" class="st0" d="M441.8,265.3l-3.2,1.1l-9.2,4l-1.8-5.7l-0.7-5l-1.6-3.7l13.2-4.7l4.8-1.1l3,9.4
		l1.9,3.8L441.8,265.3z"/>
	<path id="Bellerose" class="st0" d="M500.3,268.6l-4.7,0.8l-8.5,2.8l-2.1,1.1l-1.5-0.2l-1.4-4.8l-12.3-3.7l-1-2.1l3.3-3.5l2.4-3.5
		l1.8-2.2l3.9-2.8l2.7-3l1.4-2.6l1.1-2.3l1.2,0.4l2.5-1.3l0.7,1.8l2.1-1.1l4.7,13.7l2.9,6.2l0.7,2.3L500.3,268.6z"/>
	<path id="Stuyvesant_Heights" class="st0" d="M319.1,314.7l1.5,10l-4.7-0.3l-1-5.2l-5.4,0.8l-0.1-0.9l-5.1,0.8l0.5,3.7l-5.2-0.4
		l-3.1-21.1l4.7-0.7L319.1,314.7z"/>
	<path id="East_Williamsburg" class="st0" d="M313.9,283.8L313.9,283.8l1.6,1.5l0.6,2l-0.3,1.9l-9.1,1.9l-2.2-6.5l-5.1,1.6l0.2,0.8
		l-2.9,0.3l0.9,7.4l1.5-0.2l0.5,4.1l-1.3,0.4l-4.5-3.4l-2.8-2.1l-0.6-4.6l1.9-0.3l-0.6-5h-3.6l2.1-2.3l3.4-2.9l9.2-7.2l3.9-3.8
		l2.4,0.7l1.4,1.9l0,1.1l1.9,5.6l0.9,0.4l-0.3,2l1.6,1.8l-1.6,1.3L313.9,283.8z"/>
	<path id="Ridgewood" class="st0" d="M330.8,285.2l17,0.8l4.5-0.5l2.1,6.3l-2.8,0.8l-4.1,0l-3.1,0.9l-5.1,6.8l-0.5,3l-2.4,1.1
		l-1.4,3.1l-1,2.3l-4-3.1l1.4-1.8l-6.6-4.9l1-1.3l-2-1.5l1-1.3l-8.8-6.9l0.3-1.9l-0.6-2l-1.6-1.4l11.6,1l0.6-0.7l-2.3-1.8l2.1-2.3
		l3.5,0l0.9,5.2L330.8,285.2z"/>
	<path id="East_Harlem_South" class="st2" d="M304.3,194.4l-1.8,2.6l-0.9,2.6l-1.5,2.2l-3.2,2.7l-5-2.6l-5.6-3.2l5.7-10.3l0.8-1.4
		l5.6,3.1l-1.2,2.2l4,2.2l0.8-1.5L304.3,194.4z"/>
	<path id="East_Harlem_North" class="st2" d="M304.3,194.4l-2.3-1.3l-0.8,1.5l-4-2.2l1.2-2.2l-5.6-3.1l3.2-5.9l-1.4-0.7l1.6-2.9
		l1.4,0.7l0.9-1.6l2.8,1.6l2.4-4.3l-2.8-1.6l4-7.3l0.6-2.7v4.5l-0.5,5.8l0.1,2l2.6,4.4l1.9,4.5v5l-0.9,2.4L304.3,194.4z"/>
	<path id="Bushwick_North" class="st5" d="M333.9,309.8l-0.5,0.8l-2,2.6l-2.8-1.9l-20.8-15.7l-1.4,0.7l-1.1-5l1.4-0.3l9.1-1.9
		l8.8,6.9l-1,1.3l2,1.5l-1,1.3l6.6,4.9l-1.4,1.8L333.9,309.8z"/>
	<path id="Bushwick_South" class="st5" d="M306.7,291.1l-1.4,0.3l1.1,5l1.4-0.7l20.8,15.7l2.8,1.9l-1.2,1.9l0.8,0.6l-1.1,2.7
		l2.6,1.9l0.2,1.9l-1.3,1.7l-12.2-9.2l-17.9-13.4l-4.7,0.7l-0.4-2.5l2.1-0.3l1.3-0.4l-0.5-4.1l-1.5,0.2l-0.9-7.4l2.9-0.3l-0.2-0.8
		l5.1-1.6L306.7,291.1z"/>
	<path id="Central_Harlem_South" class="st4" d="M298.5,176.6l-0.9,1.6l-1.4-0.7l-1.6,2.9l1.4,0.7l-3.2,5.9l-0.8,1.4l-7.8-4.3
		l-1.3-0.6l1.2-2.2l0.1-2.9l2.8-5.2l1.2,0.7l1.3-2.2L298.5,176.6z"/>
	<path id="College_Point" class="st0" d="M390.2,193.5l-3.5-1.6l-0.1,2.8l0.8,0.9l-0.1,3.3l1.6,0.1l-0.4,7h11.8l-3.5,7.9l-2.6,3.1
		l-4.1,3.7l-2,3.4l-0.5-0.4l-4.9,0.8l-2.2-1.3l-1.7-3.7l1-0.8l-1.2-1.5l0.9-1.8v-5.3l-0.7-2l0-2.9l-4.9,0.4l-0.1-1.3l-2.2-0.6
		l-1-1.9l1.1-1.9l1,0.4l1.7-2.2l0.3-2l1.5-1.1l-0.9-1.2v-1.8l1.1-0.9l2.9,1.5l0.2-2.2l2.2-1.1l1.5,1.5l2.8-0.8l0.7-1.4l1.9,0.1
		L390.2,193.5z"/>
	<path id="Glendale" class="st0" d="M372.2,286.8l0.5,4.4l1.8,1.1v1.8l1.9,3.4l-5.6,1.1l0.6-1.8l-4-0.7l-11.8,1.3l0.2,0.8l-4.9,2.4
		l-0.8-1.3l-4.3,1.1l-0.4,1l1.5,2.8l-1.5,1.4l-3.3,1l-0.4-1l-2.3,0.7l1,1.7l-2.6,1.3l-0.3-2.4l-2.3,0.7l1.4-3.1l2.4-1.1l0.5-3
		l5.1-6.8l3.1-0.9l4.1,0l10.3-0.7l-0.9-2.5l4.5-1.8l4.7-3l-0.1,1.8L372.2,286.8z"/>
	<path id="Charleston-Richmond_Valley-Tottenville" class="st1" d="M67,463.8l-3.1,0.6l-2.6,1.6l-3.7,1.4l0,1.6l-3.1,3.2l3.1,10.6
		l0,3.1l-0.6,3.2l0.3,3.8l2,6.6l0.1,2.8l1.3,0l0.5,3.2l-3.4,0.3l-5.6,3.2l-1.7-0.4l-0.7,1.5l3.2,9.6l-0.2,0.3l1.2,7l-2.9,0.9
		l-1.4-0.6l-3.5,0.4l-3.7,1.5l-2.9,2l-1.1,1.5h-3.8l-2.2,1.7l-2-0.4l-1.8-2.9l-1.5-0.9l-2.1-4.7v-4.9l1.7-1.9l0.2-2.6l0.8-1.8
		l3.5-3.2h1.3l2.2-2.3l1.4,0.3l2.5-2.1l-2.8-1.3l0.1-3.2l-0.5-1l0.5-3.9l1.1-3.1l-0.6-4.3l-1.4-1.7l-1.4-4.1l-0.1-1.4l-1.9-2.5
		l1.4-3l2.2-2.3l1.4,0.8l1.4-0.8l3.4-3.1l0.1-2.3l1.3-0.7l1.9,0.1l1.9-3.1l1.5-0.8H50l4.4,1.1l1.4,0.8l1.8-0.4l3.9-1.9L67,463.8z"/>
	<path id="park-cemetery-etc-Staten" class="st0" d="M148.7,474.7l-2.8,0.2l-1.7,1.1l-1.4,1.8l-2.1,0.5l-3.4,4.9l-3.7,6.9l-2.5,3.5
		l-2.2,2.2l-2.5-0.6l-0.1-1.7l-1.3-2.9l0.6-1.6l4.4,0.2l1.2-0.6l4.8-5.7l0.4-2.7l-1.6-2.7l-2.3-1.5l-3.4,0.2l-2.4-2.2l0.8-1.1
		l3.9-3.4l2.4-2.3l2.7-3.3l6.8,5.8l2.5,3.6l1.4-0.5L148.7,474.7z M201.3,440.6l-1.6-0.1l0.2-2.1l1.5-0.3L201.3,440.6z"/>
	<path id="New_Springville-Bloomfield-Travis" class="st0" d="M77,374.7l10.4,7.2l4.2,3.2l4,4.3l5.4,1.5l5.6,3.4l3.3,2.9l3.6,3.6
		l3.1,3.2l0.6-0.1l2.5,1.4l3.3,0.4l8.5-0.6l0.8,0.4l4.7-0.5l4.7-1.3l0.1,1.1l3.3-0.5l1.3,2.3l0.7,6l-4.9,0.3l-0.1,1.3l-4.2,3
		l-4.8-0.8l-2.5,2.9l-2.4,5.4l-1.8,3L124,428l-5.6,0.2l-10.6-7.8l-1.4,0l-0.3,2l-3.1,3.3l-1.8,2.4l-0.5,2.3l-1.1,9.9l-0.2,6.9
		l0.3,3.4l-0.1,9l-1.8-0.5l-2-1.2l-6.9-3.3l-6.4,2.1L81,458l-2.6,0.4l-5.7,6.9l-2.3,0.2l-1.5-1.3l-1.8-0.4l-5.5,1l1.8-4.2l-0.1-3.7
		l2.2-6.1l1.5-6.2v-2.4l1-2.5l0-2.2l1.4-3.7l0.2-3.1l-0.4-3.4l1.9-1.7l4.3-6.8l0.1-1.9l-1.2-3.7l-3-4.9l-0.5-2.7l0.3-5.7l1.8-3.6
		l-1.1-8.1l0.6-6.8l0.8-2.6L77,374.7z"/>
	<path id="Todt_Hill-Emerson_Hill-Heartland_Village-Lighthouse_Hill" class="st0" d="M162.3,402.8l4.1,0.6l2.3,1.2l-1.8,2.4l0,3.3
		l-0.4,3.3l1,2.4l-0.8,2l-6.2,4.1l-0.9,1.5l0,2.8l-1,1.7l-2.8,3.3l-3.5,3.7l-3.9,2.8l-1.5,1.9l-1.6,0.6l-1.1,1.6l-2.7,1.7l-1.4-0.7
		l-3.4-0.7l-0.5,1.3l-5.4,2.2l-9.1,1.4l-0.2,2.7l-3-1.4l-5.9,6.2l-2,3.3l-7,3l-4.2-1.1l0.1-9l-0.3-3.4l0.2-6.9l1.1-9.9l0.5-2.3
		l1.8-2.4l3.1-3.3l0.3-2l1.4,0l10.6,7.8l5.6-0.2l2.7-0.4l1.8-3l2.4-5.4l2.5-2.9l4.8,0.8l4.2-3l0.1-1.3l4.9-0.3l-0.7-6l-1.3-2.3
		l-3.3,0.5l-0.1-1.1l4-1.5l2.2-0.2l4.6,1.1L162.3,402.8z"/>
	<path id="South_Ozone_Park" class="st0" d="M417.1,319.6l3.8,10.6l0.3,4.5l-0.4,3.5l-0.4,1.7l-5.6,0.9l-2.9,1.7l-2.8,0.5l-7-1.2
		l-4.3-0.4l-4.2-1.7l-0.6-1.6l-4.2-11.3l-1.7-5.2l2.8-0.9l-1-2.6l9.2-3.5l-0.8-2.3l2.2-0.8l0.8,2.3l12.6-4.7L417.1,319.6z"/>
	<path id="Lindenwood-Howard_Beach" class="st1" d="M393,338.2l0.6,1.6l3.6,9.4l1.9,10.2l-2.1-1.2l-1.8-2.5l-0.7,4.2l-2.7-0.2
		l-0.8-1.5l-2.7-13.5l-0.9,0.7l1.2,5.4l2.2,11.9l-11.9,1.5l-2-1.9l-0.6-1.9l1.6-3.3l-3-0.3l-1.6-0.7l-0.9-1.9l-1.3-0.2l-0.7-2.1
		l-3-3l-0.4-0.8l2.4-1.6l2.4-0.5l-0.7-3.8l2.4-0.5l-1.7-9l-2.4,0.4l-0.7-3.5l-0.2-0.8l4.3,1.9l15,5.9L393,338.2z"/>
	<path id="Rego_Park" class="st0" d="M370.9,258.9l2.1,5.5l-2,0.8l0.4,1.9l-1.2,2.4l1.9,0.9l-0.7,1.5l-1.7,0.1l1.1,1.9l0.8,7.1
		l0.4,5.7l-2.1-0.4l0.1-1.8l-0.3-1.8l-4.5-5.8l-3.5-5.2l-1.9-5.6l-3.1-1.5l8.6-3.6l0.5-0.6L370.9,258.9z"/>
	<path id="Midtown-Midtown_South" class="st0" d="M271.2,226l2.8,1.6l-5.2,9.5l-2.2,2.6l-2.2-1.3l-2.8,5.1l2.8,1.5l-2.8,5.1
		l-5.6-3.1l-0.8,1.4l-5-2.8l4.8-8.6l8-14.6l0.8-0.6L271.2,226z"/>
	<path id="Murray_Hill-Kips_Bay" class="st0" d="M270,259.3l-3.5-1.7l0.4-0.9l-4-2.2l1.5-2.9l-2.8-1.6l2.8-5.1l-2.8-1.5l2.8-5.1
		l2.2,1.3l3.4,1.9l-1.2,2.2l4,2.2l-2,3.6l1.6,0.8l-0.9,4.4l-0.2,4L270,259.3z"/>
	<path id="Mariner_x27_s_Harbor-Arlington-Port_Ivory-Graniteville" class="st0" d="M108.5,367.4l-1.4-0.4l-0.3-2.9l3.1,0.5l0.5,0.6
		L108.5,367.4z M122.7,369.4l-1.4,2l-2.4,9.9l1.7,1.8l-1.1,4.9l-0.8,1.7l-3.8,5.2l-1.5,6.1l-3.6-3.6l-3.3-2.9L101,391l-5.4-1.5
		l-4-4.3l-4.2-3.2L77,374.7l2.1-3.4l5.8-6.2l3.1-1.7l3.1,0.5l0.4,2.1l1.9-0.9l2.2-1.9l1.1,1l1.2,2.7l2.1-0.3l3,1.1l3.5,0.7l-0.5,2.1
		l8.4,1.8l2.8-0.8l0.6-1.1L122.7,369.4z"/>
	<path id="Port_Richmond" class="st0" d="M136.8,369.8l0.1,2.4l-1.5-0.1l-0.3,3.5l-1.3,3.9l-2.6,2.1l-4.1,2.3l2,2.3l-2.1,0.9
		l-0.1,2.9l-1.3,6.3l-5.4-0.8l-0.8,7.9l-2.2,0.6l-0.6,0.1l-3.1-3.2l1.5-6.1l3.8-5.2l0.8-1.7l1.1-4.9l-1.7-1.8l2.4-9.9l1.4-2l2.8-1.2
		l4.9-1.3l1.7,0.2L136.8,369.8z"/>
	<path id="Hunters_Point-Sunnyside-West_Maspeth" class="st0" d="M312.5,239.9l7-2l6.1,1l1.1,2.6l-0.6,2.6l-1.3-0.2l-0.7,3.2l1,0.1
		l-0.6,3.9l-1.7-0.1l-0.5,2.2l-1.1-0.3l-2.8,10.2l1.3,0.7l-0.6,3.3h5.2l0.5-1.6l3.8,2.8l-4.8,4.8l-1.1,0.4l2.2,3.8l-9.6,3.5l-1.4-3
		l-0.2-2.6l-0.8-1.1l0.4-2.3l-4.1-4.6l-6.2-1.6l-2.3-1.9l-1.2-3.6l-1.3-1.8l-7.4-3.5l-3-0.9l-3.2,0.3l-2.8,1.8l-1.6-0.8l1-1.8
		l0.1-0.1l-0.2-1.8l0.9-1.8l1.4-1.2l-0.4-1.3l2.1-3.6l1.4-1.3l3.8-6.1l12.3,7.1l2.6-2.9l1.4-0.4L312.5,239.9z"/>
	<path id="Van_Nest-Morris_Park-Westchester_Square" class="st0" d="M394.9,120.9l-2.7,1.5l-1,2.5l-0.5,6.8l-0.7,3.1l-0.7,2.6
		l-1.5,0.3l-2.3,0.2l-2.2,2.4l-5.2-4.9l-2.4,0.4l-9.8,1.6l-4.1,1.7l-3.1-0.1l-0.7,0l2.3-3.8l2.6-2l-0.6-1.7l0.7-3l-1.2-0.4l0.8-1.9
		l-0.3-1.3l3,2.1l1.9-0.5l0.4,2.6l1.2-0.2l5.8-3.4l1.4,2.3l2.9-1.8l4.5-0.1l-0.3,3.4l3.1-5.9l4.1-3.8l-0.1-0.7l5.9-2.7l1.4-1.3
		l-2,3.3l-1.9,2.2L394.9,120.9z"/>
	<path id="Pelham_Parkway" class="st7" d="M390,118.7l0.1,0.7l-4.1,3.8l-3.1,5.9l0.3-3.4l-4.5,0.1l-2.9,1.8l-1.4-2.3l-5.8,3.4
		l-1.2,0.2l-0.4-2.6l-1.9,0.5l-3-2.1l-1.2-4.3l1.3-2.3l10.3-0.3l6.4-0.7l2.4,0.1L390,118.7z"/>
	<path id="Turtle_Bay-East_Midtown" class="st0" d="M272.4,250.4l-1.6-0.8l2-3.6l-4-2.2l1.2-2.2l-3.4-1.9l2.2-2.6l5.2-9.5l2.8,1.6
		l6.8,3.7l-5.7,8.3l-4.8,7.7L272.4,250.4z"/>
	<path id="Lenox_Hill-Roosevelt_Island" class="st0" d="M298.4,220.5l-9.9,14.5l-3.3,4.1H283l2.7-3.7l4.8-7.3l1.6-2l3.8-6.3l1.9-2.3
		l2.1-1l0,2.2L298.4,220.5z M283.6,232.9l-6.8-3.7l8.1-14.7l8.5,4.8l-6.1,9.1L283.6,232.9z"/>
	<path id="Elmhurst-Maspeth" class="st0" d="M342.1,246.1l0.9,4.3l2.4-0.5l0.4,2.8l1.8,1.1l4-1.9l3.1,3.7l-3.4,0.8l0.8,0.9l-0.2,1.7
		l3,3.2l-1.9,0.8l-3.7-1.9l-4.3-0.8l-3.3,0.1l-2.4-0.7l-2.8-0.2L334,261l-3.5-2.3l-1,4l-3.9-1.3l1.3-3.4l1.5-0.2l6.1-3.3l4.7-5
		l0.5-2.6l-1.4-3L342.1,246.1z"/>
	<path id="Woodside" class="st0" d="M336.1,231l-1,3.6l1.8,4.6l1.3,4.7l1.4,3l-0.5,2.6l-4.7,5l-6.1,3.3l-1.5,0.2l1.6-6.3l-3.9-0.5
		l0.6-3.9l-1-0.1l0.7-3.2l1.3,0.2l0.6-2.6l-1.1-2.6l1.3-1.2l1.5-4.6l1-2.1l-1.3-0.8l3.7-6.1l1.2,3.6l0.7,3.5L336.1,231z"/>
	<path id="Prospect_Lefferts_Gardens-Wingate" class="st0" d="M308.1,341.9l3.7,4.3l-1.6-0.2l0.3,3.7L307,350l-13.3,1.1l-2.5,0.2
		l0.5,5.3l-8,0.5l-1-6l-1.8,0.9l-1.1-8.4l1.9-1.3l0.5-0.9l2.7-0.2l0.1,0.9l10.2-0.8l2.4,0.2l-0.1,1.4L308.1,341.9z"/>
	<path id="Crown_Heights_South" class="st7" d="M281.4,332.9l5.3,1.5l6.6,0.4l-0.1,1.1l9.7,0.7l-0.2,3l7.2,0.5v0.7l-1.7,1l-10.6,0.8
		l0.1-1.4l-2.4-0.2L285,342l-0.1-0.9l-2.7,0.2l-0.5,0.9l-1.4-9.6L281.4,332.9z"/>
	<path id="Claremont-Bathgate" class="st0" d="M343.3,121.8l-1.5,2.2l-0.8-0.5l-2.7,7.6l2.8,0.4l-2.1,3.8l-1.1-0.7l-4,9.3l-3.8,7.4
		l-3-1.3l-1.3-0.6l3.9-9l0.3-1.5l0.5-3l0.2-2.8l3.1,0.4l5-11.7l3.9-7.3l0.1-0.7l0,5.7L343.3,121.8z"/>
	<path id="Mount_Hope" class="st0" d="M338.8,121.9l-5,11.7l-3.1-0.4l-0.2,2.8l-4-0.4l-2-0.6l-4.4-2.1l2.5-0.1l3.1-5.7l4.4-6.5
		l3.2,1.4l1-1.7L338.8,121.9z"/>
	<path id="Ft._Totten-Bay_Terrace-Clearview" class="st0" d="M450.3,209.3l-0.7-0.4l-6.1,2.4l-0.3-1.8l-10.8,4.1l-6.4,2.3l-2.5-2.5
		l-4.6-0.5l1.2-12.1l4,0.2l4-1.2l2.3-1.5l-1-1.4l1.3-1.1h4l3.5-0.9l0.9-2.9l-1.1-1.5l2.2-2.1l2.1,0.2l2.2,2.2l1.9,5l1.4,2l-1.1,1.3
		l-2,0.7l0,1l2.1,3.4l2,2.5L450.3,209.3z"/>
	<path id="Whitestone" class="st0" d="M429.3,197.1l1,1.4l-2.3,1.5l-4,1.2l-4-0.2l-1.2,12.1l-9.7-1l0.3-2.7l-7.7-0.8l0.9-2.4h-2.5
		h-11.8l0.4-7l-1.6-0.1l0.1-3.3l-0.8-0.9l0.1-2.8l3.5,1.6l-0.7,1.4l0.1,1.8l2.8,0.8l1.8-0.9l0.8-1.8l2.8-1.5l0-2.6l-0.6-1.3l4.8-2.7
		l2.1-2.4l1.2-0.3l3.1,2.8l2.7,1.5l0.9-0.3l5.7,1.5l3.8-0.4l5.7,2.4l-0.5,3.1l1.1,3.1L429.3,197.1z"/>
	<path id="St._Albans" class="st0" d="M464,294l2.4,7l-0.7,0.2l1.4,4l2.1-0.8l2.2-0.1l-0.8,3l-2.7,5l-2.1,3.9l-1.9,5.1l-2.3,4.1
		l-0.7,2.3l-1-0.7l-2.9,1.6l-3.1,1.5l-9.5-7.7l2.1-1.3l-0.9-2.1l-2.6-2l-0.7-1.3l-2.3,1.1l-1.5-3.8l-1.5-1.5l2.1-1.2l0.8,2l1.7-0.7
		l-2.1-3.5l2.1-1.5l3.4-6.3l1.4-0.9l-2.8-6.3l0.4-1l5.8-3.1l2.1,8.4l4.3-1.5l0.2,0.8L464,294z"/>
	<path id="Jamaica" class="st0" d="M449.7,288.9l-5.8,3.1l-0.4,1l2.8,6.3l-1.4,0.9l-5.6-6.5h-2l-5.7,2.6l-1.7,1.1l-2.1,2.9l-3.7,2
		l-7.5,8.2l-2.2-1.9l-1.5,0.7l-3.5-8.1l-1.4-4l4.2,0.2l-0.4-4.2l4.4-1.7l1.2,3.1l3.5-1.3l-1.2-2.7l1.4-1.8l2.4-1.1l0.8,1.8l4.1-1.8
		l3.2-1.5l2.8,0l11-3.5l1.4-0.7l2.1,4.3l-1.2,2.1L449.7,288.9z"/>
	<path id="Richmond_Hill" class="st0" d="M407.9,297.2l1.4,4l3.5,8.1l-12.6,4.7l-0.8-2.3l-2.2,0.8l0.8,2.3l-9.2,3.5l1,2.6l-2.8,0.9
		l-0.9-2.5l-2.6-7l-0.8,0.1l-2.3-6.3l-1.2-4.1l3.5-1.2l3-2l4-3.6l2.1,0.3l0.6,1.8l1.5-0.5l0.6,1.6l7.9-2.6L407.9,297.2z"/>
	<path id="Laurelton" class="st0" d="M480.1,316.7l5.6,2.2l-0.9,2.4l-4.4,6.2l-3.8,7l-3,4.2l-14.4,0l1-3.6l0.1-3.2l-1.9-0.2
		l-1.5-2.9l2.9-1.6l1,0.7l0.7-2.3l2.3-4.1l1.9-5.1l7.9,3.1l1.2-0.4l3.3,1.4l1.4-3.4L480.1,316.7z"/>
	<path id="Briarwood-Jamaica_Hills" class="st0" d="M428.3,287.7l-4.1,1.8l-0.8-1.8l-2.4,1.1l-1.4,1.8l1.2,2.7l-3.5,1.3l-1.2-3.1
		l-4.4,1.7l0.4,4.2l-4.2-0.2l-1.5-4l-2.1-4.4l-2.6-3.1l-2.1-4.1l3.5-1.1l1.5,0.2l2.6,1.1l8.2,0l6-0.8l6.8-2.7l2.1-0.3l-1.2,1.6
		l-1.3,5L428.3,287.7z"/>
	<path id="Kew_Gardens" class="st0" d="M407.9,297.2l-5.3-1.4l-7.9,2.6l-0.6-1.6l-1.5,0.5l-0.6-1.8l-2.1-0.3l-0.9-1.9l0.8-2.4
		l-5.2-1.5l6.2-2.9l4.3-3l4.5-1.9l2.1,4.1l2.6,3.1l2.1,4.4L407.9,297.2z"/>
	<path id="Middle_Village" class="st0" d="M370.1,284.6l-4.7,3l-4.5,1.8l0.9,2.5l-10.3,0.7l2.8-0.8l-2.1-6.3l-4.5,0.5l-17-0.8l6-3.9
		L336,280l1.4-0.8l-2.5-2.4v-3.6l1.5,0.2l2.2-0.9l1.4,0.9l3.4-2l2.8,0.3l-0.1-3.6l1.9-0.7l4.6-0.7l4-1.9l3.1,1.5l1.9,5.6l3.5,5.2
		l4.5,5.8L370.1,284.6z"/>
	<path id="Maspeth" class="st0" d="M344.9,260.2l0.4,5.1l0.7,2.7l0.1,3.6l-2.8-0.3l-3.4,2l-1.4-0.9l-2.2,0.9l-1.5-0.2v3.6l2.5,2.4
		L336,280l0.8,1.3l-6,3.9l-0.6,0l-0.9-5.2l-3.5,0l-2.1,2.3l2.3,1.8l-0.6,0.7l-11.6-1v-0.1l0-1.2l1.5-1.7l9.6-3.5l-2.2-3.8l1.1-0.4
		l4.8-4.8l1.6-1.8l3.6-5.7l2.4-1.5l2.8,0.2l2.4,0.7L344.9,260.2z"/>
	<path id="Upper_West_Side" class="st5" d="M282.5,187.1l-13.1,23.6l-8.8-4.9l-0.5,1.7l-2.1-1.3l0.2-0.6l13.1-24.7L282.5,187.1z"/>
	<path id="Lincoln_Square" class="st0" d="M269.4,210.7l-5.8,10.6l0.1,0.6l-0.8,0.6l-10-5.6l0-0.7l2.5-5.4h0.5l2-4.4l2.1,1.3
		l0.5-1.7L269.4,210.7z"/>
	<path id="Oakland_Gardens" class="st0" d="M474.4,255.7l-2.4,3.5l-3.3,3.5l-3.3,3.7l-2.1,1.8l-3.3,1.7l-4.3-3.3l-3.5-4l1.6-0.4
		l-1.2-1.9l2.1-0.8l0.2-1.7l-2.7-7.5l-1.9-2.9l6.1-2.3l3.4-1.8l-2.8-4.1l-1.6-3.1l0.1-1.9l-0.6-2.6l3.8-1l2.5,2.2l1.7,0.3l0.7-1.4
		l2,1.2l1.7,2.9l1.1,4.4l0.9,0.6l1.7,4.4l-2.1,1.2l1.3,4l-2.7,0l-4.9,1l1.8,2.5l1.3,0.5l5.2-1.2l0.7,2.7L474.4,255.7z"/>
	<path id="Douglas_Manor-Douglaston-Little_Neck" class="st0" d="M497.7,231.1l-3.6,0.6l-2.8,2.3l-1.5,3.2l-3.5,3.3l-0.9,1.3
		l-1.1,3.5l-1.4,2.6l-2.7,3l-0.9-1.4l-0.6-3.6l-2.5-2.4l-3.1-4.9l1.9-2.3l-1.4-1.4l-3.1-4.6l-1.1-3.7l-2.9,1.2l-0.7-0.9l2.9-0.9
		l-2.2-3.5l-3.5,2.5l-1.3-2.1l0.2-3l-0.7-2.2l1.9-1.8l-1.6-3.8l1.9-5.5l1.9-1.8l5.8,4.9l4.2,3l5.5,4.7l3.8,2.9L497.7,231.1z"/>
	<path id="Annadale-Huguenot-Prince_x27_s_Bay-Eltingville" class="st0" d="M99.5,459.7l0,1L102,475l1.3,3.9l6.4,8.9l3.5,2.7
		l-2.3,3.3l-4.1,2.3l1.3,2.3l-2.1,0.2l-3.7,2.4l-3.2,2.4l-0.8-0.6l-2.1,1.1l-3.7,3.8l-3-1.6l-3.3,1.6l-4.2,4.6l-4.8,6.2l-1,0.1
		l-2.9-1.8l-0.8-1.8l-4,0.8l-3,1l-1.3,1.2l-2.2,3.6l-2.8,2.1l-1.5,2.5L54,527l-1.2-7l0.2-0.3l-3.2-9.6l0.7-1.5l1.7,0.4l5.6-3.2
		l3.4-0.3l-0.5-3.2l11-2.5l1.4-1.8l7.1-4.7l-1.8-4.5l2.1-1l2.7-2.5l7.1-10.9l4.4-10.6l2.8-4.5L99.5,459.7z"/>
	<path id="Great_Kills" class="st0" d="M121.6,449.8l3.6,2l4.6,3l2.8,1L130,460l-0.8,2.2l-2.7,2.2l5,5.2l-3.9,3.4l-0.8,1.1l2.4,2.2
		l-1.9,0.5l-3.9,5.2l0.7,3.3l-1.7,1.5l-0.9,1.6l-2,0.5l-2.4,1.6l-5.5,5.2l-3.3,2.3l-1.3-2.3l4.1-2.3l2.3-3.3l-3.5-2.7l-6.4-8.9
		L102,475l-2.5-14.3l0-1l4.2,1.1l7-3l2-3.3l5.9-6.2L121.6,449.8z"/>
	<path id="Seagate-Coney_Island" class="st1" d="M269.8,434.4l-0.3,3.7l-6.1,0.9l0.6,4.2l2.9,0.1l3.8,0.7l0.5-1.5l3.6,0.9l3.6,0.6
		l4.6-0.5l0,1.5l-7.8,0.9l-8.2,1.6h-2.5l-10.7,1.6l-6.5-0.1l-1.4,0.4l-0.4-1.8l-3.6-1.8l-3-0.5l-1.7-1.2l-0.9-3.3l0.6-1.7l1.4-1.6
		l4.1-1.7l3.4,0.7l3.5-0.1l0.2,1l5.5,1.7l2.3,0.4l0.8-1l-1.7-1.2l1.4-3.2l3-0.8l6.4,1.5L269.8,434.4z"/>
	<path id="Gravesend" class="st0" d="M278,425.2l-1.3,7.5l-7,1.6l-2.5,0.3l-6.4-1.5l-3,0.8l-1.4,3.2l-1.5-1.4l0.6-2.9l-4.3,2.5
		l-3.7-1.1l-0.2-1.3l1.9-2.7l1.7-1l-1.5-1.2l3.6-2.2l0.4,0.9l2.6-2.1l0.7,0.5l3.2-4l1.7,1l3.6-0.5l-0.4-2.5l7.8-1.1l-0.4,3.2
		l0.7,4.5L278,425.2z"/>
	<path id="Riverdale" class="st2" d="M337.8,56.2l0.2,9.5l-0.6,3.6l0.6,7.5l-1.3,3.9l-2.5,1.6l-1.8-0.2l-1.1,2.3l-2.8-0.8l-1.4-1.9
		l-2.4,1.5l-1.2,2.3l-1.6,1.8l-3.4-1.1l0-1.5l-1.6-0.3l3.2-10.9l4-14.3l0.8-4.2l1-3.2l6.8,3L337.8,56.2z"/>
	<path id="Bedford_Park-Fordham_North" class="st4" d="M349.2,107.2l-2.8,2.1l-1.8,0.8l-2.1,3.5l-2.1,3.2l-1.7,1l-2.7-1.4l1.4-3.6
		l-2,0.3l-1.4-0.7l3.2-5.4l2.7,1.6l2.8-4.5l2.5-1.9l-0.9-1.9l1.4-4.2l1.9-2.1l1.8,3l0.1,2.6l0.7,1.4l1,4.9L349.2,107.2z"/>
	<path id="Belmont" class="st0" d="M349.6,108l-0.6,2.8l2.8,4.2l-0.1,4.4l-2.1,9.8l-3.7-3.1l-2.1-1.3l0.2-1.8l-0.7-1.2l-0.6-2.2
		l0-5.7l-0.3-0.2l2.1-3.5l1.8-0.8l2.8-2.1L349.6,108z"/>
	<path id="Bronxdale" class="st0" d="M368.6,102.6l-0.2,6.7h1.8l1.5,2.9l0.4,3.9l0.7,1.9l-10.3,0.3l-2.3,0.5l0.6-7.7l-0.1-8.6
		L368.6,102.6z"/>
	<path id="Corona" class="st0" d="M374.7,243.8l3.7,9.3l2.1,0.8l0.2,1.2l-3.8,1.9l-6,1.8l-5.2,1.7l-2.6-7.7l-0.3-4.6L374.7,243.8z
		 M374.7,243.8l-1.2-3.2l1.1-0.4l-1.1-2.9l2.3-0.7l2,5.8L374.7,243.8z"/>
	<path id="Throgs_Neck" class="st2" d="M408.1,143.2l0.3,3.4l0.9,2.7l1.7,2.9l-1,2.9l2,1.7l2.2-1.8l2,0.5l1,4.2l0,1.8l2,2.2l0.9-0.3
		l4.3,2.4l-2.2,2.8l-2.2,1.8l-1.8-3.2l-0.4,2.4l2.8,3.5l3,0.7l5.5,3.1l1.4,0.3l0.5,1.8l-0.7,1l-2.1,0l-1.4-1.6l-3.4-1.8l-3-2.3
		l-1.7,0.1l-2.5-1.9l-0.8-1.3l-2.7-1.3l-4.4-1.1l-4.3,1l-4.4,1.9l-2.8,0.1l-1.4,1.1l-1,1.9l0.5,3.9l-3,0l-2-0.9l-2.5-6.1l0.5-2.9
		l-0.1-2.8l2.4,0.1l0.7-3.3l-0.1-6.7l-0.7-4.4l-4.6,0.2l0.4-2.4l2.7-3.6l-0.8-6.6l0.3-1.5l1.5-0.3l0.7-2.6l5.7-0.5l3.7-1.8l-0.1,2.7
		l0.4,6.9l0.3,2.1l1.4,1.1L408.1,143.2z"/>
	<path id="Eastchester-Edenwald-Baychester" class="st0" d="M428.1,89.3l-10.7-3.8l-2.5,0l-3.2-0.8l-2.5,0l-4.7,1.4l-0.4-1.4
		l-2.7-1.2l-5.7,3.3l-3.5,1.3l-2.3,2.2l-3,1.5l-2.4,1.8l4.4,2.5l-1,0.4l1.6,3.9l-0.7,0.3l2.3,6.3l2.2-0.9l3.1,7l1,1.5l-6.5-4.8
		l-11.2-7.7l-4.4-1.9l2.6-2.5l-1.2-2l1-0.7l-1.4-1.8l4.8-9.5l6.2-1.2l3.9-0.5l-1.6-5.6l10.6,4.1l1.7,0.4l0.4-1.4l4,1.6l13.4,4.4
		l7.7,2.7L428.1,89.3z"/>
	<path id="Breezy_Point-Belle_Harbor-Rockaway_Park-Broad_Channel" class="st0" d="M349.6,451.4v1l-16.7,6.2l1.4,6.4l-3.6,0.4
		l-18.8,9.3l-3.6,2l-8.7,4.1l0.3-5.9l-0.1-5.3l1.4-3.5l1.6-1.3l4.2-1.1l5.1-4.4l4.4-0.6l3.4-1l1.7-1.3l2.6-1.1l1.8,0.2l0.7,1
		l2.7,1.6l3-1l2.2,0.5l3.6-2.7l0.7-1.8l2.4-1.8l2.6,0.8l3.7-0.8L349.6,451.4z M407.1,435.3l-14.5,5.3l-4,2.3l-5.3,2.4l-6.7,3.3
		l-1.7,0.5l-7.7,4L364,446l2.7-0.9l0.6-2.6l8.6-6l2.3-1l4.5,0.7l5.1-0.3l1-1l2.1-0.1l6.4-2.3l0.3-1.2l4.3-1.8l1.6,0.8l2-1.5l1.1,0.7
		l2.1,4.7L407.1,435.3z M407.7,397.9l0.1,0.7l0.2,1.6l0.5,2.6l0.3,1l0.4,1.6l-0.8,2.3v0.1l-2.2,5.8l-0.9,4.4l-1.8,3.3l-3-0.4
		l-6.6,0.5l-1.9-0.6l0.2-1.5l2.5-1.7l2.8,0.4l1.8-1.9l2,0.4l-0.1,0l0.7-1.2h0.1l0.1,0l0.9,0.1l0.2-0.4l-2.4-0.2l1.3-2.4l0.5-4.7
		l1-0.6l1.4-3.9l-2,0.7l-1.7-1.9l1.3-3.2l1.4-1.1L407.7,397.9z"/>
	<path id="Rossville-Woodrow" class="st0" d="M70.4,465.5l-0.1,0.5l2.9,8.6l2.2,5.6l3.1,8.5l1.8,4.5l-7.1,4.7l-1.4,1.8l-11,2.5
		l-1.3,0l-0.1-2.8l-2-6.6l-0.3-3.8l0.6-3.2l0-3.1l-3.1-10.6l3.1-3.2l0-1.6l3.7-1.4l2.6-1.6l3.1-0.6l1.8,0.4L70.4,465.5z"/>
	<path id="Arden_Heights" class="st0" d="M97.7,459.3l-2.8,4.5l-4.4,10.6l-7.1,10.9l-2.7,2.5l-2.1,1l-3.1-8.5l-2.2-5.6l-2.9-8.6
		l0.1-0.5l2.3-0.2l5.7-6.9L81,458l1.4-1.2l6.4-2.1l6.9,3.3L97.7,459.3z"/>
	<path id="Far_Rockaway-Bayswater" class="st0" d="M453.8,424.9l-0.6-3.6l1.4-0.2l-0.5-5l-1-1.6l-1.8,1.2l-1.4,1.8l-2.7-1.7l0.8-3.9
		l0.3-5.9l0.8-1.5l-2.1-1.4l-0.8-1.3L445,402l0.4-2.8l5.5-0.7l1.6,0.6l0.1,2l5,1.9l5.1-0.1l3-1.3l3.8-0.4l2.2,5.4l4.4,5.3L476,417
		l0.6,4.4l-3.9-0.6l-4,0.7l-2.1,1l-2.1,2.3l-4,0.7l-4.9-1L453.8,424.9z"/>
	<path id="Carroll_Gardens-Columbia_Street-Red_Hook" class="st0" d="M254.3,311.9l-2.1,6.1l6.7,3.4l-0.4,0.7l-2.7,5.8l-2.9-0.4
		l-1,0.5l-2.9,4.5l-0.1,0.2l-1.3,3.3l-1.7,0.1l-0.6,1.5l-3.2-1.5l-2.8,0.1l-1.5,4l-3.6,0.6l-1.9-1.5l-0.6-5.2l0.9-0.7l0.7,6.4
		l3.8-0.3l1.2-3.3l-0.7-2.2l-2.3-0.9l-3.4-3.5l-0.3-1.7l-1.1-0.8l1.1-1.5l-0.5-2.3l5.4-4.2l-1.1,2.2l1,1.5l2.9-3.3l-2-0.7l3.3-2.6
		l2.2-0.7l0.6-0.9l0.3-0.7l0.7-0.8l0.4-0.8l0.3-0.9l2-0.2l-1.1-1.4l0.2-0.7L254.3,311.9z"/>
	<path id="park-cemetery-etc-Manhattan" class="st0" d="M209.3,311.3l-0.8,1.8l-2.1-2.1l1.1-0.8L209.3,311.3z M233.1,307.6l2.1,0.6
		l1.8,2.1l-0.8,3.4l-2.5,0.9l-5.7,3.5l-2.3,0.3l-1.1-2.4l5.4-6.8l0.6-1.4L233.1,307.6z M212.8,299l1.9,1.8l-3.4,3.4l-1.8-1.8
		l2.2-2.8L212.8,299z M235.5,298.9l-1.1,0.1l-1.9-2.3l-0.2-1.6l0.7-0.7l2.1,0.4L235.5,298.9z M271.2,226l-7.4-4.1l-0.1-0.6l5.8-10.6
		l13.1-23.6l1.6-3l7.8,4.3l-5.7,10.3L271.2,226z M311.2,187.9L311.2,187.9l0.4-3.3l0,0l0.1-0.1v0v-0.3l0,0l1-1.6l2.9,0.5l1.4,2.5
		l4.3,2.7l1.4,3.7l-1.2,2.1l-2.9,2.9l-2.9,4.3l-0.9,2.4l-1.5,1.6l-3.4,1.4l-1.9-1.5l-3.8-0.9l-0.9-1.7l0.3-1.3l2.9-4.7l2.3-1.9
		l1.5,0.4l-0.3-2.5l1.2-2.5L311.2,187.9z M315.7,119.2l-0.3,1.4l-6.6,12.4l-1.1,3.5l-2.8,6.6l-3.7,3.8l-1.4,2.9l-0.1-0.1l0-1.6
		l1.9-2.6l1.5-4.3l1.1-1.5l-0.5-2.4l3.7-7.1l1.4-0.8l2-3l-0.2-2l2.6-4.8l-1.7-2.7l1.2-1.3l0.5-1.7l1.6,3.1L315.7,119.2z
		 M324.8,100.3l-2.2,2.4l-3.8-2.1l-0.7,2.3l-1.8,1.7l-4.3,1.2l-2.2,2l-3-3.6l0.2-1.4l2.4-5.2l0.8-1.1l3-1.1l2.1,0.8l1.3,1.5l1.8,1
		l3,0.1L324.8,100.3z"/>
	<path id="Rosedale" class="st0" d="M486.9,319.3l0.2,4.2l-1.7,6.2l-0.6,7l0.4,3.5l-0.1,3.8l1.3,3l1.3,5.6l-0.2,2.6l-4.4,1.8
		l-4.2,0.7l-3.5,1.7l-2.1,1.6l-0.2,5.3l-0.5,2.4l2.5,5.1l-2.4,0.8l1.1-2.7l-1.5-1.1l-1.3,0.4l-1.8,1.7l-0.6-0.8l0-0.4v0l0.4-1.3v0
		l0.1-3.2l-1.4-2.7l-4.7-3.9l-1.1,0.1l0.4-1.7l-8.7-6.5l0.8-1.7l1.2-0.7l0.2-1.9l4.2,1.3l3.4,2.6l4.2,2.6l4.2,0.1l0-4.2l-1.5-1.4
		l-3-0.2l1.4-3.7l2-3.4l2.9-3l3-4.2l3.8-7l4.4-6.2l0.9-2.4L486.9,319.3z"/>
	<path id="East_Tremont" class="st6" d="M349.6,129.2l5.1,4.9l-0.7,1.6l3.1,1.3l0.6-1.2l2.6-2.1l1.4-3.3l0.2-2.3l1.2,0.4l-0.7,3
		l0.6,1.7l-2.6,2L358,139l-5.7-0.4l-1.9,2.5l-1.7-1.6l-2.1,0.1l-2.5-0.2l-5.2-4l2.1-3.8l-2.8-0.4l2.7-7.6l0.8,0.5l1.5-2.2l0.7,1.2
		l-0.2,1.8l2.1,1.3L349.6,129.2z"/>
	<path id="Crotona_Park_East" class="st0" d="M358,139l0.7,0l-1.1,2.8l-5.3,3l-3.4,5.7l0.1,1.8l-0.8,3.8l0.2,2.3l-2.2,0.4l0.7-5.8
		l-1.3-1.9l-2-0.9l-3,0l-1.2-0.5l-2.1,0.3l0.7-3.6l-0.6-0.9l3.1-2.6l2-0.2l3.9-3l2.1-0.1l1.7,1.6l1.9-2.5L358,139z"/>
	<path id="Soundview-Castle_Hill-Clason_Point-Harding_Park" class="st0" d="M351.5,163.8l-1.3-1.2l-1.7-4.2l9.4-1.7l1,4.9l-6.4,1.1
		L351.5,163.8z M367.8,173.3l1-1.4l-5.2-3.8l-2.1-1.9l-1.7-10L373,154l1.1,5l10.6-1.9l-0.9-5l0.9-0.2l2.7,8.1l-0.1,1.9l-1.9,1.7
		l-2.7,7.7l-1.7,1.4l-1.6-1.8l-0.8,4.3l1.4,1.4l0.7,2.4l-2.2,0.8h-5l-2-1.1l-0.2-3.3l-1.7-1.4L367.8,173.3z M387.5,165.9l-0.3-1.7
		l0.7-1.2l0.2-4.4l-2.9-6.9l4.6-0.2l0.7,4.4l0.1,6.7l-0.7,3.3L387.5,165.9z"/>
	<path id="park-cemetery-etc-Bronx" class="st0" d="M367.8,173.3l-4.7-0.7l-1.8-3.3l-1.7-1.7l-4.3-0.9l-1.2-0.5l-2.6-2.4l1-1.1
		l6.4-1.1l-1-4.9l1.8-0.3l1.7,10l2.1,1.9l5.2,3.8L367.8,173.3z M420.2,136.8l-0.3,0.6l-3.8-0.4l0.1-1.2l2.5-0.1L420.2,136.8z
		 M326.5,135.5l4,0.4l-0.5,3l-2.2,3.1L326.5,135.5z M346.6,139.5l-3.9,3l-2,0.2l-3.1,2.6l-3.7-1.4l4-9.3l1.1,0.7l5.2,4L346.6,139.5z
		 M428.1,89.3l-1.4,2.6l-1.2,4.1l-1,2.1l-2.1,1.1l-0.9,3l-1.4,1.2l-0.5,1.6l-1.6,1.1l1.6,1.4l0.7,1.7l3.9-7.7l2.6-1.1l1.1-4
		l-0.2-2.1l3.3-2.9l0.5,2.4l3.1-0.1l1.4,0.8l-0.3,2.4l-2.1,3.2l1.2,1.4l2.3,0.2l-0.1,1.8l-1.5,1l-3.6,0.1l-2.1,1.8l-1.1,4.6l1,2.2
		l-0.4,1.6l-1.5,0.5l-1.1,2.7l0.4,1.8l-2.1,0.3l-1.9,2.6l0.9,1.2l-0.2,2.7l-1.7,2.7l-1.2-0.4l-0.7-2.4l-1.7-3l0.6-2.5l-1.1-7
		l-0.9,1.8l-2.1,0.3l-2.5-3.1l-2-0.9l-1.5,0.1l-1.2,2.3l2.3,0.7l0.9,1.9l0.4,5.4l-3.6,0.1l-0.7,2.7l1.8,3.1l-4.3,1.2l-0.3-0.5
		l-3.9,2.8l-0.2,3.9l-0.9-0.3l0.1-2.7l-1.6-3.8l0.7-5.3l-1.2-2.9l-2.4,0.3l-1.4-0.7l1.9-2.2l2-3.3l0-0.1l1.2,2.1l5.7-2.3l3.1-3.8
		l0.9-1.7l-4.8-3.9l-1.8-4.6l3-10.4l-0.3-4l4.7-1.4l2.5,0l3.2,0.8l2.5,0L428.1,89.3z M368.6,75.6l-1.2,3.5l-3,7.2l0.1,1.3l-3.7,9.6
		l-0.2,5.1l0.1,8.6l-0.6,7.7l2.3-0.5l-1.3,2.3l1.2,4.3l0.3,1.3l-0.8,1.9l-0.2,2.3l-1.4,3.3l-2.6,2.1l-0.6,1.2l-3.1-1.3l0.7-1.6
		l-5.1-4.9l2.1-9.8l0.1-4.4l-2.8-4.2l0.6-2.8l5.4-3.9l1.5-1.9l2.3-4.2l2-5.8l-4,0.1l0.1-1.7l-3-0.6l0.5-2.8l-0.5-2.7l-2.7,4.9
		l-2.8-0.6l-2.3-1.3l-0.5,0.1l-7.8-2l-2.7-0.6l1.6-4.3l1.3-3.9l-0.6-7.5l0.6-3.6l-0.2-9.5l11.9,4.7l13.3,5l-2,2.6l-4.1,2.6l-2.1,3.5
		l5.8-1.4l4.9,1.1L368.6,75.6z"/>
	<path id="Flushing" class="st1" d="M401.8,208.4l-0.8,3l-1.3,1.3l-0.7,4.1v2.5l1.6-0.3l1.1,6.6l2.5,6.7l2.4,2l-2.1,1.8l1.7,1.9
		l-2.1,1.8l4.8,5.8l-2.1-0.2l-2.8-1.3l-2.8-3.8l-2.7,2.2l-3.2,1.1l-1.7,1.2l0.6-4.7l-2.8,0.7l-2.2-3.8l-0.5-2.7l1.6-4.8l-1-3.9
		l-1.4-1l0.3-0.6l2-3.4l4.1-3.7l2.6-3.1l3.5-7.9h2.5L401.8,208.4z"/>
	<path id="Queensboro_Hill" class="st0" d="M408.8,245.6l1.1,1.2l-0.1,3.7l5.3,1.1l7.1-0.3l2.8,0.4l-0.2,2.2l0.7,2l-3.2,0l-11.5-0.5
		l-1.5,0.1l-1.8,0.2l-6.8-1.4l-2.7,1.3l-0.1,1.6l-2.1-0.5l-0.7-1.9l0.2-3.6l-4.1-1l0.1-1.9l1.1-2.8l1.2-0.7l1.7-1.2l3.2-1.1l2.7-2.2
		l2.8,3.8l2.8,1.3L408.8,245.6z"/>
	<path id="Hudson_Yards-Chelsea-Flatiron-Union_Square" class="st0" d="M246.3,227.9l0.4,0.8l4.9,2.7l-1.5,2.9l5,2.8l-4.8,8.6l5,2.8
		l0.8-1.4l5.6,3.1l-5.1,9.1v1.1l-16-8.9l-0.8-0.3l0.4-2.9l-0.6-1l0.3-2.4l-0.8-1.3l2.1-6.2l2.2-4.7L246.3,227.9z"/>
	<path id="Gramercy" class="st0" d="M266.4,257.6l-3.5,6.3l-6.4-3.6v-1.1l5.1-9.1l2.8,1.6l-1.5,2.9l4,2.2L266.4,257.6z"/>
	<path id="Brooklyn_Heights-Cobble_Hill" class="st0" d="M254.3,311.9l-8.1-3.2l0.4-1l0.3-0.8l0.6-1.1l0.7-1.8v-0.1l0.6-0.5l0.4-1
		l0.4-0.8l0.4-1l0.7-1.4l1.4-2.4l0.1-0.1l2.1,1.2l1.4,1.5l-0.4,4.3l0.8,3.6l-0.5,1.5l1.7,0.5l-1.3,3.5L254.3,311.9z"/>
	<path id="DUMBO-Vinegar_Hill-Downtown_Brooklyn-Boerum_Hill" class="st0" d="M265.9,293.1L265.9,293.1l-0.1,0.5l-1,3l-0.3,5.4
		l0.4,4.1l0.8,1.4l-2.2,0.6l-0.3,2l1,2.7l2.6,4.7l-3.2,6.4l-3.8-2l-1.4,0.2l0.4-0.7l-6.7-3.4l2.1-6.1l1.6,0.6l1.3-3.5l-1.7-0.5
		l0.5-1.5l-0.8-3.6l0.4-4.3l-1.4-1.5l-2.1-1.2l0.2-0.2l-0.1-0.6l0.1-0.2l2.3-0.8l7.6-1.1l0.8,0.1h0.1L265.9,293.1z"/>
	<path id="Clinton_Hill" class="st0" d="M288.3,322.3l-2.2,1.5l-4.7-1.3l-6.4-1.7l-1.2-8.6h0.8l-0.6-4.2h0.9l-0.5-3.4l3.6,0.1
		l1.1-0.5l1-1.9l1.5-0.3l0.7,4.9l3.5-0.5l0.7,4.2l-4.3,0.6l0.7,4.2l4.3-0.7L288.3,322.3z"/>
	<path id="Williamsburg" class="st0" d="M291.1,293.7l2.8,2.1l-3.6,3.2l-2.2-2.6l-3.2,2.7l0.4,2.1l-3.5,0.7l-1.5,0.3l0.6-2.5
		l-4.4-4.7l-1-2.9l4.4-1.1l4.3,0.5l0.5-1.4l5.2,2.4L291.1,293.7z"/>
	<path id="park-cemetery-etc-Brooklyn" class="st0" d="M307.1,434.5l-0.1-1.4l1.7-0.2l-1.1-1.8l3.7,1.4l1.1-0.1l5.1,0.3l4-1.8
		l2.5,0.8l-0.3,2.8l1.1,1.5l-3.2,0.2l-6.7-2.1l-4.6-0.1L307.1,434.5z M363.7,435.6l-1.7,0.5l-1.3-1.9l-0.6-4l1.1-3l3-2.8l2.7,1.1
		l1.7,3.3l-0.6,2.7l-1.2,2L363.7,435.6z M317.6,415.5l3.1,1.6l2.8,4.8l-0.3,2.5l-2.3-0.3l-1.5-2.9l-3.4-2.9l-0.5-1.6L317.6,415.5z
		 M376.4,418.1l-2.1,1.2l-2,0.3l-2.8-0.5l-2.5-3.8l1.3-2.7l6.2,0.3l1.8,1.1l1.8,2.4L376.4,418.1z M390.9,408.5l-0.2-2l1.5-2.1
		l-0.1,2.3L390.9,408.5z M319.2,407.9l4.1,4.6l3.1,0.2l6-0.7l3.7-1.2l2.8,0.6l2.8-0.3l4.4-2.3l2.1,0.2l1.8,1.1l-0.6,1.3l1.4,4.1
		l0.8,5l1.6,6.2l0.1,2l1.9,3.6l-2.6,5.5l-4.1,1.8l-4.6,0.9l-1.5,0l-3.6,1.2l-1.4-3.5l0.5-2.5l-0.4-2.2l-1-1.4l0-1.7l-1.2-1.5
		l-4.1,1.2l-1.9-0.2l-4.2,1.4l-0.7-2.7l0.4-3.4l-0.5-3.8l-2.8-4.9l-2.9-2.3L316,413l-0.9,0.2l-1.3,2.3l-2.6-1.7l-3.2-3l-1.2,1.3
		l0.9,1.1l2.8,1.6l2.5,2.4l2.8,3.7l1.3,0.3l2.1,2.2l1.1,1.9l1.5,1.1l0.3,1.7l-2.3,1.4l-0.9,1.2l-10-11.8l1.2-1.1l-4.7-5.6l-0.7,0.5
		l-4.7-5.6l1.9-1.6l1.3-1.1l2.2,1.3l3.1,3.8l3.2-2.7l1.6,1.8l2.5-2.1l1.6,0.4L319.2,407.9z M361.4,407.5l-1.2,0.3l-1.3-2.2l-0.5-2.7
		l1.7,1L361.4,407.5z M378.1,400.8l0.7,0.9l-0.5,2.3l-3.7,2l-1.3-2l0.4-0.7l2.5-0.2L378.1,400.8z M383.1,398.9l1.8,0.9l1.8,1.8
		l2.2-1.7l1.5,1.1l-2.2,4.3l-2.3,2.3l0.2,2l-2.6,0.1l-2.9-0.6l0-2.2l1.8-1.8l-0.2-3.3L383.1,398.9z M231.3,410.9l-2.2-0.9l0.4-1.5
		l-1.5-1.2l0.8-1.3l-2.4-1.8l-0.2-0.9l2.9-9.5l8.3,6.6l-4.6,5.8l1.4,0.9L231.3,410.9z M392.8,390.9l-0.3,7.6l-2.8-1.1l2.1-3
		l-0.7-1.9L392.8,390.9z M378.3,388.2l0.9,1.1l-1.5,2.4l-2.8,0.5l-2.2-0.1l-0.4-1.2l2.1-0.6l0.9,1.3l1.9-0.4l-0.9-2.4L378.3,388.2z
		 M362.2,395.1l-4.5,1.7l-4.1-0.1l-0.7-0.7l-0.2-2.8l1-2.4l3.3-3l7.3-5.3l1.5,1.9l-1.6,3.2l1.4,3.1l-0.5,2.5L362.2,395.1z
		 M380.8,381.6l-1.9,4.8l-7.3,0.2l0.1-4.3l5,1L380.8,381.6z M375.9,378.2l-1.8,2.2l-2.3,0.2l-0.7-0.9l1-2.5h1.8l2.2-1.1L375.9,378.2
		z M381.7,374.5l-1.2,2.8l-2.1,0.7l0.4-2.7l1.4-3.8l1.2-1l2.1,2.4L381.7,374.5z M301.3,358l0.3,1.2l4.6-0.2l0.3,4.1l-8.7,0.6
		l-0.8-4.5l0.4-0.9L301.3,358z M257.7,346.9l5.8,4.6l1.3,9.2l-1.4,0.2l-5.7,2.9l-0.6,0.5l-8.1-6.5l0.5-0.7l-3.8-3l6.1-7.7l2,1.6
		l2.4,0.8L257.7,346.9z M280.9,351.9l-3.8,1.9l1.4,2.6l-5.8,3.1l-2.4-11l-0.9-1l-4.3-2.8l0.4-0.1l6.8-10.7l1.2-2.3l1.3-0.3l1.6,0
		l4,1.5l1.4,9.6l-1.9,1.3L280.9,351.9z M332.6,322.2l-0.2-1.9l-2.6-1.9l1.1-2.7l-0.8-0.6l1.2-1.9l2-2.6l1.2,3l-0.6,0.3l4.1,6.4
		l-0.7,2.4l-2.8,0.8L332.6,322.2z M343.9,318.1l1.4-1.2l3.1-1.6l0.7-1.3l3.8-3.9l4.7-3.4l4.3-1.1l0.5,0.5l0.4,4.1l-3.2,1l-3.3,1.8
		l-11.1,7L343.9,318.1z M274.4,291.8l0.8,0.3l1,2.9l4.4,4.7l-0.6,2.5l-1,1.9l-1.1,0.5l-3.6-0.1l-0.3-2l-9.5-0.5l0.3-5.4l1-3l1.6,1.6
		l1.2,2.6l2.8,0.6l2.6,1.4l0.7-1.7l-1.7-2.4l-2.2-2.1l2.1-1.4L274.4,291.8z"/>
	<path id="Hamilton_Heights" class="st0" d="M299.7,149.7l0.1,0.1l1.3,0.7l-0.5,1.7l-3.2,5.8l-1.9,2.7l-0.8-0.5l-1.7-0.9l-1.6,0
		l-0.8,1.4l-5-2.6l-2.6-0.5l1.9-4.1l2-0.3l1-1.4l3.3-6.7l0.5,0L299.7,149.7z"/>
	<path id="Washington_Heights_South" class="st2" d="M307.5,130.1l-3.7,7.1l0.5,2.4l-1.1,1.5l-1.5,4.3l-1.9,2.6l0,1.6l-8.1-4.6
		l-0.5,0l1.5-6.3l2-4.7l-0.6-3.7l-0.1-3.9l3.3,0.8l0.3-1.6l2.7-0.1l3.5,1.3l-0.5,0.7L307.5,130.1z"/>
	<path id="Highbridge" class="st0" d="M319.8,132.8l-0.6,3.4l1.5-0.1l-2.8,4.9l-4,3.5l-1.2,2.7L310,151l-2.1,1.2l-1.9,0.2l-0.4-5.4
		l0.4-2.8l2.2-5.2l2.2-6.6l2.9,0.7L319.8,132.8z"/>
	<path id="West_Concourse" class="st0" d="M324.5,134.9l-1.7,5.3l-5.3,7.7l-3.9,9.2l-0.7,2.4l-1.9,3.8l-1.4,4.2l-1.2,1.9l-1.9-1
		l-0.1-9.2l-0.5-7l1.9-0.2l2.1-1.2l2.7-3.8l1.2-2.7l4-3.5l2.8-4.9l-1.5,0.1l0.6-3.4h0.2L324.5,134.9z"/>
	<path id="Forest_Hills" class="st0" d="M395.1,283.5l-4.3,3l-6.2,2.9l-2.2,1l-3.4,0l-4.5,1.8l-1.8-1.1l-0.5-4.4l-0.4-5.7l-0.8-7.1
		l-1.1-1.9l1.7-0.1l0.7-1.5l-1.9-0.9l1.2-2.4l-0.4-1.9l2-0.8l-2.1-5.5l6-1.8l3.8-1.9l1.3,2.2l0.7,3.2l1.4,2.9l1.8,2l1.8,2.9l1.9,4.5
		l1.7,3.3l0.3,1.6l4.5,4.4L395.1,283.5z"/>
	<path id="park-cemetery-etc-Queens" class="st0" d="M367.3,453.1l-0.6-0.2l-4.7,1.7l-3.1,1.6l-3.2,1.1l-3.6,1.9l-2.6,0.7l-7.7,3.2
		l-4.3,1.5l-3.1,0.2l-1.4-6.4l16.7-6.2v-1l3.9-0.3l2.1-0.8l11.7-7.7l-0.6,2.6L364,446L367.3,453.1z M390.1,420.8l1.3,0.5l2,2
		l0.4,2.9l-0.9,1l-2.1,0l-2.3-1.7l-1.1-2.2l-0.9,0.3l-2.5-1.5l2.6-2.1l1.9-0.7L390.1,420.8z M413.5,414.9l-1.6,2l-2.4-3.4l-0.2-3.3
		l1.4-0.3l2.8,1.9L413.5,414.9z M421.9,406.9l3.5,1.5l-1,2l-4.3-0.1l-1.4-1.6l0.7-0.9l1.2,0L421.9,406.9z M425.1,404.8l1.2,3.1
		l-4.6-1.2l-1.3,0.7l-1-1l1.9-1.3L425.1,404.8z M390.9,408.5l1.2-1.8l0.1-2.3l1.6-0.5l1.9,1.3l0.3,2l-2.5,1.7L390.9,408.5z
		 M435.4,394.4l1.4,2.8l2.1,1.1l-0.4,1.5l-2.1,1.7l-4.4,2.2l-2.1,1.8l-0.7-1.7l2.1-0.1l-0.6-1.8l0.7-1.3l3.4-1.6L435.4,394.4z
		 M451.2,397.9l-1.4,0l-5-1.3l4.6-5.6l1.1,0.4L451.2,397.9z M431.3,388.9l4.6,2.1l-1.4,0.5l-0.9,1.4l1.3,4.2l-0.3,1.4l-3.9,1.9
		l-0.2,2.9l-1.6-0.3l-1.1,1.8l-1-1.6l-4.7-2l0.7-1.4l0.3-2.6l1.4-1.2l0.3-2.1l1.3-2.1l0.3-1.6l1.5-1.4l2.4,0.5L431.3,388.9z
		 M424,383.5l3.7,2.6l-3.9,2.4l-1.3,2.2l-0.4,3l-0.9,0.9l-0.3,2.2l-1.2,2.6l-2.1,0.1l0.3-2.7l-2.5-6.2l0.6-3.1l3.9-2.8L424,383.5z
		 M410.7,381.4l1.6,5.2l-0.7,4.2l0.9,3.6l-0.8,0.9l-1.4-4.9l-0.4-2.7l-2.3-3.1l0.5-0.9l-0.9-4l0.8-0.9l2.1,0.7L410.7,381.4z
		 M407.7,397.9l-3.7-0.3l-1.4,1.1l-1.3,3.2l-1.8-3.1l-4.9-0.9l-2.2,0.7l0.3-7.6l2.4-4.2l0.2-2.5l-1.5-0.9l1.1-5.6l-2-7.1l1.1-0.5
		l3.6,3.5l3.2-0.4l0.2-3l0.7-0.2l0.6,3.9l1.4,6.8l1.2,2.3l1.5,0.7l1.6,2.9l-1.6,0.6l-0.8,1.7l3.1,2.9l-1.5,1l-0.5,2.3L407.7,397.9z
		 M392.8,390.5l0-1.4l0-1.2v-0.4L392.8,390.5z M480.1,316.7l-0.6,0.2l-1.4,3.4l-3.3-1.4l-1.2,0.4l-7.9-3.1l2.1-3.9l8.7,3.4
		L480.1,316.7z M389.9,295.1l-4,3.6l-3,2l-3.5,1.2l-1.4-2.2l-3-0.3l1.2,2.4l-0.1,1l-3.3,0.5l-10.4,2.7l-0.5-0.5l-4.3,1.1l-4.7,3.4
		l-3.8,3.9l-0.7,1.3l-3.1,1.6l-1.4,1.2l-2.5,1L340,317l-2.1,3.4l-4.1-6.4l0.6-0.3l-1.2-3l0.5-0.8l1-2.3l2.3-0.7l0.3,2.4l2.6-1.3
		l-1-1.7l2.3-0.7l0.4,1l3.3-1l1.5-1.4l-1.5-2.8l0.4-1l4.3-1.1l0.8,1.3l4.9-2.4l-0.2-0.8l11.8-1.3l4,0.7l-0.6,1.8l5.6-1.1l-1.9-3.4
		v-1.8l4.5-1.8l3.4,0l2.2-1l5.2,1.5l-0.8,2.4L389.9,295.1z M326.8,258.1l-1.3,3.4l3.9,1.3l1-4l3.5,2.3l-3.6,5.7l-1.6,1.8l-3.8-2.8
		l-0.5,1.6h-5.2l0.6-3.3l-1.3-0.7l2.8-10.2l1.1,0.3l0.5-2.2l1.7,0.1l3.9,0.5L326.8,258.1z M460,269.8l-3,0.5l-4.8-0.7l-3.7,0.7
		l-4.4,2l-0.3-1.4l-2-5.7l6.5-1.9l-1.9-3.8l-3-9.4l3.6-0.9l3.4-1.9l1.9,2.9l2.7,7.5l-0.2,1.7l-2.1,0.8l1.2,1.9l-1.6,0.4l3.5,4
		L460,269.8z M426.8,245.6l0.1,3.1l-2.1,3l-2.8-0.4l-7.1,0.3l-5.3-1.1l0.1-3.7l5.7-4.6l4.1,0.4l-0.4,3.8L426.8,245.6z M393.4,244.9
		l-1.2,0.7l-1.1,2.8l-0.1,1.9l4.1,1l-0.2,3.6l0.7,1.9l2.1,0.5l0.1-1.6l2.7-1.3l-0.7,8.5l-7.2,2l2.6,4.4l3.2,2.6l1.5,6l0.1,2.2
		l1.7-0.2l2.8,0.8l-1.5-0.2l-3.5,1.1l-4.5,1.9l1.1-1.5l-4.5-4.4l-0.3-1.6l-1.7-3.3l-1.9-4.5l-1.8-2.9l-1.8-2l-1.4-2.9l-0.7-3.2
		l-1.3-2.2l-0.2-1.2l-2.1-0.8l-3.7-9.3l3.1-1.4l-2-5.8l-1.2-3.7l-1.4-1.7l-2.7-1.7l-1.7-2.8l0.6-0.2l0.9,1.6l2,1.5l4.9,2l2.5-0.9
		l4-3.5l1.7-2l2.3-0.6l1.4,1l1,3.9l-1.6,4.8l0.5,2.7l2.2,3.8l2.8-0.7L393.4,244.9z M331.8,224.2l1.4-1.8l7.5,1.7l-0.8,0.6l-3.6,6.4
		l-2.5,0.3l-0.7-3.5L331.8,224.2z M480.1,250.7l-3.9,2.8l-1.8,2.2l-2.5,0l-0.7-2.7l-5.2,1.2l-1.3-0.5l-1.8-2.5l4.9-1l2.7,0l-1.3-4
		l2.1-1.2l-1.7-4.4l-0.9-0.6l-1.1-4.4l-1.7-2.9l-2-1.2l-0.7,1.4l-1.7-0.3l-2.5-2.2l0.1-2.5l-1.2-2l3.1-0.4l1.6-0.7h0.3l3.5-2.5
		l2.2,3.5l-2.9,0.9l0.7,0.9l2.9-1.2l1.1,3.7l3.1,4.6l1.4,1.4l-1.9,2.3l3.1,4.9l2.5,2.4l0.6,3.6L480.1,250.7z M314,214.1l-3.7-2.7
		l3.5-2.5l3.7-4.1l1.7,1.6l-5,5.4L314,214.1z"/>
	<path id="Springfield_Gardens_South-Brookville" class="st0" d="M459.1,338.6l14.4,0l-2.9,3l-2,3.4l-1.4,3.7l3,0.2l1.5,1.4l0,4.2
		l-4.2-0.1l-4.2-2.6l-3.4-2.6l-4.2-1.3l-0.2,1.9l-1.2,0.7l-0.8,1.7l-9.4-6.7l-7.3-3.5l-11.5-2.1l-4.9-0.2l0.4-1.7l2.1,0.3l1.8-0.5
		l6.8,0.1l12.3-1.3l3.3,0L459.1,338.6z"/>
	<path id="Airport" class="st0" d="M420.4,340l4.9,0.2l11.5,2.1l7.3,3.5l9.4,6.7l8.7,6.5l-0.4,1.7l5.2,4.4l1.1,2.2l-0.1,2.5
		l-0.8,4.4l-3.5,2.1l-5.6,2.4l-6.5,3.6l-2.1,4.6l0,2.1l-2,2.9l-0.7-1.1l0.7-1.7l-0.7-1.4l-1.5-1.7l-2.7-2.9l-2.6,0.4L436,391
		l-4.6-2.1l4.1-4.5l1.2-1.7l0.7-2.5l-2.7-2.1l-1.1-0.2l-2.1-2l-1.2-0.3v0l-1.3-1.8l-6-2.9l-2.3-1.6l-6-3.5l-9-4.7l-2.6-3.9l-1.3-5.9
		l1-4.6l3.1-2l5.4,1.1l1-0.7l-6.3-1.6l-4.3,2.4l-1.3,5.3l1.4,7l-2.4-0.1l-0.2,1.3l-1.9-10.2l-3.6-9.4l4.2,1.7l4.3,0.4l7,1.2l2.8-0.5
		l2.9-1.7L420.4,340z M343.6,215.2l-1.5-1.5l0.7-2.7l1.4,1.5L343.6,215.2z M361.7,201L361.7,201l-0.1,2.7l-1.8,1.7l-0.6,1.9l6.5,4.3
		l8.5,5.2l-1.8,3.6l-1.5,2.1l-3.5,0.8l2,3.2l-0.6,0.2l-1.8-3l-2-2.4l-3.4-3l-3.8-1l-2,0.3l-1.8,0.7l-4,2.8l-4.3,1.9l-0.9-2.5
		l-0.6-5.3l4.5-0.7l-0.7-5.6l0.2-1.1l3.1-0.7h2.3l-0.5-1.5l0.9-1.4l2.8,1.8l3.4-5.2L361.7,201z"/>
</g>
</svg>
